StickNoBills-sinhala-0.ufo
<glyph name="anusvara" format="1">
  <advance width="469"/>
  <unicode hex="0D82"/>
  <outline>
    <contour>
      <point x="388.668" y="311" type="curve" smooth="yes"/>
      <point x="388.668" y="248" type="line" smooth="yes"/>
      <point x="388.668" y="150.602"/>
      <point x="368.889" y="85"/>
      <point x="259.334" y="85" type="curve"/>
      <point x="259.334" y="45" type="line"/>
      <point x="280.405" y="45" type="line" smooth="yes"/>
      <point x="425.668" y="45"/>
      <point x="428.668" y="189.747"/>
      <point x="428.668" y="248" type="curve" smooth="yes"/>
      <point x="428.668" y="311" type="line" smooth="yes"/>
      <point x="428.668" y="369.253"/>
      <point x="425.668" y="514"/>
      <point x="280.405" y="514" type="curve" smooth="yes"/>
      <point x="259.334" y="514" type="line"/>
      <point x="259.334" y="474" type="line"/>
      <point x="366.889" y="474"/>
      <point x="388.668" y="408.398"/>
    </contour>
    <contour>
      <point x="80" y="311" type="curve" smooth="yes"/>
      <point x="80" y="248" type="line" smooth="yes"/>
      <point x="80" y="150.602"/>
      <point x="99.7793" y="85"/>
      <point x="209.334" y="85" type="curve"/>
      <point x="209.334" y="45" type="line"/>
      <point x="188.263" y="45" type="line" smooth="yes"/>
      <point x="43" y="45"/>
      <point x="40" y="189.747"/>
      <point x="40" y="248" type="curve" smooth="yes"/>
      <point x="40" y="311" type="line" smooth="yes"/>
      <point x="40" y="369.253"/>
      <point x="43" y="514"/>
      <point x="188.263" y="514" type="curve" smooth="yes"/>
      <point x="209.334" y="514" type="line"/>
      <point x="209.334" y="474" type="line"/>
      <point x="101.779" y="474"/>
      <point x="80" y="408.398"/>
    </contour>
  </outline>
</glyph>
<glyph name="visarga" format="1">
  <advance width="388"/>
  <unicode hex="0D83"/>
  <outline>
    <contour>
      <point x="218.916" y="-7.4502" type="line"/>
      <point x="218.916" y="32.5498" type="line"/>
      <point x="279.371" y="32.5498"/>
      <point x="309.539" y="80.0874"/>
      <point x="309.539" y="127.656" type="curve" smooth="yes"/>
      <point x="309.539" y="175.288"/>
      <point x="279.292" y="222.95"/>
      <point x="218.916" y="222.95" type="curve"/>
      <point x="218.916" y="262.95" type="line"/>
      <point x="232.612" y="262.95" type="line" smooth="yes"/>
      <point x="314.215" y="262.95"/>
      <point x="355.061" y="195.301"/>
      <point x="355.061" y="127.676" type="curve" smooth="yes"/>
      <point x="355.061" y="60.1004"/>
      <point x="314.275" y="-7.4502"/>
      <point x="232.612" y="-7.4502" type="curve" smooth="yes"/>
    </contour>
    <contour>
      <point x="155.388" y="-7.4502" type="line" smooth="yes"/>
      <point x="73.7252" y="-7.4502"/>
      <point x="32.9388" y="60.1004"/>
      <point x="32.9388" y="127.676" type="curve" smooth="yes"/>
      <point x="32.9388" y="195.301"/>
      <point x="73.7851" y="262.95"/>
      <point x="155.388" y="262.95" type="curve" smooth="yes"/>
      <point x="169.084" y="262.95" type="line"/>
      <point x="169.084" y="222.95" type="line"/>
      <point x="108.708" y="222.95"/>
      <point x="78.461" y="175.288"/>
      <point x="78.461" y="127.656" type="curve" smooth="yes"/>
      <point x="78.461" y="80.0874"/>
      <point x="108.629" y="32.5498"/>
      <point x="169.084" y="32.5498" type="curve"/>
      <point x="169.084" y="-7.4502" type="line"/>
    </contour>
    <contour>
      <point x="218.916" y="297.55" type="line"/>
      <point x="218.916" y="337.55" type="line"/>
      <point x="279.371" y="337.55"/>
      <point x="309.539" y="385.087"/>
      <point x="309.539" y="432.656" type="curve" smooth="yes"/>
      <point x="309.539" y="480.288"/>
      <point x="279.292" y="527.95"/>
      <point x="218.916" y="527.95" type="curve"/>
      <point x="218.916" y="567.95" type="line"/>
      <point x="232.612" y="567.95" type="line" smooth="yes"/>
      <point x="314.215" y="567.95"/>
      <point x="355.061" y="500.301"/>
      <point x="355.061" y="432.676" type="curve" smooth="yes"/>
      <point x="355.061" y="365.1"/>
      <point x="314.275" y="297.55"/>
      <point x="232.612" y="297.55" type="curve" smooth="yes"/>
    </contour>
    <contour>
      <point x="155.388" y="297.55" type="line" smooth="yes"/>
      <point x="73.7253" y="297.55"/>
      <point x="32.9387" y="365.101"/>
      <point x="32.9387" y="432.676" type="curve" smooth="yes"/>
      <point x="32.9387" y="500.301"/>
      <point x="73.7849" y="567.95"/>
      <point x="155.388" y="567.95" type="curve" smooth="yes"/>
      <point x="169.084" y="567.95" type="line"/>
      <point x="169.084" y="527.95" type="line"/>
      <point x="108.708" y="527.95"/>
      <point x="78.461" y="480.288"/>
      <point x="78.461" y="432.656" type="curve" smooth="yes"/>
      <point x="78.461" y="385.087"/>
      <point x="108.629" y="337.55"/>
      <point x="169.084" y="337.55" type="curve"/>
      <point x="169.084" y="297.55" type="line"/>
    </contour>
  </outline>
</glyph>
<glyph name="si_A" format="1">
  <advance width="541"/>
  <unicode hex="0D85"/>
  <outline>
    <contour>
      <point x="392" y="-169" type="line"/>
      <point x="392" y="433" type="line" smooth="yes"/>
      <point x="392" y="519"/>
      <point x="446" y="570"/>
      <point x="503" y="583" type="curve"/>
      <point x="511" y="545" type="line"/>
      <point x="453" y="532"/>
      <point x="432" y="474.004"/>
      <point x="432" y="433" type="curve" smooth="yes"/>
      <point x="432" y="41" type="line"/>
      <point x="494" y="41" type="line"/>
      <point x="494" y="0" type="line"/>
      <point x="432" y="0" type="line"/>
      <point x="432" y="-169" type="line"/>
    </contour>
    <contour>
      <point x="30" y="199" type="curve" smooth="yes"/>
      <point x="30" y="335.29"/>
      <point x="125.045" y="402"/>
      <point x="256" y="402" type="curve" smooth="yes"/>
      <point x="392" y="402" type="line"/>
      <point x="392" y="493.372"/>
      <point x="320.287" y="537.564"/>
      <point x="242.646" y="537.564" type="curve" smooth="yes"/>
      <point x="181.683" y="537.564"/>
      <point x="123.614" y="504.852"/>
      <point x="107" y="443" type="curve"/>
      <point x="68" y="456" type="line"/>
      <point x="89.4072" y="536.278"/>
      <point x="163.421" y="579.363"/>
      <point x="240.706" y="579.363" type="curve" smooth="yes"/>
      <point x="339.016" y="579.363"/>
      <point x="432" y="518.503"/>
      <point x="432" y="389" type="curve" smooth="yes"/>
      <point x="432" y="362" type="line"/>
      <point x="246" y="362" type="line" smooth="yes"/>
      <point x="130.019" y="362"/>
      <point x="71.624" y="293.457"/>
      <point x="71.624" y="199" type="curve" smooth="yes"/>
      <point x="71.624" y="108.484"/>
      <point x="133.124" y="40"/>
      <point x="257" y="40" type="curve"/>
      <point x="337" y="40" type="line"/>
      <point x="337" y="0" type="line"/>
      <point x="257" y="0" type="line" smooth="yes"/>
      <point x="137" y="0"/>
      <point x="30" y="60.3916"/>
    </contour>
  </outline>
</glyph>
<glyph name="si_I" format="1">
  <advance width="555"/>
  <unicode hex="0D89"/>
  <outline>
    <contour>
      <point x="192" y="0" type="line"/>
      <point x="192" y="40" type="line"/>
      <point x="201.667" y="40"/>
      <point x="273.333" y="40"/>
      <point x="283" y="40" type="curve" smooth="yes"/>
      <point x="368.2" y="40"/>
      <point x="485" y="82.9551"/>
      <point x="485" y="249" type="curve" smooth="yes"/>
      <point x="485" y="377" type="line" smooth="yes"/>
      <point x="485" y="509.888"/>
      <point x="362" y="529"/>
      <point x="308" y="529" type="curve" smooth="yes"/>
      <point x="308" y="569" type="line" smooth="yes"/>
      <point x="324" y="569" type="line"/>
      <point x="427.754" y="569"/>
      <point x="525" y="506.126"/>
      <point x="525" y="377" type="curve" smooth="yes"/>
      <point x="525" y="249" type="line" smooth="yes"/>
      <point x="525" y="95.834"/>
      <point x="447.519" y="0"/>
      <point x="283" y="0" type="curve" smooth="yes"/>
    </contour>
    <contour>
      <point x="71" y="-76" type="curve"/>
      <point x="110" y="-66" type="line"/>
      <point x="126.45" y="-133.627"/>
      <point x="192.154" y="-164.281"/>
      <point x="247.803" y="-164.281" type="curve" smooth="yes"/>
      <point x="313.94" y="-164.281"/>
      <point x="390" y="-120.985"/>
      <point x="390" y="-45" type="curve"/>
      <point x="430" y="-45" type="line"/>
      <point x="430" y="-151.097"/>
      <point x="336.547" y="-203.964"/>
      <point x="251.978" y="-203.964" type="curve" smooth="yes"/>
      <point x="175.936" y="-203.964"/>
      <point x="88.9912" y="-161.221"/>
    </contour>
    <contour>
      <point x="20" y="312" type="curve" smooth="yes"/>
      <point x="20" y="384" type="line" smooth="yes"/>
      <point x="20" y="503.126"/>
      <point x="133.246" y="569"/>
      <point x="237" y="569" type="curve"/>
      <point x="253" y="569" type="line" smooth="yes"/>
      <point x="253" y="529" type="line"/>
      <point x="237" y="529" type="line"/>
      <point x="195.286" y="529"/>
      <point x="62.1545" y="500.334"/>
      <point x="62" y="384.5" type="curve" smooth="yes"/>
      <point x="61.9033" y="312" type="line" smooth="yes"/>
      <point x="61.8124" y="241"/>
      <point x="118.976" y="217"/>
      <point x="165.988" y="217" type="curve" smooth="yes"/>
      <point x="213" y="217"/>
      <point x="260" y="242"/>
      <point x="260" y="292" type="curve" smooth="yes"/>
      <point x="260" y="365" type="line"/>
      <point x="300" y="365" type="line"/>
      <point x="300" y="292" type="line" smooth="yes"/>
      <point x="300" y="213.563"/>
      <point x="232.608" y="174.437"/>
      <point x="165.161" y="174.437" type="curve" smooth="yes"/>
      <point x="97.6084" y="174.437"/>
      <point x="20" y="212.688"/>
    </contour>
  </outline>
</glyph>
<glyph name="si_U" format="1">
  <advance width="544"/>
  <unicode hex="0D8B"/>
  <outline>
    <contour>
      <point x="324" y="-128" type="line"/>
      <point x="378.158" y="-128"/>
      <point x="502" y="-117"/>
      <point x="530" y="15" type="curve"/>
      <point x="569" y="4.125" type="line"/>
      <point x="539.601" y="-135.143"/>
      <point x="423.056" y="-168"/>
      <point x="324" y="-168" type="curve"/>
    </contour>
    <contour>
      <point x="128" y="464" type="line"/>
      <point x="150.456" y="533.24"/>
      <point x="233.32" y="574.464"/>
      <point x="316.487" y="574.464" type="curve" smooth="yes"/>
      <point x="411.089" y="574.464"/>
      <point x="506.082" y="521.123"/>
      <point x="513" y="395" type="curve"/>
      <point x="513" y="357" type="line"/>
      <point x="268" y="357" type="line" smooth="yes"/>
      <point x="189" y="357"/>
      <point x="70" y="339.419"/>
      <point x="70" y="133" type="curve" smooth="yes"/>
      <point x="70" y="85" type="line" smooth="yes"/>
      <point x="70" y="-96.1748"/>
      <point x="244" y="-129"/>
      <point x="268" y="-129" type="curve"/>
      <point x="268" y="-169" type="line"/>
      <point x="164.482" y="-169"/>
      <point x="30" y="-82.9238"/>
      <point x="30" y="85" type="curve" smooth="yes"/>
      <point x="30" y="133" type="line" smooth="yes"/>
      <point x="30" y="247.443"/>
      <point x="61" y="397"/>
      <point x="268" y="397" type="curve" smooth="yes"/>
      <point x="471" y="397" type="line"/>
      <point x="460.777" y="495.655"/>
      <point x="389.15" y="533.429"/>
      <point x="317.559" y="533.429" type="curve" smooth="yes"/>
      <point x="249.096" y="533.429"/>
      <point x="180.665" y="498.883"/>
      <point x="166" y="450" type="curve"/>
    </contour>
  </outline>
</glyph>
<glyph name="si_vocalicR" format="1">
  <advance width="964"/>
  <unicode hex="0D8D"/>
  <outline>
    <contour>
      <point x="30" y="140" type="curve" smooth="yes"/>
      <point x="30" y="192" type="line"/>
      <point x="70" y="192" type="line"/>
      <point x="70" y="141" type="line" smooth="yes"/>
      <point x="70" y="74.3125"/>
      <point x="118.737" y="40"/>
      <point x="182" y="40" type="curve" smooth="yes"/>
      <point x="246.263" y="40"/>
      <point x="295" y="74.3125"/>
      <point x="295" y="141" type="curve" smooth="yes"/>
      <point x="295" y="192" type="line"/>
      <point x="335" y="192" type="line"/>
      <point x="335" y="141" type="line" smooth="yes"/>
      <point x="335" y="74.3125"/>
      <point x="383.737" y="40"/>
      <point x="448" y="40" type="curve" smooth="yes"/>
      <point x="511.263" y="40"/>
      <point x="560" y="74.3125"/>
      <point x="560" y="141" type="curve" smooth="yes"/>
      <point x="560" y="192" type="line"/>
      <point x="600" y="192" type="line"/>
      <point x="600" y="140" type="line" smooth="yes"/>
      <point x="600" y="55.5283"/>
      <point x="532.327" y="0"/>
      <point x="448" y="0" type="curve" smooth="yes"/>
      <point x="390.604" y="0"/>
      <point x="341.197" y="25.1246"/>
      <point x="315" y="67.2825" type="curve"/>
      <point x="288.803" y="25.1246"/>
      <point x="239.396" y="0"/>
      <point x="182" y="0" type="curve" smooth="yes"/>
      <point x="97.6729" y="0"/>
      <point x="30" y="55.5283"/>
    </contour>
    <contour>
      <point x="36" y="477" type="line"/>
      <point x="61.707" y="541.871"/>
      <point x="122.119" y="564"/>
      <point x="186" y="564" type="curve" smooth="yes"/>
      <point x="222.661" y="564"/>
      <point x="283.651" y="551.303"/>
      <point x="315" y="497.885" type="curve"/>
      <point x="346.349" y="551.303"/>
      <point x="407.339" y="564"/>
      <point x="444" y="564" type="curve" smooth="yes"/>
      <point x="507.881" y="564"/>
      <point x="568.293" y="541.871"/>
      <point x="594" y="477" type="curve"/>
      <point x="555" y="464" type="line"/>
      <point x="541.527" y="500.315"/>
      <point x="506.579" y="524"/>
      <point x="444" y="524" type="curve" smooth="yes"/>
      <point x="365.793" y="524"/>
      <point x="335" y="469"/>
      <point x="335" y="415" type="curve" smooth="yes"/>
      <point x="335" y="379" type="line"/>
      <point x="295" y="379" type="line"/>
      <point x="295" y="415" type="line" smooth="yes"/>
      <point x="295" y="469"/>
      <point x="264.207" y="524"/>
      <point x="186" y="524" type="curve" smooth="yes"/>
      <point x="123.421" y="524"/>
      <point x="88.4727" y="500.315"/>
      <point x="75" y="464" type="curve"/>
    </contour>
    <contour>
      <point x="30" y="241" type="line"/>
      <point x="30" y="288" type="line" smooth="yes"/>
      <point x="30" y="336.857"/>
      <point x="35.2051" y="402"/>
      <point x="146" y="402" type="curve"/>
      <point x="484" y="402" type="line"/>
      <point x="594.795" y="402"/>
      <point x="600" y="336.857"/>
      <point x="600" y="288" type="curve" smooth="yes"/>
      <point x="600" y="241" type="line"/>
      <point x="560" y="241" type="line"/>
      <point x="560" y="288" type="line" smooth="yes"/>
      <point x="560" y="354.575"/>
      <point x="521.369" y="362"/>
      <point x="485" y="362" type="curve"/>
      <point x="145" y="362" type="line"/>
      <point x="108.631" y="362"/>
      <point x="70" y="354.575"/>
      <point x="70" y="288" type="curve" smooth="yes"/>
      <point x="70" y="241" type="line"/>
    </contour>
    <component base="si_MatraR" xOffset="651"/>
  </outline>
</glyph>
<glyph name="si_vocalicL" format="1">
  <advance width="884"/>
  <unicode hex="0D8F"/>
  <outline>
    <contour>
      <point x="830.2" y="69" type="curve" smooth="yes"/>
      <point x="830.2" y="110.6"/>
      <point x="796.6" y="144.2"/>
      <point x="755" y="144.2" type="curve" smooth="yes"/>
      <point x="713.4" y="144.2"/>
      <point x="679.8" y="110.6"/>
      <point x="679.8" y="69" type="curve" smooth="yes"/>
      <point x="679.8" y="27.4004"/>
      <point x="713.4" y="-6.2002"/>
      <point x="755" y="-6.2002" type="curve" smooth="yes"/>
      <point x="796.6" y="-6.2002"/>
      <point x="830.2" y="27.4004"/>
    </contour>
    <contour>
      <point x="854" y="251" type="line"/>
      <point x="854" y="371" type="line" smooth="yes"/>
      <point x="854" y="489"/>
      <point x="782" y="543"/>
      <point x="682" y="507" type="curve"/>
      <point x="682" y="464" type="line"/>
      <point x="706" y="472" type="line" smooth="yes"/>
      <point x="746" y="485"/>
      <point x="814" y="481"/>
      <point x="814" y="373" type="curve" smooth="yes"/>
      <point x="814" y="251" type="line"/>
    </contour>
    <contour>
      <point x="814" y="202" type="line"/>
      <point x="814" y="155.109"/>
      <point x="802.205" y="94.667"/>
      <point x="787.646" y="69.2139" type="curve"/>
      <point x="821.007" y="32.9053" type="line"/>
      <point x="842.637" y="73.7725"/>
      <point x="854" y="138.929"/>
      <point x="854" y="201.842" type="curve"/>
    </contour>
    <contour>
      <point x="53.7998" y="69" type="curve" smooth="yes"/>
      <point x="53.7998" y="27.4004"/>
      <point x="87.4004" y="-6.2002"/>
      <point x="129" y="-6.2002" type="curve" smooth="yes"/>
      <point x="170.6" y="-6.2002"/>
      <point x="204.2" y="27.4004"/>
      <point x="204.2" y="69" type="curve" smooth="yes"/>
      <point x="204.2" y="110.6"/>
      <point x="170.6" y="144.2"/>
      <point x="129" y="144.2" type="curve" smooth="yes"/>
      <point x="87.4004" y="144.2"/>
      <point x="53.7998" y="110.6"/>
    </contour>
    <contour>
      <point x="30" y="251" type="line"/>
      <point x="70" y="251" type="line"/>
      <point x="70" y="373" type="line" smooth="yes"/>
      <point x="70" y="481"/>
      <point x="138" y="485"/>
      <point x="178" y="472" type="curve" smooth="yes"/>
      <point x="202" y="464" type="line"/>
      <point x="202" y="507" type="line"/>
      <point x="102" y="543"/>
      <point x="30" y="489"/>
      <point x="30" y="371" type="curve" smooth="yes"/>
    </contour>
    <contour>
      <point x="70" y="202" type="curve"/>
      <point x="30" y="201.842" type="line"/>
      <point x="30" y="138.929"/>
      <point x="41.3633" y="73.7725"/>
      <point x="62.9932" y="32.9053" type="curve"/>
      <point x="96.3535" y="69.2139" type="line"/>
      <point x="81.7949" y="94.667"/>
      <point x="70" y="155.109"/>
    </contour>
    <component base="si_Pa" xOffset="132"/>
  </outline>
</glyph>
<glyph name="si_E" format="1">
  <advance width="589"/>
  <unicode hex="0D91"/>
  <outline>
    <contour>
      <point x="209" y="309" type="line"/>
      <point x="79.9033" y="309"/>
      <point x="65.6875" y="40"/>
      <point x="279" y="40" type="curve"/>
      <point x="279" y="0" type="line"/>
      <point x="10.3691" y="0"/>
      <point x="22.9307" y="349"/>
      <point x="209" y="349" type="curve"/>
    </contour>
    <contour>
      <point x="30.0254" y="309" type="line"/>
      <point x="30" y="349" type="line"/>
      <point x="295" y="349" type="line"/>
      <point x="294.506" y="450.283"/>
      <point x="149.243" y="467.491"/>
      <point x="116" y="389" type="curve"/>
      <point x="77" y="399" type="line"/>
      <point x="107.677" y="516.998"/>
      <point x="335.062" y="506.469"/>
      <point x="334.932" y="354" type="curve" smooth="yes"/>
      <point x="335" y="309" type="line"/>
    </contour>
    <contour>
      <point x="517" y="241" type="curve" smooth="yes"/>
      <point x="559" y="241" type="line" smooth="yes"/>
      <point x="559" y="83.9629"/>
      <point x="493.37" y="0"/>
      <point x="334" y="0" type="curve"/>
      <point x="334" y="40" type="line"/>
      <point x="447.056" y="40"/>
      <point x="517" y="95.2852"/>
    </contour>
    <contour>
      <point x="292" y="637" type="curve" smooth="yes"/>
      <point x="292" y="755" type="line"/>
      <point x="332" y="755" type="line"/>
      <point x="461.702" y="755"/>
      <point x="559" y="700"/>
      <point x="559" y="517" type="curve" smooth="yes"/>
      <point x="559" y="235" type="line"/>
      <point x="517" y="235" type="line"/>
      <point x="517" y="498" type="line" smooth="yes"/>
      <point x="517" y="643.279"/>
      <point x="469.385" y="715"/>
      <point x="332" y="715" type="curve"/>
      <point x="331.95" y="637" type="line" smooth="yes"/>
      <point x="332" y="536.674"/>
      <point x="399.352" y="504"/>
      <point x="462" y="504" type="curve"/>
      <point x="462" y="464" type="line"/>
      <point x="345" y="464"/>
      <point x="292" y="540.655"/>
    </contour>
  </outline>
</glyph>
<glyph name="si_Os" format="1">
  <advance width="580"/>
  <unicode hex="0D94"/>
  <outline>
    <contour>
      <point x="72" y="336" type="curve" smooth="yes"/>
      <point x="72" y="139" type="line" smooth="yes"/>
      <point x="72" y="104.059"/>
      <point x="94.8457" y="40"/>
      <point x="171" y="40" type="curve" smooth="yes"/>
      <point x="246.154" y="40"/>
      <point x="269" y="104.059"/>
      <point x="269" y="139" type="curve" smooth="yes"/>
      <point x="269" y="192" type="line"/>
      <point x="311" y="192" type="line"/>
      <point x="311" y="133" type="line" smooth="yes"/>
      <point x="311" y="52.25"/>
      <point x="252.893" y="0"/>
      <point x="171" y="0" type="curve" smooth="yes"/>
      <point x="88.1074" y="0"/>
      <point x="30" y="52.25"/>
      <point x="30" y="133" type="curve" smooth="yes"/>
      <point x="30" y="336" type="line" smooth="yes"/>
      <point x="30" y="519.997"/>
      <point x="236" y="516.105"/>
      <point x="236" y="380" type="curve" smooth="yes"/>
      <point x="236" y="315" type="line" smooth="yes"/>
      <point x="236" y="262.379"/>
      <point x="319" y="262.574"/>
      <point x="319" y="315" type="curve" smooth="yes"/>
      <point x="319" y="469" type="line"/>
      <point x="359" y="469" type="line"/>
      <point x="359" y="310" type="line" smooth="yes"/>
      <point x="359" y="203.736"/>
      <point x="196" y="203.597"/>
      <point x="196" y="310" type="curve" smooth="yes"/>
      <point x="196" y="380" type="line" smooth="yes"/>
      <point x="196" y="455.751"/>
      <point x="72" y="472.624"/>
    </contour>
    <contour>
      <point x="269" y="133" type="curve" smooth="yes"/>
      <point x="269" y="192" type="line"/>
      <point x="311" y="192" type="line"/>
      <point x="311" y="139" type="line" smooth="yes"/>
      <point x="311" y="104.059"/>
      <point x="333.846" y="40"/>
      <point x="409" y="40" type="curve" smooth="yes"/>
      <point x="485.154" y="40"/>
      <point x="508" y="104.059"/>
      <point x="508" y="139" type="curve" smooth="yes"/>
      <point x="508" y="242" type="line"/>
      <point x="550" y="242" type="line"/>
      <point x="550" y="133" type="line" smooth="yes"/>
      <point x="550" y="52.25"/>
      <point x="491.893" y="0"/>
      <point x="409" y="0" type="curve" smooth="yes"/>
      <point x="327.107" y="0"/>
      <point x="269" y="52.25"/>
    </contour>
    <contour>
      <point x="35.375" y="563" type="line"/>
      <point x="35.375" y="673.921"/>
      <point x="148.923" y="755"/>
      <point x="245" y="755" type="curve"/>
      <point x="257" y="755" type="line"/>
      <point x="257" y="715" type="line"/>
      <point x="245" y="715" type="line"/>
      <point x="160.506" y="715"/>
      <point x="74.375" y="644.132"/>
      <point x="74.375" y="553" type="curve"/>
    </contour>
    <contour>
      <point x="550" y="241" type="line" smooth="yes"/>
      <point x="508" y="241" type="line" smooth="yes"/>
      <point x="508" y="514" type="line" smooth="yes"/>
      <point x="508" y="661.715"/>
      <point x="438.056" y="715"/>
      <point x="325" y="715" type="curve"/>
      <point x="314" y="715" type="line"/>
      <point x="314" y="755" type="line"/>
      <point x="325" y="755" type="line"/>
      <point x="484.37" y="755"/>
      <point x="550" y="671.037"/>
      <point x="550" y="514" type="curve" smooth="yes"/>
    </contour>
  </outline>
</glyph>
<glyph name="si_Oo" format="1">
  <advance width="580"/>
  <unicode hex="0D95"/>
  <outline>
    <contour>
      <point x="72" y="366" type="curve" smooth="yes"/>
      <point x="72" y="139" type="line" smooth="yes"/>
      <point x="72" y="104.059"/>
      <point x="94.8457" y="40"/>
      <point x="171" y="40" type="curve" smooth="yes"/>
      <point x="246.154" y="40"/>
      <point x="269" y="104.059"/>
      <point x="269" y="139" type="curve" smooth="yes"/>
      <point x="269" y="192" type="line"/>
      <point x="311" y="192" type="line"/>
      <point x="311" y="139" type="line" smooth="yes"/>
      <point x="311" y="104.059"/>
      <point x="333.846" y="40"/>
      <point x="409" y="40" type="curve" smooth="yes"/>
      <point x="485.154" y="40"/>
      <point x="508" y="104.059"/>
      <point x="508" y="139" type="curve" smooth="yes"/>
      <point x="508" y="197" type="line"/>
      <point x="550" y="197" type="line"/>
      <point x="550" y="133" type="line" smooth="yes"/>
      <point x="550" y="52.25"/>
      <point x="491.893" y="0"/>
      <point x="409" y="0" type="curve" smooth="yes"/>
      <point x="356.595" y="0"/>
      <point x="313.931" y="21.3961"/>
      <point x="290" y="57.9649" type="curve"/>
      <point x="266.069" y="21.3961"/>
      <point x="223.405" y="3.55271e-15"/>
      <point x="171" y="0" type="curve" smooth="yes"/>
      <point x="88.1074" y="0"/>
      <point x="30" y="52.25"/>
      <point x="30" y="133" type="curve" smooth="yes"/>
      <point x="30" y="366" type="line" smooth="yes"/>
      <point x="30" y="440.802"/>
      <point x="86.3438" y="479.694"/>
      <point x="141.478" y="479.694" type="curve" smooth="yes"/>
      <point x="194.294" y="479.694"/>
      <point x="246" y="444.003"/>
      <point x="246" y="370" type="curve" smooth="yes"/>
      <point x="246" y="315" type="line" smooth="yes"/>
      <point x="246" y="288.714"/>
      <point x="266.711" y="275.607"/>
      <point x="287.442" y="275.607" type="curve" smooth="yes"/>
      <point x="308.211" y="275.607"/>
      <point x="329" y="288.763"/>
      <point x="329" y="315" type="curve" smooth="yes"/>
      <point x="329" y="469" type="line"/>
      <point x="369" y="469" type="line"/>
      <point x="369" y="310" type="line" smooth="yes"/>
      <point x="369" y="256.851"/>
      <point x="328.223" y="230.25"/>
      <point x="287.46" y="230.25" type="curve" smooth="yes"/>
      <point x="246.723" y="230.25"/>
      <point x="206" y="256.816"/>
      <point x="206" y="310" type="curve" smooth="yes"/>
      <point x="206" y="370" type="line" smooth="yes"/>
      <point x="206" y="415.558"/>
      <point x="173.025" y="438.77"/>
      <point x="139.791" y="438.77" type="curve" smooth="yes"/>
      <point x="106.029" y="438.77"/>
      <point x="72" y="414.816"/>
    </contour>
    <contour>
      <point x="325.5" y="779" type="line"/>
      <point x="325.5" y="819" type="line"/>
      <point x="391" y="819" type="line" smooth="yes"/>
      <point x="539.359" y="819"/>
      <point x="546.333" y="742"/>
      <point x="546.333" y="673" type="curve"/>
      <point x="506.333" y="673" type="line"/>
      <point x="506.333" y="778.276"/>
      <point x="451.627" y="779"/>
      <point x="391" y="779" type="curve" smooth="yes"/>
    </contour>
    <contour>
      <point x="348" y="612" type="curve"/>
      <point x="348" y="652" type="line"/>
      <point x="507.638" y="652"/>
      <point x="550" y="589.89"/>
      <point x="550" y="474" type="curve" smooth="yes"/>
      <point x="550" y="197" type="line" smooth="yes"/>
      <point x="508" y="197" type="line" smooth="yes"/>
      <point x="508" y="465" type="line" smooth="yes"/>
      <point x="508" y="583.936"/>
      <point x="463.736" y="612"/>
    </contour>
    <contour>
      <point x="183.667" y="819" type="curve" smooth="yes"/>
      <point x="269.667" y="819" type="line"/>
      <point x="269.667" y="779" type="line"/>
      <point x="179.667" y="779" type="line" smooth="yes"/>
      <point x="132.107" y="779"/>
      <point x="108.585" y="747.482"/>
      <point x="108.585" y="715.848" type="curve" smooth="yes"/>
      <point x="108.585" y="683.982"/>
      <point x="132.454" y="652"/>
      <point x="179.667" y="652" type="curve" smooth="yes"/>
      <point x="348" y="652" type="line"/>
      <point x="348" y="612" type="line"/>
      <point x="59" y="612" type="line"/>
      <point x="59" y="652" type="line"/>
      <point x="94.1387" y="652" type="line"/>
      <point x="72.7871" y="671.816"/>
      <point x="67.2607" y="695.235"/>
      <point x="67.2607" y="718.17" type="curve" smooth="yes"/>
      <point x="67.2607" y="769.818"/>
      <point x="115.343" y="819"/>
    </contour>
  </outline>
</glyph>
<glyph name="si_Ka" format="1">
  <advance width="760"/>
  <unicode hex="0D9A"/>
  <outline>
    <contour>
      <point x="33" y="452" type="line"/>
      <point x="64.0312" y="533.159"/>
      <point x="124.235" y="565.088"/>
      <point x="181.841" y="565.088" type="curve" smooth="yes"/>
      <point x="244.9" y="565.088"/>
      <point x="304.845" y="526.827"/>
      <point x="320" y="473" type="curve"/>
      <point x="289" y="445" type="line"/>
      <point x="276.237" y="490.735"/>
      <point x="229.535" y="521.199"/>
      <point x="181.232" y="521.199" type="curve" smooth="yes"/>
      <point x="138.707" y="521.199"/>
      <point x="94.9414" y="497.588"/>
      <point x="72" y="440" type="curve"/>
    </contour>
    <contour>
      <point x="30" y="196" type="curve"/>
      <point x="30" y="246" type="line"/>
      <point x="100" y="237"/>
      <point x="105.981" y="184.713"/>
      <point x="106" y="166" type="curve"/>
      <point x="106" y="114" type="line" smooth="yes"/>
      <point x="106" y="65.1681"/>
      <point x="146.371" y="37.5337"/>
      <point x="185.225" y="37.5337" type="curve" smooth="yes"/>
      <point x="221.265" y="37.5337"/>
      <point x="256" y="61.31"/>
      <point x="256" y="114" type="curve" smooth="yes"/>
      <point x="256" y="192" type="line"/>
      <point x="295.88" y="192" type="line"/>
      <point x="296" y="114" type="line" smooth="yes"/>
      <point x="296.081" y="61.336"/>
      <point x="334.791" y="37.5447"/>
      <point x="374.917" y="37.5447" type="curve" smooth="yes"/>
      <point x="418.136" y="37.5447"/>
      <point x="462.998" y="65.1464"/>
      <point x="463" y="114" type="curve" smooth="yes"/>
      <point x="463.004" y="240" type="line" smooth="yes"/>
      <point x="463.004" y="331.199"/>
      <point x="426" y="355"/>
      <point x="326.776" y="369.904" type="curve"/>
      <point x="365" y="403" type="line"/>
      <point x="441" y="391"/>
      <point x="503" y="361.827"/>
      <point x="503" y="240" type="curve" smooth="yes"/>
      <point x="503" y="114" type="line" smooth="yes"/>
      <point x="503" y="35.0935"/>
      <point x="445.06" y="-3.77233"/>
      <point x="381.868" y="-3.77233" type="curve" smooth="yes"/>
      <point x="344.851" y="-3.77233"/>
      <point x="306.032" y="9.56382"/>
      <point x="276" y="36" type="curve"/>
      <point x="250.392" y="8.16971"/>
      <point x="216.603" y="-4.77248"/>
      <point x="183.589" y="-4.77248" type="curve" smooth="yes"/>
      <point x="122.991" y="-4.77248"/>
      <point x="65.0029" y="38.8293"/>
      <point x="65.0029" y="114" type="curve" smooth="yes"/>
      <point x="65.0488" y="146.19" type="line" smooth="yes"/>
      <point x="65.0488" y="167.92"/>
      <point x="63.5771" y="199"/>
      <point x="44" y="199" type="curve" smooth="yes"/>
      <point x="40.7168" y="199"/>
      <point x="34.2529" y="197.3"/>
    </contour>
    <contour>
      <point x="30" y="196" type="line"/>
      <point x="30" y="246" type="line"/>
      <point x="320" y="494" type="line"/>
      <point x="375.041" y="536.719"/>
      <point x="443.008" y="559.834"/>
      <point x="507.668" y="559.834" type="curve" smooth="yes"/>
      <point x="624.207" y="559.834"/>
      <point x="730" y="484.744"/>
      <point x="730" y="314" type="curve" smooth="yes"/>
      <point x="730" y="192" type="line" smooth="yes"/>
      <point x="729.58" y="65.7373"/>
      <point x="693.296" y="-1"/>
      <point x="554" y="-1" type="curve"/>
      <point x="554" y="39" type="line"/>
      <point x="616.112" y="39"/>
      <point x="690" y="47.959"/>
      <point x="690" y="192" type="curve" smooth="yes"/>
      <point x="690" y="314" type="line" smooth="yes"/>
      <point x="690" y="454.189"/>
      <point x="597.759" y="520.572"/>
      <point x="498.843" y="520.572" type="curve" smooth="yes"/>
      <point x="446.546" y="520.572"/>
      <point x="392.383" y="502.016"/>
      <point x="349" y="466" type="curve"/>
      <point x="69" y="225" type="line"/>
    </contour>
  </outline>
</glyph>
<glyph name="si_Kha" format="1">
  <advance width="586"/>
  <unicode hex="0D9B"/>
  <outline>
    <contour>
      <point x="42.375" y="563" type="line"/>
      <point x="42.375" y="673.921"/>
      <point x="155.923" y="755"/>
      <point x="252" y="755" type="curve"/>
      <point x="264" y="755" type="line"/>
      <point x="264" y="715" type="line"/>
      <point x="252" y="715" type="line"/>
      <point x="167.506" y="715"/>
      <point x="81.375" y="644.132"/>
      <point x="81.375" y="553" type="curve"/>
    </contour>
    <contour>
      <point x="556" y="241" type="line" smooth="yes"/>
      <point x="514" y="241" type="line" smooth="yes"/>
      <point x="514" y="514" type="line" smooth="yes"/>
      <point x="514" y="661.715"/>
      <point x="444.056" y="715"/>
      <point x="331" y="715" type="curve"/>
      <point x="320" y="715" type="line"/>
      <point x="320" y="755" type="line"/>
      <point x="331" y="755" type="line"/>
      <point x="490.37" y="755"/>
      <point x="556" y="671.037"/>
      <point x="556" y="514" type="curve" smooth="yes"/>
    </contour>
    <contour>
      <point x="309" y="192" type="line"/>
      <point x="309" y="142" type="line" smooth="yes"/>
      <point x="309" y="9.53516"/>
      <point x="514" y="6.58008"/>
      <point x="514" y="142" type="curve"/>
      <point x="514" y="264" type="line"/>
      <point x="556" y="264" type="line"/>
      <point x="556" y="142" type="line"/>
      <point x="556" y="-53.7227"/>
      <point x="268" y="-52.7979"/>
      <point x="268" y="142" type="curve" smooth="yes"/>
      <point x="268" y="192" type="line"/>
    </contour>
    <contour>
      <point x="268" y="-65" type="line"/>
      <point x="268" y="284" type="line" smooth="yes"/>
      <point x="268" y="435.615"/>
      <point x="71.1309" y="435.811"/>
      <point x="71" y="284" type="curve" smooth="yes"/>
      <point x="70.917" y="177" type="line" smooth="yes"/>
      <point x="71" y="65"/>
      <point x="123.457" y="40"/>
      <point x="211" y="40" type="curve"/>
      <point x="211" y="0" type="line"/>
      <point x="91.1055" y="0"/>
      <point x="30" y="45"/>
      <point x="30" y="177" type="curve" smooth="yes"/>
      <point x="30" y="284" type="line" smooth="yes"/>
      <point x="30" y="494.932"/>
      <point x="309" y="497.915"/>
      <point x="309" y="284" type="curve" smooth="yes"/>
      <point x="309" y="-65" type="line"/>
    </contour>
  </outline>
</glyph>
<glyph name="si_Gha" format="1">
  <advance width="687"/>
  <unicode hex="0D9D"/>
  <outline>
    <contour>
      <point x="204.925" y="0.210736" type="curve" smooth="yes"/>
      <point x="141.034" y="0.210736"/>
      <point x="77" y="47.0178"/>
      <point x="77" y="139" type="curve" smooth="yes"/>
      <point x="77" y="192" type="line"/>
      <point x="117" y="192" type="line"/>
      <point x="117" y="139" type="line" smooth="yes"/>
      <point x="117" y="71.4303"/>
      <point x="160.93" y="36.9291"/>
      <point x="204.77" y="36.9291" type="curve" smooth="yes"/>
      <point x="268.43" y="36.9291"/>
      <point x="292" y="71.1478"/>
      <point x="292" y="141" type="curve" smooth="yes"/>
      <point x="292" y="182.986"/>
      <point x="307.348" y="204.04"/>
      <point x="362.521" y="204.04" type="curve" smooth="yes"/>
      <point x="362.521" y="204.04"/>
      <point x="362.521" y="204.04"/>
      <point x="362.521" y="204.04" type="curve" smooth="yes"/>
      <point x="417.347" y="204.04"/>
      <point x="432" y="183.4"/>
      <point x="432" y="142" type="curve" smooth="yes"/>
      <point x="432" y="71.3093"/>
      <point x="455.454" y="37.0534"/>
      <point x="519.055" y="37.0534" type="curve" smooth="yes"/>
      <point x="562.953" y="37.0534"/>
      <point x="607" y="71.7768"/>
      <point x="607" y="139" type="curve" smooth="yes"/>
      <point x="607" y="192" type="line"/>
      <point x="647" y="192" type="line"/>
      <point x="647" y="139" type="line" smooth="yes"/>
      <point x="647" y="47.2289"/>
      <point x="583.021" y="0.335973"/>
      <point x="519.156" y="0.335973" type="curve" smooth="yes"/>
      <point x="435.521" y="0.335973"/>
      <point x="392" y="46.8929"/>
      <point x="392" y="142" type="curve" smooth="yes"/>
      <point x="392" y="158.857"/>
      <point x="387.245" y="167.322"/>
      <point x="362.369" y="167.322" type="curve" smooth="yes"/>
      <point x="337.247" y="167.322"/>
      <point x="332" y="158.574"/>
      <point x="332" y="141" type="curve" smooth="yes"/>
      <point x="332" y="46.6037"/>
      <point x="288.533" y="0.210736"/>
    </contour>
    <contour>
      <point x="84" y="477" type="line"/>
      <point x="109.707" y="541.871"/>
      <point x="170.119" y="564"/>
      <point x="234" y="564" type="curve" smooth="yes"/>
      <point x="270.661" y="564"/>
      <point x="331.651" y="551.303"/>
      <point x="363" y="497.885" type="curve"/>
      <point x="394.349" y="551.303"/>
      <point x="455.339" y="564"/>
      <point x="492" y="564" type="curve" smooth="yes"/>
      <point x="555.881" y="564"/>
      <point x="616.293" y="541.871"/>
      <point x="642" y="477" type="curve"/>
      <point x="603" y="464" type="line"/>
      <point x="589.527" y="500.315"/>
      <point x="554.579" y="524"/>
      <point x="492" y="524" type="curve" smooth="yes"/>
      <point x="413.793" y="524"/>
      <point x="383" y="469"/>
      <point x="383" y="415" type="curve" smooth="yes"/>
      <point x="383" y="379" type="line"/>
      <point x="343" y="379" type="line"/>
      <point x="343" y="415" type="line" smooth="yes"/>
      <point x="343" y="469"/>
      <point x="312.207" y="524"/>
      <point x="234" y="524" type="curve" smooth="yes"/>
      <point x="171.421" y="524"/>
      <point x="136.473" y="500.315"/>
      <point x="123" y="464" type="curve"/>
    </contour>
    <contour>
      <point x="30" y="362" type="line"/>
      <point x="30" y="402" type="line"/>
      <point x="531" y="402" type="line"/>
      <point x="641.795" y="402"/>
      <point x="647" y="336.857"/>
      <point x="647" y="288" type="curve" smooth="yes"/>
      <point x="647" y="241" type="line"/>
      <point x="607" y="241" type="line"/>
      <point x="607" y="288" type="line" smooth="yes"/>
      <point x="607" y="354.575"/>
      <point x="568.369" y="362"/>
      <point x="532" y="362" type="curve"/>
      <point x="192" y="362" type="line"/>
      <point x="155.631" y="362"/>
      <point x="117" y="354.575"/>
      <point x="117" y="288" type="curve" smooth="yes"/>
      <point x="117" y="241" type="line"/>
      <point x="77" y="241" type="line"/>
      <point x="77" y="288" type="line" smooth="yes"/>
      <point x="77" y="319.714"/>
      <point x="83.819" y="350.654"/>
      <point x="105" y="362" type="curve"/>
    </contour>
  </outline>
</glyph>
<glyph name="si_Nga" format="1">
  <advance width="580"/>
  <unicode hex="0D9E"/>
  <outline>
    <contour>
      <point x="171" y="0" type="curve" smooth="yes"/>
      <point x="88.1074" y="0"/>
      <point x="30" y="52.25"/>
      <point x="30" y="133" type="curve" smooth="yes"/>
      <point x="30" y="227" type="line" smooth="yes"/>
      <point x="30" y="307.75"/>
      <point x="70.1074" y="350"/>
      <point x="160.667" y="350" type="curve" smooth="yes"/>
      <point x="250" y="350" type="line"/>
      <point x="250" y="310" type="line"/>
      <point x="210.667" y="310" type="line" smooth="yes"/>
      <point x="84.8457" y="310"/>
      <point x="72" y="279.941"/>
      <point x="72" y="228" type="curve" smooth="yes"/>
      <point x="72" y="139" type="line" smooth="yes"/>
      <point x="72" y="104.059"/>
      <point x="94.8457" y="40"/>
      <point x="171" y="40" type="curve" smooth="yes"/>
      <point x="246.154" y="40"/>
      <point x="269" y="104.059"/>
      <point x="269" y="139" type="curve" smooth="yes"/>
      <point x="269" y="192" type="line"/>
      <point x="311" y="192" type="line"/>
      <point x="311" y="139" type="line" smooth="yes"/>
      <point x="311" y="104.059"/>
      <point x="333.846" y="40"/>
      <point x="409" y="40" type="curve" smooth="yes"/>
      <point x="485.154" y="40"/>
      <point x="508" y="104.059"/>
      <point x="508" y="139" type="curve" smooth="yes"/>
      <point x="508" y="242" type="line"/>
      <point x="550" y="242" type="line"/>
      <point x="550" y="133" type="line" smooth="yes"/>
      <point x="550" y="52.25"/>
      <point x="491.893" y="0"/>
      <point x="409" y="0" type="curve" smooth="yes"/>
      <point x="356.595" y="0"/>
      <point x="313.931" y="21.3961"/>
      <point x="290" y="57.9649" type="curve"/>
      <point x="266.069" y="21.3961"/>
      <point x="223.405" y="3.55271e-15"/>
    </contour>
    <contour>
      <point x="53" y="402.8" type="line" smooth="yes"/>
      <point x="53" y="464.327"/>
      <point x="93.2119" y="495.8"/>
      <point x="173" y="495.8" type="curve"/>
      <point x="258" y="495.8" type="line" smooth="yes"/>
      <point x="322.961" y="495.8"/>
      <point x="354.745" y="450.032"/>
      <point x="354.745" y="403.927" type="curve" smooth="yes"/>
      <point x="354.745" y="357.137"/>
      <point x="322.01" y="310"/>
      <point x="258" y="310" type="curve" smooth="yes"/>
      <point x="214" y="310" type="line"/>
      <point x="214" y="350" type="line"/>
      <point x="259" y="350" type="line" smooth="yes"/>
      <point x="297.429" y="350"/>
      <point x="317.144" y="377.602"/>
      <point x="317.144" y="404.609" type="curve" smooth="yes"/>
      <point x="317.144" y="430.477"/>
      <point x="299.056" y="455.8"/>
      <point x="262" y="455.8" type="curve" smooth="yes"/>
      <point x="174" y="455.8" type="line"/>
      <point x="96.3633" y="455.8"/>
      <point x="93" y="414.199"/>
      <point x="93" y="402.8" type="curve" smooth="yes"/>
    </contour>
    <contour>
      <point x="508" y="241" type="line" smooth="yes"/>
      <point x="508" y="514" type="line" smooth="yes"/>
      <point x="508" y="661.715"/>
      <point x="438.056" y="715"/>
      <point x="325" y="715" type="curve"/>
      <point x="314" y="715" type="line"/>
      <point x="314" y="755" type="line"/>
      <point x="325" y="755" type="line"/>
      <point x="484.37" y="755"/>
      <point x="550" y="671.037"/>
      <point x="550" y="514" type="curve" smooth="yes"/>
      <point x="550" y="241" type="line" smooth="yes"/>
    </contour>
    <contour>
      <point x="35.375" y="563" type="line"/>
      <point x="35.375" y="673.921"/>
      <point x="148.923" y="755"/>
      <point x="245" y="755" type="curve"/>
      <point x="257" y="755" type="line"/>
      <point x="257" y="715" type="line"/>
      <point x="245" y="715" type="line"/>
      <point x="160.506" y="715"/>
      <point x="74.375" y="644.132"/>
      <point x="74.375" y="553" type="curve"/>
    </contour>
  </outline>
</glyph>
<glyph name="si_Nnga" format="1">
  <advance width="843"/>
  <unicode hex="0D9F"/>
  <outline>
    <contour>
      <point x="30" y="209" type="curve" smooth="yes"/>
      <point x="30" y="287" type="line" smooth="yes"/>
      <point x="30" y="452"/>
      <point x="60.9932" y="564.245"/>
      <point x="265.051" y="564.245" type="curve" smooth="yes"/>
      <point x="316.372" y="564.245"/>
      <point x="304.684" y="564.082"/>
      <point x="356" y="564" type="curve"/>
      <point x="356" y="524" type="line"/>
      <point x="238" y="524" type="line" smooth="yes"/>
      <point x="68.46" y="524"/>
      <point x="70" y="376"/>
      <point x="70" y="287" type="curve" smooth="yes"/>
      <point x="70" y="209" type="line" smooth="yes"/>
      <point x="70" y="128.436"/>
      <point x="71.5576" y="84.5967"/>
      <point x="136" y="8" type="curve"/>
      <point x="94" y="-8" type="line"/>
      <point x="34.3584" y="69.1836"/>
      <point x="30" y="118.444"/>
    </contour>
    <contour>
      <point x="409" y="271" type="line"/>
      <point x="409" y="311" type="line"/>
      <point x="446" y="311" type="line" smooth="yes"/>
      <point x="548.232" y="311"/>
      <point x="579" y="233"/>
      <point x="579" y="164" type="curve" smooth="yes"/>
      <point x="579" y="145" type="line" smooth="yes"/>
      <point x="579" y="42.873"/>
      <point x="511.866" y="-8"/>
      <point x="412" y="-8" type="curve"/>
      <point x="412" y="32" type="line"/>
      <point x="491.817" y="32"/>
      <point x="539.126" y="66.249"/>
      <point x="539.126" y="152.124" type="curve" smooth="yes"/>
      <point x="539.126" y="199.586"/>
      <point x="531.498" y="271"/>
      <point x="446" y="271" type="curve" smooth="yes"/>
    </contour>
    <contour>
      <point x="356" y="-8" type="line"/>
      <point x="236.704" y="-8"/>
      <point x="170.42" y="79.7373"/>
      <point x="170.079" y="216" type="curve" smooth="yes"/>
      <point x="170.079" y="340" type="line" smooth="yes"/>
      <point x="170.42" y="476.263"/>
      <point x="236.704" y="564"/>
      <point x="356" y="564" type="curve"/>
      <point x="356" y="524" type="line"/>
      <point x="260.888" y="524"/>
      <point x="210" y="457.857"/>
      <point x="210" y="340" type="curve" smooth="yes"/>
      <point x="210" y="216" type="line" smooth="yes"/>
      <point x="210" y="98.1426"/>
      <point x="263.888" y="32"/>
      <point x="356" y="32" type="curve"/>
    </contour>
    <contour>
      <point x="627" y="-8" type="curve"/>
      <point x="627" y="32" type="line"/>
      <point x="719.112" y="32"/>
      <point x="773" y="98.1426"/>
      <point x="773" y="216" type="curve" smooth="yes"/>
      <point x="773" y="340" type="line" smooth="yes"/>
      <point x="773" y="457.857"/>
      <point x="722.112" y="524"/>
      <point x="627" y="524" type="curve"/>
      <point x="627" y="564" type="line"/>
      <point x="746.296" y="564"/>
      <point x="812.58" y="476.263"/>
      <point x="812.921" y="340" type="curve" smooth="yes"/>
      <point x="812.921" y="216" type="line" smooth="yes"/>
      <point x="812.58" y="79.7373"/>
      <point x="746.296" y="-8"/>
    </contour>
    <contour>
      <point x="392" y="271" type="line" smooth="yes"/>
      <point x="392" y="360" type="line" smooth="yes"/>
      <point x="392" y="478.007"/>
      <point x="449.062" y="564"/>
      <point x="571" y="564" type="curve"/>
      <point x="571" y="524" type="line"/>
      <point x="464.192" y="524"/>
      <point x="433" y="443"/>
      <point x="433" y="361" type="curve" smooth="yes"/>
      <point x="433" y="271" type="line"/>
    </contour>
  </outline>
</glyph>
<glyph name="si_Ca" format="1">
  <advance width="590"/>
  <unicode hex="0DA0"/>
  <outline>
    <contour>
      <point x="69.375" y="563" type="line"/>
      <point x="69.375" y="673.921"/>
      <point x="182.923" y="755"/>
      <point x="279" y="755" type="curve"/>
      <point x="279" y="715" type="line"/>
      <point x="194.506" y="715"/>
      <point x="108.375" y="644.132"/>
      <point x="108.375" y="553" type="curve"/>
    </contour>
    <contour>
      <point x="335" y="0" type="line"/>
      <point x="494.37" y="0"/>
      <point x="560" y="83.9629"/>
      <point x="560" y="241" type="curve" smooth="yes"/>
      <point x="560" y="514" type="line" smooth="yes"/>
      <point x="560" y="671.037"/>
      <point x="494.37" y="755"/>
      <point x="335" y="755" type="curve"/>
      <point x="335" y="715" type="line"/>
      <point x="448.056" y="715"/>
      <point x="519" y="661.715"/>
      <point x="519" y="514" type="curve" smooth="yes"/>
      <point x="519" y="241" type="line" smooth="yes"/>
      <point x="519" y="95.2852"/>
      <point x="448.056" y="40"/>
      <point x="335" y="40" type="curve"/>
    </contour>
    <contour>
      <point x="209" y="309" type="line"/>
      <point x="79.9033" y="309"/>
      <point x="65.6875" y="40"/>
      <point x="279" y="40" type="curve"/>
      <point x="279" y="0" type="line"/>
      <point x="10.3691" y="0"/>
      <point x="22.9307" y="349"/>
      <point x="209" y="349" type="curve"/>
    </contour>
    <contour>
      <point x="30.0254" y="309" type="line"/>
      <point x="30" y="349" type="line"/>
      <point x="295" y="349" type="line"/>
      <point x="294.506" y="450.283"/>
      <point x="149.243" y="467.491"/>
      <point x="116" y="389" type="curve"/>
      <point x="77" y="399" type="line"/>
      <point x="107.677" y="516.998"/>
      <point x="335.062" y="506.469"/>
      <point x="334.932" y="354" type="curve" smooth="yes"/>
      <point x="335" y="309" type="line"/>
    </contour>
  </outline>
</glyph>
<glyph name="si_Cha" format="1">
  <advance width="628"/>
  <unicode hex="0DA1"/>
  <outline>
    <contour>
      <point x="309" y="490" type="line"/>
      <point x="337" y="465" type="line"/>
      <point x="572" y="774" type="line"/>
      <point x="532.721" y="785" type="line"/>
    </contour>
    <contour>
      <point x="590" y="265" type="line"/>
      <point x="590" y="288"/>
      <point x="581" y="302"/>
      <point x="549" y="302" type="curve"/>
      <point x="441" y="302" type="line" smooth="yes"/>
      <point x="378.75" y="302"/>
      <point x="327.75" y="352.75"/>
      <point x="327.75" y="415" type="curve" smooth="yes"/>
      <point x="327.75" y="477.25"/>
      <point x="378.75" y="528.25"/>
      <point x="441" y="528.25" type="curve" smooth="yes"/>
      <point x="486.612" y="528.25"/>
      <point x="526.184" y="500.869"/>
      <point x="544.079" y="461.744" type="curve"/>
      <point x="579.895" y="474.038" type="line"/>
      <point x="556.778" y="527.952"/>
      <point x="503.085" y="566"/>
      <point x="441" y="566" type="curve" smooth="yes"/>
      <point x="358" y="566"/>
      <point x="290" y="498"/>
      <point x="290" y="415" type="curve" smooth="yes"/>
      <point x="290" y="332"/>
      <point x="358" y="264"/>
      <point x="441" y="264" type="curve" smooth="yes"/>
      <point x="550" y="264" type="line"/>
      <point x="550" y="202" type="line"/>
      <point x="550" y="71.8008"/>
      <point x="474" y="28"/>
      <point x="341" y="28" type="curve" smooth="yes"/>
      <point x="279" y="28" type="line" smooth="yes"/>
      <point x="146" y="28"/>
      <point x="70" y="70.8008"/>
      <point x="70" y="202" type="curve"/>
      <point x="30" y="202" type="line"/>
      <point x="30" y="59.2461"/>
      <point x="102" y="-12"/>
      <point x="279" y="-12" type="curve" smooth="yes"/>
      <point x="341" y="-12" type="line" smooth="yes"/>
      <point x="518" y="-12"/>
      <point x="590" y="59.2461"/>
      <point x="590" y="202" type="curve"/>
    </contour>
    <contour>
      <point x="330" y="362" type="line"/>
      <point x="329.951" y="415" type="line"/>
      <point x="329.999" y="539.449"/>
      <point x="231.978" y="564"/>
      <point x="181" y="564" type="curve" smooth="yes"/>
      <point x="117.119" y="564"/>
      <point x="56.707" y="541.871"/>
      <point x="31" y="477" type="curve"/>
      <point x="70" y="464" type="line"/>
      <point x="83.4727" y="500.315"/>
      <point x="118.421" y="524"/>
      <point x="181" y="524" type="curve" smooth="yes"/>
      <point x="259.207" y="524"/>
      <point x="290" y="469"/>
      <point x="290" y="415" type="curve"/>
      <point x="290" y="402" type="line"/>
      <point x="194" y="402" type="line" smooth="yes"/>
      <point x="97" y="402"/>
      <point x="30" y="373"/>
      <point x="30" y="251" type="curve"/>
      <point x="70" y="251" type="line"/>
      <point x="70.001" y="317.104"/>
      <point x="86" y="362"/>
      <point x="195" y="362" type="curve" smooth="yes"/>
    </contour>
  </outline>
</glyph>
<glyph name="si_Jha" format="1">
  <advance width="1138"/>
  <unicode hex="0DA3"/>
  <outline>
    <contour>
      <point x="30" y="196" type="curve"/>
      <point x="30" y="246" type="line"/>
      <point x="100" y="237"/>
      <point x="105.981" y="184.713"/>
      <point x="106" y="166" type="curve"/>
      <point x="106" y="114" type="line" smooth="yes"/>
      <point x="106" y="65.1681"/>
      <point x="146.371" y="37.5337"/>
      <point x="185.225" y="37.5337" type="curve" smooth="yes"/>
      <point x="221.265" y="37.5337"/>
      <point x="256" y="61.31"/>
      <point x="256" y="114" type="curve" smooth="yes"/>
      <point x="256" y="192" type="line"/>
      <point x="295.88" y="192" type="line"/>
      <point x="296" y="114" type="line" smooth="yes"/>
      <point x="296.081" y="61.336"/>
      <point x="334.791" y="37.5447"/>
      <point x="374.917" y="37.5447" type="curve" smooth="yes"/>
      <point x="418.136" y="37.5447"/>
      <point x="462.998" y="65.1464"/>
      <point x="463" y="114" type="curve" smooth="yes"/>
      <point x="463.004" y="240" type="line" smooth="yes"/>
      <point x="463.004" y="331.199"/>
      <point x="426" y="355"/>
      <point x="326.776" y="369.904" type="curve"/>
      <point x="365" y="403" type="line"/>
      <point x="441" y="391"/>
      <point x="503" y="361.827"/>
      <point x="503" y="240" type="curve" smooth="yes"/>
      <point x="503" y="114" type="line" smooth="yes"/>
      <point x="503" y="35.0935"/>
      <point x="445.06" y="-3.77233"/>
      <point x="381.868" y="-3.77233" type="curve" smooth="yes"/>
      <point x="344.851" y="-3.77233"/>
      <point x="306.032" y="9.56382"/>
      <point x="276" y="36" type="curve"/>
      <point x="250.392" y="8.16971"/>
      <point x="216.603" y="-4.77248"/>
      <point x="183.589" y="-4.77248" type="curve" smooth="yes"/>
      <point x="122.991" y="-4.77248"/>
      <point x="65.0029" y="38.8293"/>
      <point x="65.0029" y="114" type="curve" smooth="yes"/>
      <point x="65.0488" y="146.19" type="line" smooth="yes"/>
      <point x="65.0488" y="167.92"/>
      <point x="63.5771" y="199"/>
      <point x="44" y="199" type="curve" smooth="yes"/>
      <point x="40.7168" y="199"/>
      <point x="34.2529" y="197.3"/>
    </contour>
    <contour>
      <point x="694" y="0" type="curve" smooth="yes"/>
      <point x="611.107" y="0"/>
      <point x="553" y="52.25"/>
      <point x="553" y="133" type="curve" smooth="yes"/>
      <point x="553" y="307" type="line" smooth="yes"/>
      <point x="553" y="387.75"/>
      <point x="601.107" y="480"/>
      <point x="723.667" y="480" type="curve" smooth="yes"/>
      <point x="729" y="480" type="line"/>
      <point x="753" y="440" type="line"/>
      <point x="733.667" y="440" type="line" smooth="yes"/>
      <point x="607.846" y="440"/>
      <point x="595" y="335.941"/>
      <point x="595" y="301" type="curve" smooth="yes"/>
      <point x="595" y="139" type="line" smooth="yes"/>
      <point x="595" y="104.059"/>
      <point x="617.846" y="40"/>
      <point x="694" y="40" type="curve" smooth="yes"/>
      <point x="769.154" y="40"/>
      <point x="792" y="104.059"/>
      <point x="792" y="139" type="curve" smooth="yes"/>
      <point x="792" y="192" type="line"/>
      <point x="834" y="192" type="line"/>
      <point x="834" y="139" type="line" smooth="yes"/>
      <point x="834" y="104.059"/>
      <point x="856.846" y="40"/>
      <point x="932" y="40" type="curve" smooth="yes"/>
      <point x="1008.15" y="40"/>
      <point x="1031" y="104.059"/>
      <point x="1031" y="139" type="curve" smooth="yes"/>
      <point x="1031" y="242" type="line"/>
      <point x="1073" y="242" type="line"/>
      <point x="1073" y="133" type="line" smooth="yes"/>
      <point x="1073" y="52.25"/>
      <point x="1014.89" y="0"/>
      <point x="932" y="0" type="curve" smooth="yes"/>
      <point x="879.595" y="0"/>
      <point x="836.931" y="21.3961"/>
      <point x="813" y="57.9649" type="curve"/>
      <point x="789.069" y="21.3961"/>
      <point x="746.405" y="3.55271e-15"/>
    </contour>
    <contour>
      <point x="30" y="196" type="line"/>
      <point x="30" y="246" type="line"/>
      <point x="320" y="494" type="line"/>
      <point x="389.698" y="548.094"/>
      <point x="472.16" y="577.395"/>
      <point x="547.339" y="577.395" type="curve" smooth="yes"/>
      <point x="638.535" y="577.395"/>
      <point x="719.016" y="534.279"/>
      <point x="753" y="440" type="curve"/>
      <point x="706" y="440" type="line"/>
      <point x="679.113" y="505.605"/>
      <point x="614.181" y="538.284"/>
      <point x="540.39" y="538.284" type="curve" smooth="yes"/>
      <point x="476.96" y="538.284"/>
      <point x="406.983" y="514.137"/>
      <point x="349" y="466" type="curve"/>
      <point x="69" y="225" type="line"/>
    </contour>
    <contour>
      <point x="1031" y="241" type="line" smooth="yes"/>
      <point x="1031" y="514" type="line" smooth="yes"/>
      <point x="1031" y="661.715"/>
      <point x="961.056" y="715"/>
      <point x="848" y="715" type="curve"/>
      <point x="837" y="715" type="line"/>
      <point x="837" y="755" type="line"/>
      <point x="848" y="755" type="line"/>
      <point x="1007.37" y="755"/>
      <point x="1073" y="671.037"/>
      <point x="1073" y="514" type="curve" smooth="yes"/>
      <point x="1073" y="241" type="line" smooth="yes"/>
    </contour>
    <contour>
      <point x="33" y="452" type="line"/>
      <point x="64.0312" y="533.159"/>
      <point x="124.235" y="565.088"/>
      <point x="181.841" y="565.088" type="curve" smooth="yes"/>
      <point x="244.9" y="565.088"/>
      <point x="304.845" y="526.827"/>
      <point x="320" y="473" type="curve"/>
      <point x="289" y="445" type="line"/>
      <point x="276.237" y="490.735"/>
      <point x="229.535" y="521.199"/>
      <point x="181.232" y="521.199" type="curve" smooth="yes"/>
      <point x="138.707" y="521.199"/>
      <point x="94.9414" y="497.588"/>
      <point x="72" y="440" type="curve"/>
    </contour>
    <contour>
      <point x="582.761" y="642.542" type="line"/>
      <point x="609.601" y="715.893"/>
      <point x="697.944" y="755"/>
      <point x="768" y="755" type="curve"/>
      <point x="780" y="755" type="line"/>
      <point x="780" y="715" type="line"/>
      <point x="768" y="715" type="line"/>
      <point x="710.018" y="715"/>
      <point x="640.265" y="683.627"/>
      <point x="622.103" y="628.235" type="curve"/>
    </contour>
  </outline>
</glyph>
<glyph name="si_Nya" format="1">
  <advance width="1083"/>
  <unicode hex="0DA4"/>
  <outline>
    <contour>
      <point x="168" y="196" type="curve"/>
      <point x="168" y="246" type="line"/>
      <point x="238" y="237"/>
      <point x="243.981" y="184.713"/>
      <point x="244" y="166" type="curve"/>
      <point x="244" y="114" type="line" smooth="yes"/>
      <point x="244" y="65.1681"/>
      <point x="284.371" y="37.5337"/>
      <point x="323.225" y="37.5337" type="curve" smooth="yes"/>
      <point x="359.265" y="37.5337"/>
      <point x="394" y="61.31"/>
      <point x="394" y="114" type="curve" smooth="yes"/>
      <point x="394" y="192" type="line"/>
      <point x="433.88" y="192" type="line"/>
      <point x="434" y="114" type="line" smooth="yes"/>
      <point x="434.081" y="61.336"/>
      <point x="472.791" y="37.5447"/>
      <point x="512.917" y="37.5447" type="curve" smooth="yes"/>
      <point x="556.136" y="37.5447"/>
      <point x="600.998" y="65.1464"/>
      <point x="601" y="114" type="curve" smooth="yes"/>
      <point x="601.004" y="240" type="line" smooth="yes"/>
      <point x="601.004" y="331.199"/>
      <point x="564" y="355"/>
      <point x="464.776" y="369.904" type="curve"/>
      <point x="503" y="403" type="line"/>
      <point x="579" y="391"/>
      <point x="641" y="361.827"/>
      <point x="641" y="240" type="curve" smooth="yes"/>
      <point x="641" y="114" type="line" smooth="yes"/>
      <point x="641" y="35.0935"/>
      <point x="583.06" y="-3.77233"/>
      <point x="519.868" y="-3.77233" type="curve" smooth="yes"/>
      <point x="482.851" y="-3.77233"/>
      <point x="444.032" y="9.56382"/>
      <point x="414" y="36" type="curve"/>
      <point x="388.392" y="8.16971"/>
      <point x="354.603" y="-4.77248"/>
      <point x="321.589" y="-4.77248" type="curve" smooth="yes"/>
      <point x="260.991" y="-4.77248"/>
      <point x="203.003" y="38.8293"/>
      <point x="203.003" y="114" type="curve" smooth="yes"/>
      <point x="203.049" y="146.19" type="line" smooth="yes"/>
      <point x="203.049" y="167.92"/>
      <point x="201.577" y="199"/>
      <point x="182" y="199" type="curve" smooth="yes"/>
      <point x="178.717" y="199"/>
      <point x="172.253" y="197.3"/>
    </contour>
    <contour>
      <point x="838" y="0" type="line" smooth="yes"/>
      <point x="718" y="0"/>
      <point x="611" y="60.3916"/>
      <point x="611" y="199" type="curve" smooth="yes"/>
      <point x="611" y="335.29"/>
      <point x="706.045" y="402"/>
      <point x="837" y="402" type="curve" smooth="yes"/>
      <point x="973" y="402" type="line"/>
      <point x="973" y="533.372"/>
      <point x="831.581" y="550.201"/>
      <point x="753.94" y="550.201" type="curve" smooth="yes"/>
      <point x="754" y="592" type="line" smooth="yes"/>
      <point x="852.31" y="592"/>
      <point x="1013" y="558.503"/>
      <point x="1013" y="389" type="curve" smooth="yes"/>
      <point x="1013" y="362" type="line"/>
      <point x="827" y="362" type="line" smooth="yes"/>
      <point x="711.019" y="362"/>
      <point x="652.624" y="293.457"/>
      <point x="652.624" y="199" type="curve" smooth="yes"/>
      <point x="652.624" y="108.484"/>
      <point x="714.124" y="40"/>
      <point x="838" y="40" type="curve"/>
      <point x="877" y="40" type="line"/>
      <point x="948" y="40"/>
      <point x="1008" y="74.5439"/>
      <point x="1042" y="148" type="curve"/>
      <point x="1079" y="138" type="line"/>
      <point x="1037.01" y="22.3047"/>
      <point x="934" y="0"/>
      <point x="877" y="0" type="curve"/>
    </contour>
    <contour>
      <point x="94" y="-24" type="line"/>
      <point x="34.3584" y="53.1836"/>
      <point x="30" y="102.444"/>
      <point x="30" y="193" type="curve" smooth="yes"/>
      <point x="30" y="323" type="line" smooth="yes"/>
      <point x="30" y="451.44"/>
      <point x="89.9884" y="492.018"/>
      <point x="154.803" y="492.018" type="curve" smooth="yes"/>
      <point x="173.252" y="492.018"/>
      <point x="192.092" y="488.73"/>
      <point x="210.051" y="483.245" type="curve" smooth="yes"/>
      <point x="210" y="440" type="line"/>
      <point x="188.838" y="448.062"/>
      <point x="170.519" y="451.737"/>
      <point x="154.757" y="451.737" type="curve" smooth="yes"/>
      <point x="92.3135" y="451.737"/>
      <point x="70" y="394.062"/>
      <point x="70" y="323" type="curve" smooth="yes"/>
      <point x="70" y="193" type="line" smooth="yes"/>
      <point x="70" y="112.436"/>
      <point x="71.5576" y="68.5967"/>
      <point x="136" y="-8" type="curve"/>
    </contour>
    <contour>
      <point x="168" y="196" type="line"/>
      <point x="168" y="246" type="line"/>
      <point x="458" y="494" type="line"/>
      <point x="548" y="564"/>
      <point x="632" y="592"/>
      <point x="699" y="592" type="curve"/>
      <point x="698.94" y="550.201" type="line"/>
      <point x="633" y="550"/>
      <point x="558" y="525"/>
      <point x="487" y="466" type="curve"/>
      <point x="207" y="225" type="line"/>
    </contour>
    <contour>
      <point x="171" y="452" type="line"/>
      <point x="202.031" y="533.159"/>
      <point x="262.235" y="565.088"/>
      <point x="319.841" y="565.088" type="curve" smooth="yes"/>
      <point x="382.9" y="565.088"/>
      <point x="442.845" y="526.827"/>
      <point x="458" y="473" type="curve"/>
      <point x="427" y="445" type="line"/>
      <point x="414.237" y="490.735"/>
      <point x="367.535" y="521.199"/>
      <point x="319.232" y="521.199" type="curve" smooth="yes"/>
      <point x="276.707" y="521.199"/>
      <point x="232.941" y="497.588"/>
      <point x="210" y="440" type="curve"/>
    </contour>
    <contour>
      <point x="942.022" y="-203.964" type="curve" smooth="yes"/>
      <point x="857.453" y="-203.964"/>
      <point x="774" y="-151.098"/>
      <point x="774" y="-45" type="curve"/>
      <point x="814" y="-45" type="line"/>
      <point x="814" y="-120.984"/>
      <point x="880.061" y="-164.281"/>
      <point x="946.197" y="-164.281" type="curve" smooth="yes"/>
      <point x="1001.85" y="-164.281"/>
      <point x="1057.55" y="-133.627"/>
      <point x="1074" y="-66" type="curve"/>
      <point x="1113" y="-76" type="line"/>
      <point x="1095.01" y="-161.222"/>
      <point x="1018.06" y="-203.964"/>
    </contour>
  </outline>
</glyph>
<glyph name="si_Jnya" format="1">
  <advance width="1083"/>
  <unicode hex="0DA5"/>
  <outline>
    <contour>
      <point x="30" y="208" type="curve" smooth="yes"/>
      <point x="30" y="287" type="line" smooth="yes"/>
      <point x="30" y="452"/>
      <point x="60.9932" y="564.245"/>
      <point x="265.051" y="564.245" type="curve" smooth="yes"/>
      <point x="316.372" y="564.245"/>
      <point x="304.684" y="564.082"/>
      <point x="356" y="564" type="curve"/>
      <point x="356" y="524" type="line"/>
      <point x="238" y="524" type="line" smooth="yes"/>
      <point x="68.46" y="524"/>
      <point x="70" y="376"/>
      <point x="70" y="287" type="curve" smooth="yes"/>
      <point x="70" y="208" type="line" smooth="yes"/>
      <point x="70" y="127.436"/>
      <point x="71.5576" y="83.5967"/>
      <point x="136" y="7" type="curve"/>
      <point x="94" y="-9" type="line"/>
      <point x="34.3584" y="68.1836"/>
      <point x="30" y="117.444"/>
    </contour>
    <contour>
      <point x="210" y="216" type="line" smooth="yes"/>
      <point x="210" y="98.1426"/>
      <point x="263.888" y="32"/>
      <point x="356" y="32" type="curve"/>
      <point x="356" y="-8" type="line"/>
      <point x="236.704" y="-8"/>
      <point x="170.42" y="79.7373"/>
      <point x="170.079" y="216" type="curve" smooth="yes"/>
      <point x="170.079" y="340" type="line" smooth="yes"/>
      <point x="170.42" y="476.263"/>
      <point x="236.704" y="564"/>
      <point x="356" y="564" type="curve"/>
      <point x="356" y="524" type="line"/>
      <point x="260.888" y="524"/>
      <point x="210" y="457.857"/>
      <point x="210" y="340" type="curve" smooth="yes"/>
    </contour>
    <contour>
      <point x="409" y="271" type="line"/>
      <point x="446" y="271" type="line" smooth="yes"/>
      <point x="531.498" y="271"/>
      <point x="539.126" y="199.586"/>
      <point x="539.126" y="152.124" type="curve" smooth="yes"/>
      <point x="539.126" y="66.249"/>
      <point x="491.817" y="32"/>
      <point x="412" y="32" type="curve"/>
      <point x="412" y="-8" type="line"/>
      <point x="511.866" y="-8"/>
      <point x="579" y="42.873"/>
      <point x="579" y="145" type="curve" smooth="yes"/>
      <point x="579" y="164" type="line" smooth="yes"/>
      <point x="579" y="233"/>
      <point x="548.232" y="311"/>
      <point x="446" y="311" type="curve" smooth="yes"/>
      <point x="409" y="311" type="line"/>
    </contour>
    <contour>
      <point x="392" y="271" type="line" smooth="yes"/>
      <point x="433" y="271" type="line"/>
      <point x="433" y="361" type="line" smooth="yes"/>
      <point x="433" y="483"/>
      <point x="529.192" y="534"/>
      <point x="636" y="534" type="curve"/>
      <point x="636" y="574" type="line"/>
      <point x="514.062" y="574"/>
      <point x="392" y="518.007"/>
      <point x="392" y="360" type="curve" smooth="yes"/>
    </contour>
    <contour>
      <point x="1051" y="-76" type="curve"/>
      <point x="1012" y="-66" type="line"/>
      <point x="995.55" y="-133.627"/>
      <point x="939.847" y="-164.281"/>
      <point x="884.197" y="-164.281" type="curve" smooth="yes"/>
      <point x="818.061" y="-164.281"/>
      <point x="752" y="-120.984"/>
      <point x="752" y="-45" type="curve"/>
      <point x="712" y="-45" type="line"/>
      <point x="712" y="-151.098"/>
      <point x="795.453" y="-203.964"/>
      <point x="880.022" y="-203.964" type="curve" smooth="yes"/>
      <point x="956.064" y="-203.964"/>
      <point x="1033.01" y="-161.222"/>
    </contour>
    <contour>
      <point x="692" y="574" type="curve" smooth="yes"/>
      <point x="691.94" y="533.201" type="line" smooth="yes"/>
      <point x="769.581" y="533.201"/>
      <point x="911" y="516.372"/>
      <point x="911" y="389" type="curve"/>
      <point x="775" y="389" type="line" smooth="yes"/>
      <point x="644.045" y="389"/>
      <point x="549" y="335.29"/>
      <point x="549" y="199" type="curve" smooth="yes"/>
      <point x="549" y="60.3916"/>
      <point x="656" y="0"/>
      <point x="776" y="0" type="curve" smooth="yes"/>
      <point x="815" y="0" type="line"/>
      <point x="872" y="0"/>
      <point x="975.009" y="22.3047"/>
      <point x="1017" y="138" type="curve"/>
      <point x="980" y="148" type="line"/>
      <point x="945.998" y="74.5439"/>
      <point x="886" y="40"/>
      <point x="815" y="40" type="curve"/>
      <point x="776" y="40" type="line"/>
      <point x="652.124" y="40"/>
      <point x="590.624" y="108.484"/>
      <point x="590.624" y="199" type="curve" smooth="yes"/>
      <point x="590.624" y="293.457"/>
      <point x="649.019" y="349"/>
      <point x="765" y="349" type="curve" smooth="yes"/>
      <point x="951" y="349" type="line"/>
      <point x="951" y="376" type="line" smooth="yes"/>
      <point x="951" y="555.503"/>
      <point x="790.31" y="574"/>
    </contour>
  </outline>
</glyph>
<glyph name="si_Ndja" format="1">
  <advance width="765"/>
  <unicode hex="0DA6"/>
  <outline>
    <contour>
      <point x="210" y="466" type="curve"/>
      <point x="210.051" y="509.245" type="line" smooth="yes"/>
      <point x="129" y="534"/>
      <point x="30" y="514"/>
      <point x="30" y="349" type="curve" smooth="yes"/>
      <point x="30" y="209" type="line" smooth="yes"/>
      <point x="30" y="118.444"/>
      <point x="34.3584" y="69.1836"/>
      <point x="94" y="-8" type="curve"/>
      <point x="136" y="8" type="line"/>
      <point x="71.5576" y="84.5967"/>
      <point x="70" y="128.436"/>
      <point x="70" y="209" type="curve" smooth="yes"/>
      <point x="70" y="349" type="line" smooth="yes"/>
      <point x="70" y="438"/>
      <point x="105" y="506"/>
    </contour>
    <component base="si_Ja" xOffset="145"/>
  </outline>
</glyph>
<glyph name="si_Dda" format="1">
  <advance width="632"/>
  <unicode hex="0DA9"/>
  <outline>
    <contour>
      <point x="215" y="0" type="curve" smooth="yes"/>
      <point x="132.107" y="0"/>
      <point x="74" y="52.25"/>
      <point x="74" y="133" type="curve" smooth="yes"/>
      <point x="74" y="235" type="line" smooth="yes"/>
      <point x="74" y="266.714"/>
      <point x="80.8193" y="297.654"/>
      <point x="102" y="309" type="curve"/>
      <point x="30.0254" y="309" type="line"/>
      <point x="30" y="349" type="line"/>
      <point x="315" y="349" type="line"/>
      <point x="314.714" y="407.658"/>
      <point x="265.87" y="438.116"/>
      <point x="218.351" y="438.116" type="curve" smooth="yes"/>
      <point x="183.821" y="438.116"/>
      <point x="149.99" y="422.033"/>
      <point x="136" y="389" type="curve"/>
      <point x="97" y="399" type="line"/>
      <point x="110.76" y="451.927"/>
      <point x="164.095" y="478.996"/>
      <point x="218.724" y="478.996" type="curve" smooth="yes"/>
      <point x="252.3055" y="478.996"/>
      <point x="286.3755" y="468.767"/>
      <point x="312.041125" y="448.028" type="curve" smooth="yes"/>
      <point x="337.70675" y="427.289"/>
      <point x="354.968" y="396.04"/>
      <point x="354.932" y="354" type="curve" smooth="yes"/>
      <point x="355" y="309" type="line"/>
      <point x="191" y="309" type="line" smooth="yes"/>
      <point x="154.631" y="309"/>
      <point x="116" y="301.575"/>
      <point x="116" y="235" type="curve" smooth="yes"/>
      <point x="116" y="139" type="line" smooth="yes"/>
      <point x="116" y="104.059"/>
      <point x="138.846" y="40"/>
      <point x="215" y="40" type="curve" smooth="yes"/>
      <point x="290.154" y="40"/>
      <point x="313" y="104.059"/>
      <point x="313" y="139" type="curve" smooth="yes"/>
      <point x="313" y="192" type="line"/>
      <point x="355" y="192" type="line"/>
      <point x="355" y="139" type="line" smooth="yes"/>
      <point x="355" y="104.059"/>
      <point x="377.846" y="40"/>
      <point x="453" y="40" type="curve" smooth="yes"/>
      <point x="529.154" y="40"/>
      <point x="552" y="104.062"/>
      <point x="552" y="139" type="curve" smooth="yes"/>
      <point x="552" y="197" type="line"/>
      <point x="594" y="197" type="line"/>
      <point x="594" y="133" type="line" smooth="yes"/>
      <point x="594" y="52.2564"/>
      <point x="535.893" y="0"/>
      <point x="453" y="0" type="curve" smooth="yes"/>
      <point x="400.595" y="0"/>
      <point x="357.931" y="21.3961"/>
      <point x="334" y="57.9649" type="curve"/>
      <point x="310.069" y="21.3961"/>
      <point x="267.405" y="3.55271e-15"/>
    </contour>
    <contour>
      <point x="552" y="197" type="line" smooth="yes"/>
      <point x="552" y="514" type="line" smooth="yes"/>
      <point x="552" y="665.824"/>
      <point x="480.13" y="715"/>
      <point x="362" y="715" type="curve"/>
      <point x="362" y="755" type="line"/>
      <point x="526.177" y="755"/>
      <point x="594" y="675.274"/>
      <point x="594" y="514" type="curve" smooth="yes"/>
      <point x="594" y="197" type="line" smooth="yes"/>
    </contour>
    <contour>
      <point x="84.375" y="563" type="line"/>
      <point x="84.375" y="680.776"/>
      <point x="201.933" y="755"/>
      <point x="306" y="755" type="curve"/>
      <point x="306" y="715" type="line"/>
      <point x="213.405" y="715"/>
      <point x="123.375" y="651.181"/>
      <point x="123.375" y="553" type="curve"/>
    </contour>
  </outline>
</glyph>
<glyph name="si_Nndda" format="1">
  <advance width="728"/>
  <unicode hex="0DAC"/>
  <outline>
    <contour>
      <point x="229" y="392" type="line"/>
      <point x="98" y="432"/>
      <point x="70" y="349"/>
      <point x="70" y="290" type="curve" smooth="yes"/>
      <point x="70" y="209" type="line" smooth="yes"/>
      <point x="70" y="128.436"/>
      <point x="60.5576" y="84.5967"/>
      <point x="125" y="8" type="curve"/>
      <point x="83" y="-8" type="line"/>
      <point x="23.3584" y="69.1836"/>
      <point x="30" y="118.444"/>
      <point x="30" y="209" type="curve" smooth="yes"/>
      <point x="30" y="290" type="line" smooth="yes"/>
      <point x="30" y="425"/>
      <point x="129" y="473"/>
      <point x="246" y="429" type="curve" smooth="yes"/>
    </contour>
    <contour>
      <point x="183.375" y="563" type="line"/>
      <point x="183.375" y="673.921"/>
      <point x="296.923" y="755"/>
      <point x="393" y="755" type="curve"/>
      <point x="405" y="755" type="line"/>
      <point x="405" y="715" type="line"/>
      <point x="393" y="715" type="line"/>
      <point x="308.506" y="715"/>
      <point x="222.375" y="644.132"/>
      <point x="222.375" y="553" type="curve"/>
    </contour>
    <contour>
      <point x="698" y="241" type="line" smooth="yes"/>
      <point x="656" y="241" type="line" smooth="yes"/>
      <point x="656" y="514" type="line" smooth="yes"/>
      <point x="656" y="661.715"/>
      <point x="586.056" y="715"/>
      <point x="473" y="715" type="curve"/>
      <point x="462" y="715" type="line"/>
      <point x="462" y="755" type="line"/>
      <point x="473" y="755" type="line"/>
      <point x="632.37" y="755"/>
      <point x="698" y="671.037"/>
      <point x="698" y="514" type="curve" smooth="yes"/>
    </contour>
    <contour>
      <point x="134" y="349" type="line"/>
      <point x="419" y="349" type="line"/>
      <point x="418.506" y="450.283"/>
      <point x="273.243" y="467.491"/>
      <point x="240" y="389" type="curve"/>
      <point x="201" y="399" type="line"/>
      <point x="231.677" y="516.998"/>
      <point x="459.062" y="506.469"/>
      <point x="458.932" y="354" type="curve" smooth="yes"/>
      <point x="459" y="309" type="line"/>
      <point x="410" y="309" type="line" smooth="yes"/>
      <point x="295" y="309" type="line"/>
      <point x="258.631" y="309"/>
      <point x="220" y="301.575"/>
      <point x="220" y="235" type="curve" smooth="yes"/>
      <point x="220" y="139" type="line" smooth="yes"/>
      <point x="220" y="104.059"/>
      <point x="242.846" y="40"/>
      <point x="319" y="40" type="curve" smooth="yes"/>
      <point x="394.154" y="40"/>
      <point x="417" y="104.059"/>
      <point x="417" y="139" type="curve" smooth="yes"/>
      <point x="417" y="192" type="line"/>
      <point x="459" y="192" type="line"/>
      <point x="459" y="133" type="line" smooth="yes"/>
      <point x="459" y="52.25"/>
      <point x="400.893" y="0"/>
      <point x="319" y="0" type="curve" smooth="yes"/>
      <point x="236.107" y="0"/>
      <point x="178" y="52.25"/>
      <point x="178" y="133" type="curve" smooth="yes"/>
      <point x="178" y="235" type="line" smooth="yes"/>
      <point x="178" y="266.714"/>
      <point x="184.819" y="297.654"/>
      <point x="206" y="309" type="curve"/>
      <point x="134.025" y="309" type="line"/>
    </contour>
    <contour>
      <point x="698" y="282" type="line"/>
      <point x="698" y="133" type="line" smooth="yes"/>
      <point x="698" y="52.25"/>
      <point x="639.893" y="0"/>
      <point x="557" y="0" type="curve" smooth="yes"/>
      <point x="475.107" y="0"/>
      <point x="417" y="52.25"/>
      <point x="417" y="133" type="curve" smooth="yes"/>
      <point x="417" y="192" type="line"/>
      <point x="459" y="192" type="line"/>
      <point x="459" y="139" type="line" smooth="yes"/>
      <point x="459" y="104.059"/>
      <point x="481.846" y="40"/>
      <point x="557" y="40" type="curve" smooth="yes"/>
      <point x="633.154" y="40"/>
      <point x="656" y="104.059"/>
      <point x="656" y="139" type="curve" smooth="yes"/>
      <point x="656" y="282" type="line"/>
    </contour>
  </outline>
</glyph>
<glyph name="si_Tha" format="1">
  <advance width="544"/>
  <unicode hex="0DAE"/>
  <outline>
    <contour>
      <point x="247" y="637" type="curve" smooth="yes"/>
      <point x="247" y="755" type="line"/>
      <point x="287" y="755" type="line"/>
      <point x="416.702" y="755"/>
      <point x="514" y="700"/>
      <point x="514" y="517" type="curve" smooth="yes"/>
      <point x="514" y="235" type="line"/>
      <point x="472" y="235" type="line"/>
      <point x="472" y="498" type="line" smooth="yes"/>
      <point x="472" y="643.279"/>
      <point x="424.385" y="715"/>
      <point x="287" y="715" type="curve"/>
      <point x="286.95" y="637" type="line" smooth="yes"/>
      <point x="287" y="536.674"/>
      <point x="354.352" y="504"/>
      <point x="417" y="504" type="curve"/>
      <point x="417" y="464" type="line"/>
      <point x="300" y="464"/>
      <point x="247" y="540.655"/>
    </contour>
    <contour>
      <point x="30.374" y="270" type="line" smooth="yes"/>
      <point x="30.374" y="354.561"/>
      <point x="73.0352" y="470"/>
      <point x="233" y="470" type="curve"/>
      <point x="233" y="429.931" type="line"/>
      <point x="121.341" y="429.996"/>
      <point x="71.375" y="357.23"/>
      <point x="71.375" y="270" type="curve" smooth="yes"/>
      <point x="71.375" y="200" type="line" smooth="yes"/>
      <point x="71.375" y="112"/>
      <point x="132.265" y="40.0039"/>
      <point x="233" y="40.0693" type="curve"/>
      <point x="233" y="0" type="line"/>
      <point x="83.7588" y="0"/>
      <point x="30.375" y="116"/>
      <point x="30.375" y="200" type="curve" smooth="yes"/>
    </contour>
    <contour>
      <point x="289" y="0" type="curve"/>
      <point x="289" y="40" type="line"/>
      <point x="402.056" y="40"/>
      <point x="472" y="95.2852"/>
      <point x="472" y="241" type="curve" smooth="yes"/>
      <point x="514" y="241" type="line" smooth="yes"/>
      <point x="514" y="83.9629"/>
      <point x="448.37" y="0"/>
    </contour>
  </outline>
</glyph>
<glyph name="si_Dha" format="1">
  <advance width="580"/>
  <unicode hex="0DB0"/>
  <outline>
    <contour>
      <point x="171" y="0" type="curve" smooth="yes"/>
      <point x="88.1074" y="0"/>
      <point x="30" y="52.25"/>
      <point x="30" y="133" type="curve" smooth="yes"/>
      <point x="30" y="307" type="line" smooth="yes"/>
      <point x="30" y="387.75"/>
      <point x="78.1074" y="480"/>
      <point x="210.667" y="480" type="curve" smooth="yes"/>
      <point x="250" y="480" type="line"/>
      <point x="250" y="440" type="line"/>
      <point x="210.667" y="440" type="line" smooth="yes"/>
      <point x="84.8457" y="440"/>
      <point x="72" y="335.941"/>
      <point x="72" y="301" type="curve" smooth="yes"/>
      <point x="72" y="139" type="line" smooth="yes"/>
      <point x="72" y="104.059"/>
      <point x="94.8457" y="40"/>
      <point x="171" y="40" type="curve" smooth="yes"/>
      <point x="246.154" y="40"/>
      <point x="269" y="104.059"/>
      <point x="269" y="139" type="curve" smooth="yes"/>
      <point x="269" y="192" type="line"/>
      <point x="311" y="192" type="line"/>
      <point x="311" y="139" type="line" smooth="yes"/>
      <point x="311" y="104.059"/>
      <point x="333.846" y="40"/>
      <point x="409" y="40" type="curve" smooth="yes"/>
      <point x="485.154" y="40"/>
      <point x="508" y="104.059"/>
      <point x="508" y="139" type="curve" smooth="yes"/>
      <point x="508" y="242" type="line"/>
      <point x="550" y="242" type="line"/>
      <point x="550" y="133" type="line" smooth="yes"/>
      <point x="550" y="52.25"/>
      <point x="491.893" y="0"/>
      <point x="409" y="0" type="curve" smooth="yes"/>
      <point x="356.595" y="0"/>
      <point x="313.931" y="21.3961"/>
      <point x="290" y="57.9649" type="curve"/>
      <point x="266.069" y="21.3961"/>
      <point x="223.405" y="3.55271e-15"/>
    </contour>
    <contour>
      <point x="508" y="241" type="line" smooth="yes"/>
      <point x="508" y="514" type="line" smooth="yes"/>
      <point x="508" y="661.715"/>
      <point x="438.056" y="715"/>
      <point x="325" y="715" type="curve"/>
      <point x="318" y="715" type="line"/>
      <point x="318" y="755" type="line"/>
      <point x="325" y="755" type="line"/>
      <point x="484.37" y="755"/>
      <point x="550" y="671.037"/>
      <point x="550" y="514" type="curve" smooth="yes"/>
      <point x="550" y="241" type="line" smooth="yes"/>
    </contour>
    <contour>
      <point x="40.375" y="563" type="line"/>
      <point x="40.375" y="673.921"/>
      <point x="153.923" y="755"/>
      <point x="250" y="755" type="curve"/>
      <point x="262" y="755" type="line"/>
      <point x="262" y="715" type="line"/>
      <point x="250" y="715" type="line"/>
      <point x="165.506" y="715"/>
      <point x="79.375" y="644.132"/>
      <point x="79.375" y="553" type="curve"/>
    </contour>
  </outline>
</glyph>
<glyph name="si_Na" format="1">
  <advance width="728"/>
  <unicode hex="0DB1"/>
  <outline>
    <contour>
      <point x="698" y="336" type="curve" smooth="yes"/>
      <point x="698" y="192" type="line" smooth="yes"/>
      <point x="697.58" y="65.7373"/>
      <point x="661.296" y="-1"/>
      <point x="522" y="-1" type="curve"/>
      <point x="522" y="39" type="line"/>
      <point x="584.112" y="39"/>
      <point x="658" y="47.959"/>
      <point x="658" y="192" type="curve" smooth="yes"/>
      <point x="658" y="336" type="line" smooth="yes"/>
      <point x="658" y="522.208"/>
      <point x="422.556" y="581.888"/>
      <point x="324" y="452" type="curve" smooth="yes"/>
      <point x="245.998" y="349.2" type="line" smooth="yes"/>
      <point x="193.393" y="280.187"/>
      <point x="126" y="201"/>
      <point x="50" y="214" type="curve"/>
      <point x="50" y="258" type="line" smooth="yes"/>
      <point x="100.33" y="242.677"/>
      <point x="169.999" y="321.2"/>
      <point x="196.999" y="356.2" type="curve" smooth="yes"/>
      <point x="294.013" y="485" type="line" smooth="yes"/>
      <point x="391.119" y="613.923"/>
      <point x="698" y="597.162"/>
    </contour>
    <contour>
      <point x="33" y="452" type="line"/>
      <point x="98" y="622"/>
      <point x="291" y="576"/>
      <point x="320" y="473" type="curve"/>
      <point x="289" y="445" type="line"/>
      <point x="265" y="531"/>
      <point x="121" y="563"/>
      <point x="72" y="440" type="curve"/>
    </contour>
    <contour>
      <point x="30" y="256" type="curve" smooth="yes"/>
      <point x="30" y="344" type="line"/>
      <point x="71" y="344" type="line"/>
      <point x="71" y="313"/>
      <point x="71" y="301"/>
      <point x="71" y="270" type="curve" smooth="yes"/>
      <point x="71" y="-31.7568"/>
      <point x="447.907" y="-26.5586"/>
      <point x="447.907" y="207.781" type="curve" smooth="yes"/>
      <point x="447.907" y="269.002"/>
      <point x="423.599" y="334.853"/>
      <point x="330" y="370" type="curve"/>
      <point x="355" y="403" type="line"/>
      <point x="451.48" y="372.244"/>
      <point x="492.414" y="287.188"/>
      <point x="492.414" y="208.132" type="curve" smooth="yes"/>
      <point x="492.414" y="-80.543"/>
      <point x="30" y="-85.4551"/>
    </contour>
  </outline>
</glyph>
<glyph name="si_Nda" format="1">
  <advance width="672"/>
  <unicode hex="0DB3"/>
  <outline>
    <contour>
      <point x="397" y="0" type="line" smooth="yes"/>
      <point x="277" y="0"/>
      <point x="170" y="60.3916"/>
      <point x="170" y="199" type="curve" smooth="yes"/>
      <point x="170" y="335.29"/>
      <point x="265.045" y="402"/>
      <point x="396" y="402" type="curve" smooth="yes"/>
      <point x="532" y="402" type="line"/>
      <point x="532" y="493.372"/>
      <point x="460.287" y="537.564"/>
      <point x="382.646" y="537.564" type="curve" smooth="yes"/>
      <point x="321.683" y="537.564"/>
      <point x="263.614" y="504.852"/>
      <point x="247" y="443" type="curve"/>
      <point x="208" y="456" type="line"/>
      <point x="229.407" y="536.278"/>
      <point x="303.421" y="579.363"/>
      <point x="380.706" y="579.363" type="curve" smooth="yes"/>
      <point x="479.016" y="579.363"/>
      <point x="572" y="518.503"/>
      <point x="572" y="389" type="curve" smooth="yes"/>
      <point x="572" y="362" type="line"/>
      <point x="386" y="362" type="line" smooth="yes"/>
      <point x="270.019" y="362"/>
      <point x="211.624" y="293.457"/>
      <point x="211.624" y="199" type="curve" smooth="yes"/>
      <point x="211.624" y="108.484"/>
      <point x="273.124" y="40"/>
      <point x="397" y="40" type="curve"/>
      <point x="436" y="40" type="line"/>
      <point x="507" y="40"/>
      <point x="566.998" y="74.5439"/>
      <point x="601" y="148" type="curve"/>
      <point x="638" y="138" type="line"/>
      <point x="596.009" y="22.3047"/>
      <point x="493" y="0"/>
      <point x="436" y="0" type="curve"/>
    </contour>
    <contour>
      <point x="94" y="-8" type="line"/>
      <point x="34.3584" y="69.1836"/>
      <point x="30" y="118.444"/>
      <point x="30" y="209" type="curve" smooth="yes"/>
      <point x="30" y="297" type="line" smooth="yes"/>
      <point x="30" y="433.904"/>
      <point x="109.859" y="497.145"/>
      <point x="189.636" y="497.145" type="curve" smooth="yes"/>
      <point x="206.008" y="497.145"/>
      <point x="222.377" y="494.482"/>
      <point x="238.051" y="489.245" type="curve" smooth="yes"/>
      <point x="238" y="446" type="line"/>
      <point x="220.287" y="452.007"/>
      <point x="204.045" y="454.74"/>
      <point x="189.241" y="454.74" type="curve" smooth="yes"/>
      <point x="107.931" y="454.74"/>
      <point x="70" y="372.292"/>
      <point x="70" y="297" type="curve" smooth="yes"/>
      <point x="70" y="209" type="line" smooth="yes"/>
      <point x="70" y="128.436"/>
      <point x="71.5576" y="84.5967"/>
      <point x="136" y="8" type="curve"/>
    </contour>
    <contour>
      <point x="501.022" y="-203.964" type="curve" smooth="yes"/>
      <point x="416.453" y="-203.964"/>
      <point x="333" y="-151.097"/>
      <point x="333" y="-45" type="curve"/>
      <point x="373" y="-45" type="line"/>
      <point x="373" y="-120.985"/>
      <point x="439.06" y="-164.281"/>
      <point x="505.197" y="-164.281" type="curve" smooth="yes"/>
      <point x="560.846" y="-164.281"/>
      <point x="616.55" y="-133.627"/>
      <point x="633" y="-66" type="curve"/>
      <point x="672" y="-76" type="line"/>
      <point x="654.009" y="-161.221"/>
      <point x="577.064" y="-203.964"/>
    </contour>
  </outline>
</glyph>
<glyph name="si_Pa" format="1">
  <advance width="620"/>
  <unicode hex="0DB4"/>
  <outline>
    <contour>
      <point x="31" y="477" type="line"/>
      <point x="56.707" y="541.871"/>
      <point x="117.119" y="564"/>
      <point x="181" y="564" type="curve" smooth="yes"/>
      <point x="217.661" y="564"/>
      <point x="278.651" y="551.303"/>
      <point x="310" y="497.885" type="curve"/>
      <point x="341.349" y="551.303"/>
      <point x="402.339" y="564"/>
      <point x="439" y="564" type="curve" smooth="yes"/>
      <point x="502.881" y="564"/>
      <point x="563.293" y="541.871"/>
      <point x="589" y="477" type="curve"/>
      <point x="550" y="464" type="line"/>
      <point x="536.527" y="500.315"/>
      <point x="501.579" y="524"/>
      <point x="439" y="524" type="curve" smooth="yes"/>
      <point x="360.793" y="524"/>
      <point x="330" y="469"/>
      <point x="330" y="415" type="curve" smooth="yes"/>
      <point x="330" y="379" type="line"/>
      <point x="290" y="379" type="line"/>
      <point x="290" y="415" type="line" smooth="yes"/>
      <point x="290" y="469"/>
      <point x="259.207" y="524"/>
      <point x="181" y="524" type="curve" smooth="yes"/>
      <point x="118.421" y="524"/>
      <point x="83.4727" y="500.315"/>
      <point x="70" y="464" type="curve"/>
    </contour>
    <contour>
      <point x="279" y="-6" type="line" smooth="yes"/>
      <point x="102" y="-6"/>
      <point x="30" y="49.7461"/>
      <point x="30" y="192.5" type="curve"/>
      <point x="70" y="192.5" type="line"/>
      <point x="70" y="61.3008"/>
      <point x="146" y="34"/>
      <point x="279" y="34" type="curve" smooth="yes"/>
      <point x="341" y="34" type="line" smooth="yes"/>
      <point x="474" y="34"/>
      <point x="550" y="62.3008"/>
      <point x="550" y="192.5" type="curve"/>
      <point x="590" y="192.5" type="line"/>
      <point x="590" y="49.7461"/>
      <point x="518" y="-6"/>
      <point x="341" y="-6" type="curve" smooth="yes"/>
    </contour>
    <contour>
      <point x="30" y="242" type="line"/>
      <point x="30" y="364"/>
      <point x="97" y="402"/>
      <point x="194" y="402" type="curve" smooth="yes"/>
      <point x="419" y="402" type="line" smooth="yes"/>
      <point x="527" y="402"/>
      <point x="590" y="368"/>
      <point x="590" y="242" type="curve"/>
      <point x="550" y="242" type="line"/>
      <point x="550" y="320"/>
      <point x="530" y="362"/>
      <point x="421" y="362" type="curve" smooth="yes"/>
      <point x="195" y="362" type="line" smooth="yes"/>
      <point x="85.7383" y="362"/>
      <point x="70.001" y="308.104"/>
      <point x="70" y="242" type="curve"/>
    </contour>
  </outline>
</glyph>
<glyph name="si_Ba" format="1">
  <advance width="586"/>
  <unicode hex="0DB6"/>
  <outline>
    <contour>
      <point x="30" y="177" type="curve" smooth="yes"/>
      <point x="30" y="284" type="line" smooth="yes"/>
      <point x="30" y="389.836"/>
      <point x="100.241" y="443.319"/>
      <point x="170.235" y="443.319" type="curve" smooth="yes"/>
      <point x="239.739" y="443.319"/>
      <point x="309" y="390.582"/>
      <point x="309" y="284" type="curve" smooth="yes"/>
      <point x="309" y="141" type="line" smooth="yes"/>
      <point x="309" y="74.4023"/>
      <point x="360.817" y="40.5402"/>
      <point x="412.348" y="40.5402" type="curve" smooth="yes"/>
      <point x="463.314" y="40.5402"/>
      <point x="514" y="73.6635"/>
      <point x="514" y="141" type="curve"/>
      <point x="514" y="264" type="line"/>
      <point x="556" y="264" type="line"/>
      <point x="556" y="144" type="line"/>
      <point x="556" y="45.5028"/>
      <point x="483.061" y="-3.95137"/>
      <point x="410.596" y="-3.95137" type="curve" smooth="yes"/>
      <point x="339.067" y="-3.95137"/>
      <point x="268" y="44.234"/>
      <point x="268" y="141" type="curve" smooth="yes"/>
      <point x="268" y="284" type="line" smooth="yes"/>
      <point x="268" y="359.832"/>
      <point x="218.751" y="397.785"/>
      <point x="169.502" y="397.785" type="curve" smooth="yes"/>
      <point x="120.284" y="397.785"/>
      <point x="71.0656" y="359.881"/>
      <point x="71" y="284" type="curve" smooth="yes"/>
      <point x="70.917" y="177" type="line" smooth="yes"/>
      <point x="71" y="65"/>
      <point x="123.457" y="40"/>
      <point x="211" y="40" type="curve"/>
      <point x="211" y="0" type="line"/>
      <point x="91.1055" y="0"/>
      <point x="30" y="45"/>
    </contour>
    <contour>
      <point x="514" y="241" type="line" smooth="yes"/>
      <point x="514" y="514" type="line" smooth="yes"/>
      <point x="514" y="661.715"/>
      <point x="444.056" y="715"/>
      <point x="331" y="715" type="curve"/>
      <point x="320" y="715" type="line"/>
      <point x="320" y="755" type="line"/>
      <point x="331" y="755" type="line"/>
      <point x="490.37" y="755"/>
      <point x="556" y="671.037"/>
      <point x="556" y="514" type="curve" smooth="yes"/>
      <point x="556" y="241" type="line" smooth="yes"/>
    </contour>
    <contour>
      <point x="41.375" y="563" type="line"/>
      <point x="41.375" y="673.921"/>
      <point x="154.923" y="755"/>
      <point x="251" y="755" type="curve"/>
      <point x="263" y="755" type="line"/>
      <point x="263" y="715" type="line"/>
      <point x="251" y="715" type="line"/>
      <point x="166.506" y="715"/>
      <point x="80.375" y="644.132"/>
      <point x="80.375" y="553" type="curve"/>
    </contour>
  </outline>
</glyph>
<glyph name="si_Bha" format="1">
  <advance width="743"/>
  <unicode hex="0DB7"/>
  <outline>
    <contour>
      <point x="30.0254" y="394" type="line"/>
      <point x="335" y="394" type="line"/>
      <point x="334.932" y="439" type="line" smooth="yes"/>
      <point x="335.062" y="591.469"/>
      <point x="107.677" y="601.998"/>
      <point x="77" y="484" type="curve"/>
      <point x="116" y="474" type="line"/>
      <point x="149.243" y="552.491"/>
      <point x="294.506" y="535.283"/>
      <point x="295" y="434" type="curve"/>
      <point x="30" y="434" type="line"/>
    </contour>
    <contour>
      <point x="673" y="216" type="line" smooth="yes"/>
      <point x="673" y="98.1426"/>
      <point x="619.112" y="32"/>
      <point x="527" y="32" type="curve"/>
      <point x="527" y="-8" type="line"/>
      <point x="646.296" y="-8"/>
      <point x="712.58" y="79.7373"/>
      <point x="712.921" y="216" type="curve" smooth="yes"/>
      <point x="712.921" y="340" type="line" smooth="yes"/>
      <point x="712.58" y="476.263"/>
      <point x="646.296" y="564"/>
      <point x="527" y="564" type="curve"/>
      <point x="527" y="524" type="line"/>
      <point x="622.112" y="524"/>
      <point x="673" y="457.857"/>
      <point x="673" y="340" type="curve" smooth="yes"/>
    </contour>
    <contour>
      <point x="110" y="196" type="curve" smooth="yes"/>
      <point x="110" y="250" type="line" smooth="yes"/>
      <point x="110" y="357.857"/>
      <point x="160.888" y="394"/>
      <point x="256" y="394" type="curve"/>
      <point x="256" y="434" type="line"/>
      <point x="136.704" y="434"/>
      <point x="70.4199" y="376.263"/>
      <point x="70.0791" y="250" type="curve" smooth="yes"/>
      <point x="70.0791" y="196" type="line" smooth="yes"/>
      <point x="70.4199" y="79.7373"/>
      <point x="136.704" y="-8"/>
      <point x="256" y="-8" type="curve"/>
      <point x="256" y="32" type="line"/>
      <point x="163.888" y="32"/>
      <point x="110" y="98.1426"/>
    </contour>
    <contour>
      <point x="309" y="271" type="line"/>
      <point x="346" y="271" type="line" smooth="yes"/>
      <point x="431.498" y="271"/>
      <point x="439.126" y="199.586"/>
      <point x="439.126" y="152.124" type="curve" smooth="yes"/>
      <point x="439.126" y="66.249"/>
      <point x="391.817" y="32"/>
      <point x="312" y="32" type="curve"/>
      <point x="312" y="-8" type="line"/>
      <point x="411.866" y="-8"/>
      <point x="479" y="42.873"/>
      <point x="479" y="145" type="curve" smooth="yes"/>
      <point x="479" y="164" type="line" smooth="yes"/>
      <point x="479" y="233"/>
      <point x="448.232" y="311"/>
      <point x="346" y="311" type="curve" smooth="yes"/>
      <point x="309" y="311" type="line"/>
    </contour>
    <contour>
      <point x="292" y="271" type="line" smooth="yes"/>
      <point x="333" y="271" type="line"/>
      <point x="333" y="361" type="line" smooth="yes"/>
      <point x="333" y="443"/>
      <point x="364.192" y="524"/>
      <point x="471" y="524" type="curve"/>
      <point x="471" y="564" type="line"/>
      <point x="349.062" y="564"/>
      <point x="292" y="478.007"/>
      <point x="292" y="360" type="curve" smooth="yes"/>
    </contour>
    <contour>
      <point x="414" y="188" type="move" smooth="yes"/>
    </contour>
  </outline>
</glyph>
<glyph name="si_Ma" format="1">
  <advance width="570"/>
  <unicode hex="0DB8"/>
  <outline>
    <contour>
      <point x="320" y="-3" type="move" name="si_rakar"/>
    </contour>
    <contour>
      <point x="30" y="252" type="curve" smooth="yes"/>
      <point x="30" y="336" type="line" smooth="yes"/>
      <point x="30" y="433.794"/>
      <point x="87.6278" y="478.511"/>
      <point x="141.625" y="478.511" type="curve" smooth="yes"/>
      <point x="189.223" y="478.511"/>
      <point x="234" y="443.766"/>
      <point x="234" y="380" type="curve" smooth="yes"/>
      <point x="234" y="315" type="line" smooth="yes"/>
      <point x="234" y="288.714"/>
      <point x="254.711" y="275.607"/>
      <point x="275.442" y="275.607" type="curve" smooth="yes"/>
      <point x="296.211" y="275.607"/>
      <point x="317" y="288.763"/>
      <point x="317" y="315" type="curve" smooth="yes"/>
      <point x="317" y="469" type="line"/>
      <point x="357" y="469" type="line"/>
      <point x="357" y="310" type="line" smooth="yes"/>
      <point x="357" y="256.851"/>
      <point x="316.223" y="230.25"/>
      <point x="275.46" y="230.25" type="curve" smooth="yes"/>
      <point x="234.723" y="230.25"/>
      <point x="194" y="256.816"/>
      <point x="194" y="310" type="curve" smooth="yes"/>
      <point x="194" y="380" type="line" smooth="yes"/>
      <point x="194" y="415.421"/>
      <point x="166.887" y="437.969"/>
      <point x="138.018" y="437.969" type="curve" smooth="yes"/>
      <point x="105.148" y="437.969"/>
      <point x="70" y="408.739"/>
      <point x="70" y="336" type="curve" smooth="yes"/>
      <point x="70" y="252" type="line" smooth="yes"/>
      <point x="70" y="53.8477"/>
      <point x="203.323" y="40"/>
      <point x="243" y="40" type="curve"/>
      <point x="243" y="0" type="line"/>
      <point x="67.2822" y="0"/>
      <point x="30" y="143"/>
    </contour>
    <contour>
      <point x="299" y="0" type="curve"/>
      <point x="299" y="40" type="line"/>
      <point x="412.056" y="40"/>
      <point x="499" y="95.2852"/>
      <point x="499" y="241" type="curve" smooth="yes"/>
      <point x="499" y="514" type="line" smooth="yes"/>
      <point x="499" y="661.715"/>
      <point x="412.056" y="715"/>
      <point x="299" y="715" type="curve"/>
      <point x="299" y="755" type="line"/>
      <point x="458.37" y="755"/>
      <point x="540" y="671.037"/>
      <point x="540" y="514" type="curve" smooth="yes"/>
      <point x="540" y="241" type="line" smooth="yes"/>
      <point x="540" y="83.9629"/>
      <point x="458.37" y="0"/>
    </contour>
    <contour>
      <point x="30.375" y="563" type="line"/>
      <point x="30.375" y="673.921"/>
      <point x="146.923" y="755"/>
      <point x="243" y="755" type="curve"/>
      <point x="243" y="715" type="line"/>
      <point x="158.506" y="715"/>
      <point x="69.375" y="644.132"/>
      <point x="69.375" y="553" type="curve"/>
    </contour>
  </outline>
</glyph>
<glyph name="si_Mba" format="1">
  <advance width="600"/>
  <unicode hex="0DB9"/>
  <outline>
    <contour>
      <point x="30.375" y="563" type="line"/>
      <point x="30.375" y="673.921"/>
      <point x="143.923" y="755"/>
      <point x="240" y="755" type="curve"/>
      <point x="240" y="715" type="line"/>
      <point x="155.506" y="715"/>
      <point x="69.375" y="644.132"/>
      <point x="69.375" y="553" type="curve"/>
    </contour>
    <contour>
      <point x="553" y="514" type="line" smooth="yes"/>
      <point x="553" y="671.037"/>
      <point x="455.37" y="755"/>
      <point x="296" y="755" type="curve"/>
      <point x="296" y="715" type="line"/>
      <point x="409.056" y="715"/>
      <point x="513" y="661.715"/>
      <point x="513" y="514" type="curve" smooth="yes"/>
      <point x="513" y="167" type="line" smooth="yes"/>
      <point x="513" y="102.17"/>
      <point x="469.914" y="29"/>
      <point x="398" y="29" type="curve" smooth="yes"/>
      <point x="341.322" y="29"/>
      <point x="365" y="72.8555"/>
      <point x="365" y="166" type="curve" smooth="yes"/>
      <point x="365" y="180.669"/>
      <point x="357.842" y="204"/>
      <point x="331" y="204" type="curve" smooth="yes"/>
      <point x="252" y="204" type="line" smooth="yes"/>
      <point x="225.158" y="204"/>
      <point x="218" y="180.669"/>
      <point x="218" y="166" type="curve" smooth="yes"/>
      <point x="218" y="72.8555"/>
      <point x="241.678" y="29"/>
      <point x="185" y="29" type="curve" smooth="yes"/>
      <point x="113.086" y="29"/>
      <point x="70" y="102.152"/>
      <point x="70" y="167" type="curve" smooth="yes"/>
      <point x="70" y="336" type="line" smooth="yes"/>
      <point x="70" y="472.624"/>
      <point x="209" y="455.751"/>
      <point x="209" y="380" type="curve" smooth="yes"/>
      <point x="209" y="310" type="line" smooth="yes"/>
      <point x="209" y="203.597"/>
      <point x="372" y="203.736"/>
      <point x="372" y="310" type="curve" smooth="yes"/>
      <point x="372" y="469" type="line"/>
      <point x="332" y="469" type="line"/>
      <point x="332" y="315" type="line" smooth="yes"/>
      <point x="332" y="262.574"/>
      <point x="249" y="262.379"/>
      <point x="249" y="315" type="curve" smooth="yes"/>
      <point x="249" y="380" type="line" smooth="yes"/>
      <point x="249" y="516.105"/>
      <point x="30" y="519.997"/>
      <point x="30" y="336" type="curve" smooth="yes"/>
      <point x="30" y="167" type="line" smooth="yes"/>
      <point x="30" y="65"/>
      <point x="89.8105" y="-11"/>
      <point x="185" y="-11" type="curve" smooth="yes"/>
      <point x="244.226" y="-11"/>
      <point x="265.462" y="21.5479"/>
      <point x="262" y="67" type="curve" smooth="yes"/>
      <point x="260.373" y="88.3584"/>
      <point x="255.469" y="121.699"/>
      <point x="255" y="137" type="curve" smooth="yes"/>
      <point x="253.561" y="184.007"/>
      <point x="329.359" y="181.394"/>
      <point x="328" y="137" type="curve" smooth="yes"/>
      <point x="327.531" y="121.699"/>
      <point x="322.627" y="88.3584"/>
      <point x="321" y="67" type="curve" smooth="yes"/>
      <point x="317.538" y="21.5479"/>
      <point x="338.774" y="-11"/>
      <point x="398" y="-11" type="curve" smooth="yes"/>
      <point x="493.189" y="-11"/>
      <point x="553" y="65"/>
      <point x="553" y="167" type="curve" smooth="yes"/>
    </contour>
  </outline>
</glyph>
<glyph name="si_Ra" format="1">
  <advance width="515"/>
  <unicode hex="0DBB"/>
  <outline>
    <contour>
      <point x="30" y="235" type="curve" smooth="yes"/>
      <point x="30" y="427" type="line" smooth="yes"/>
      <point x="30" y="478"/>
      <point x="31" y="559.142"/>
      <point x="123" y="634.002" type="curve" smooth="yes"/>
      <point x="318" y="793" type="line"/>
      <point x="369" y="780" type="line"/>
      <point x="147" y="599" type="line" smooth="yes"/>
      <point x="72" y="539"/>
      <point x="70" y="487"/>
      <point x="70" y="420" type="curve" smooth="yes"/>
      <point x="70" y="235" type="line" smooth="yes"/>
      <point x="70" y="94"/>
      <point x="134.222" y="34"/>
      <point x="234" y="34" type="curve"/>
      <point x="234" y="-6" type="line"/>
      <point x="131.578" y="-6"/>
      <point x="30" y="51.1748"/>
    </contour>
    <contour>
      <point x="139.926" y="524" type="line"/>
      <point x="181" y="564" type="line"/>
      <point x="335" y="563.981" type="line"/>
      <point x="467.509" y="563.953"/>
      <point x="485" y="504.189"/>
      <point x="485" y="381" type="curve" smooth="yes"/>
      <point x="485" y="235" type="line" smooth="yes"/>
      <point x="485" y="42.8447"/>
      <point x="402.532" y="-5"/>
      <point x="290" y="-5" type="curve"/>
      <point x="290" y="35" type="line"/>
      <point x="400.586" y="35"/>
      <point x="445" y="102.591"/>
      <point x="445" y="235" type="curve" smooth="yes"/>
      <point x="445" y="380" type="line" smooth="yes"/>
      <point x="445" y="513.865"/>
      <point x="405.742" y="524"/>
      <point x="334" y="524" type="curve" smooth="yes"/>
      <point x="140" y="524" type="line"/>
    </contour>
  </outline>
</glyph>
<glyph name="si_La" format="1">
  <advance width="606"/>
  <unicode hex="0DBD"/>
  <outline>
    <contour>
      <point x="72.8047" y="75.5" type="curve" smooth="yes"/>
      <point x="72.8047" y="325.5" type="line" smooth="yes"/>
      <point x="73.1318" y="473.147"/>
      <point x="160.614" y="530"/>
      <point x="270" y="530" type="curve"/>
      <point x="270" y="570" type="line"/>
      <point x="163.82" y="570"/>
      <point x="30" y="526.216"/>
      <point x="30" y="325.5" type="curve" smooth="yes"/>
      <point x="30" y="75.5" type="line" smooth="yes"/>
      <point x="30" y="-125.216"/>
      <point x="163.82" y="-169"/>
      <point x="270" y="-169" type="curve"/>
      <point x="270" y="-129" type="line"/>
      <point x="160.614" y="-129"/>
      <point x="73.1318" y="-72.1475"/>
    </contour>
    <contour>
      <point x="330" y="-129.1" type="curve"/>
      <point x="330" y="-169.1" type="line"/>
      <point x="427.035" y="-169.1"/>
      <point x="519.201" y="-137.797"/>
      <point x="563" y="-10.875" type="curve"/>
      <point x="524" y="0" type="line"/>
      <point x="490.998" y="-90.0127"/>
      <point x="428.963" y="-129.1"/>
    </contour>
    <contour>
      <point x="203" y="290.5" type="line"/>
      <point x="203" y="330.5" type="line"/>
      <point x="393" y="330.5" type="line"/>
      <point x="393" y="290.5" type="line"/>
    </contour>
    <contour>
      <point x="276" y="234.5" type="curve" smooth="yes"/>
      <point x="276" y="234.5"/>
      <point x="276" y="292.52"/>
      <point x="276" y="299.5" type="curve"/>
      <point x="319" y="299.5" type="line"/>
      <point x="319" y="234.5" type="line" smooth="yes"/>
      <point x="319" y="102.019"/>
      <point x="533.546" y="102.091"/>
      <point x="534" y="262.5" type="curve" smooth="yes"/>
      <point x="534.195" y="335.5" type="line" smooth="yes"/>
      <point x="533.856" y="493.147"/>
      <point x="443.391" y="530"/>
      <point x="330" y="530" type="curve"/>
      <point x="330" y="570" type="line"/>
      <point x="438.902" y="570"/>
      <point x="576" y="546.216"/>
      <point x="576" y="335.5" type="curve" smooth="yes"/>
      <point x="576" y="262.5" type="line" smooth="yes"/>
      <point x="576" y="40.6396"/>
      <point x="276" y="46.4551"/>
    </contour>
  </outline>
</glyph>
<glyph name="si_Ssa" format="1">
  <advance width="620"/>
  <unicode hex="0DC2"/>
  <outline>
    <contour>
      <point x="279" y="-6" type="line" smooth="yes"/>
      <point x="102" y="-6"/>
      <point x="30" y="49.7461"/>
      <point x="30" y="192.5" type="curve"/>
      <point x="70" y="192.5" type="line"/>
      <point x="70" y="61.3008"/>
      <point x="146" y="34"/>
      <point x="279" y="34" type="curve" smooth="yes"/>
      <point x="341" y="34" type="line" smooth="yes"/>
      <point x="474" y="34"/>
      <point x="550" y="62.3008"/>
      <point x="550" y="192.5" type="curve"/>
      <point x="590" y="192.5" type="line"/>
      <point x="590" y="49.7461"/>
      <point x="518" y="-6"/>
      <point x="341" y="-6" type="curve" smooth="yes"/>
    </contour>
    <contour>
      <point x="30" y="242" type="line"/>
      <point x="30" y="364"/>
      <point x="97" y="402"/>
      <point x="194" y="402" type="curve" smooth="yes"/>
      <point x="419" y="402" type="line" smooth="yes"/>
      <point x="527" y="402"/>
      <point x="590" y="368"/>
      <point x="590" y="242" type="curve"/>
      <point x="550" y="242" type="line"/>
      <point x="550" y="320"/>
      <point x="530" y="362"/>
      <point x="421" y="362" type="curve" smooth="yes"/>
      <point x="195" y="362" type="line" smooth="yes"/>
      <point x="85.7383" y="362"/>
      <point x="70.001" y="308.104"/>
      <point x="70" y="242" type="curve"/>
    </contour>
    <contour>
      <point x="31" y="477" type="line"/>
      <point x="56.707" y="541.871"/>
      <point x="117.119" y="564"/>
      <point x="181" y="564" type="curve" smooth="yes"/>
      <point x="217.661" y="564"/>
      <point x="278.651" y="551.303"/>
      <point x="310" y="497.885" type="curve"/>
      <point x="341.349" y="551.303"/>
      <point x="402.339" y="564"/>
      <point x="439" y="564" type="curve" smooth="yes"/>
      <point x="502.881" y="564"/>
      <point x="563.293" y="541.871"/>
      <point x="589" y="477" type="curve"/>
      <point x="550" y="464" type="line"/>
      <point x="536.527" y="500.315"/>
      <point x="501.579" y="524"/>
      <point x="439" y="524" type="curve" smooth="yes"/>
      <point x="360.793" y="524"/>
      <point x="330" y="469"/>
      <point x="330" y="415" type="curve" smooth="yes"/>
      <point x="330" y="379" type="line"/>
      <point x="290" y="379" type="line"/>
      <point x="290" y="415" type="line" smooth="yes"/>
      <point x="290" y="469"/>
      <point x="259.207" y="524"/>
      <point x="181" y="524" type="curve" smooth="yes"/>
      <point x="118.421" y="524"/>
      <point x="83.4727" y="500.315"/>
      <point x="70" y="464" type="curve"/>
    </contour>
    <contour>
      <point x="282" y="168" type="line"/>
      <point x="282" y="257.976"/>
      <point x="340" y="337"/>
      <point x="444" y="367" type="curve"/>
      <point x="510" y="367" type="line"/>
      <point x="402" y="318"/>
      <point x="322" y="276.977"/>
      <point x="322" y="168" type="curve"/>
    </contour>
  </outline>
</glyph>
<glyph name="si_Sa" format="1">
  <advance width="677"/>
  <unicode hex="0DC3"/>
  <outline>
    <contour>
      <point x="84" y="477" type="curve"/>
      <point x="123" y="464" type="line"/>
      <point x="136.473" y="500.315"/>
      <point x="171.421" y="524"/>
      <point x="234" y="524" type="curve" smooth="yes"/>
      <point x="312.207" y="524"/>
      <point x="343" y="469"/>
      <point x="343" y="415" type="curve" smooth="yes"/>
      <point x="343" y="379" type="line"/>
      <point x="383" y="379" type="line"/>
      <point x="383" y="415" type="line" smooth="yes"/>
      <point x="383" y="469"/>
      <point x="413.793" y="524"/>
      <point x="492" y="524" type="curve" smooth="yes"/>
      <point x="554.579" y="524"/>
      <point x="589.527" y="500.315"/>
      <point x="603" y="464" type="curve"/>
      <point x="642" y="477" type="line"/>
      <point x="616.293" y="541.871"/>
      <point x="555.881" y="564"/>
      <point x="492" y="564" type="curve" smooth="yes"/>
      <point x="455.339" y="564"/>
      <point x="394.349" y="551.303"/>
      <point x="363" y="497.885" type="curve"/>
      <point x="331.651" y="551.303"/>
      <point x="270.661" y="564"/>
      <point x="234" y="564" type="curve" smooth="yes"/>
      <point x="170.119" y="564"/>
      <point x="109.707" y="541.871"/>
    </contour>
    <contour>
      <point x="30" y="362" type="line"/>
      <point x="105" y="362" type="line"/>
      <point x="83.819" y="350.654"/>
      <point x="77" y="319.714"/>
      <point x="77" y="288" type="curve" smooth="yes"/>
      <point x="77" y="241" type="line"/>
      <point x="117" y="241" type="line"/>
      <point x="117" y="288" type="line" smooth="yes"/>
      <point x="117" y="354.575"/>
      <point x="155.631" y="362"/>
      <point x="192" y="362" type="curve"/>
      <point x="532" y="362" type="line"/>
      <point x="568.369" y="362"/>
      <point x="607" y="354.575"/>
      <point x="607" y="288" type="curve" smooth="yes"/>
      <point x="607" y="241" type="line"/>
      <point x="647" y="241" type="line"/>
      <point x="647" y="288" type="line" smooth="yes"/>
      <point x="647" y="336.857"/>
      <point x="641.795" y="402"/>
      <point x="531" y="402" type="curve"/>
      <point x="30" y="402" type="line"/>
    </contour>
    <contour>
      <point x="77" y="140" type="line" smooth="yes"/>
      <point x="77" y="55.5283"/>
      <point x="144.673" y="0"/>
      <point x="229" y="0" type="curve" smooth="yes"/>
      <point x="286.396" y="0"/>
      <point x="335.803" y="25.1245"/>
      <point x="362" y="67.2824" type="curve"/>
      <point x="388.197" y="25.1245"/>
      <point x="437.604" y="-1.06581e-14"/>
      <point x="495" y="0" type="curve" smooth="yes"/>
      <point x="579.327" y="0"/>
      <point x="647" y="55.528"/>
      <point x="647" y="140" type="curve" smooth="yes"/>
      <point x="647" y="192" type="line"/>
      <point x="607" y="192" type="line"/>
      <point x="607" y="141" type="line" smooth="yes"/>
      <point x="607" y="74.3121"/>
      <point x="558.263" y="40"/>
      <point x="495" y="40" type="curve" smooth="yes"/>
      <point x="430.737" y="40"/>
      <point x="382" y="74.3121"/>
      <point x="382" y="141" type="curve" smooth="yes"/>
      <point x="382" y="192" type="line"/>
      <point x="342" y="192" type="line"/>
      <point x="342" y="141" type="line" smooth="yes"/>
      <point x="342" y="74.3125"/>
      <point x="293.263" y="40"/>
      <point x="229" y="40" type="curve" smooth="yes"/>
      <point x="165.737" y="40"/>
      <point x="117" y="74.3125"/>
      <point x="117" y="141" type="curve" smooth="yes"/>
      <point x="117" y="192" type="line"/>
      <point x="77" y="192" type="line"/>
    </contour>
  </outline>
</glyph>
<glyph name="si_Ha" format="1">
  <advance width="703"/>
  <unicode hex="0DC4"/>
  <outline>
    <contour>
      <point x="293" y="311" type="line"/>
      <point x="293" y="361" type="line" smooth="yes"/>
      <point x="293" y="443"/>
      <point x="324.192" y="524"/>
      <point x="431" y="524" type="curve"/>
      <point x="431" y="564" type="line"/>
      <point x="309.062" y="564"/>
      <point x="252" y="478.007"/>
      <point x="252" y="360" type="curve" smooth="yes"/>
      <point x="252" y="271" type="line"/>
      <point x="306" y="271" type="line" smooth="yes"/>
      <point x="391.498" y="271"/>
      <point x="399.126" y="199.586"/>
      <point x="399.126" y="152.124" type="curve" smooth="yes"/>
      <point x="399.126" y="66.249"/>
      <point x="351.817" y="32"/>
      <point x="272" y="32" type="curve"/>
      <point x="272" y="-8" type="line"/>
      <point x="371.866" y="-8"/>
      <point x="439" y="42.873"/>
      <point x="439" y="145" type="curve" smooth="yes"/>
      <point x="439" y="164" type="line" smooth="yes"/>
      <point x="439" y="233"/>
      <point x="408.232" y="311"/>
      <point x="306" y="311" type="curve" smooth="yes"/>
    </contour>
    <contour>
      <point x="633" y="216" type="line" smooth="yes"/>
      <point x="633" y="98.1426"/>
      <point x="579.112" y="32"/>
      <point x="487" y="32" type="curve"/>
      <point x="487" y="-8" type="line"/>
      <point x="606.296" y="-8"/>
      <point x="672.58" y="79.7373"/>
      <point x="672.921" y="216" type="curve" smooth="yes"/>
      <point x="672.921" y="340" type="line" smooth="yes"/>
      <point x="672.58" y="476.263"/>
      <point x="606.296" y="564"/>
      <point x="487" y="564" type="curve"/>
      <point x="487" y="524" type="line"/>
      <point x="582.112" y="524"/>
      <point x="633" y="457.857"/>
      <point x="633" y="340" type="curve" smooth="yes"/>
    </contour>
    <contour>
      <point x="70" y="196" type="curve" smooth="yes"/>
      <point x="70" y="250" type="line" smooth="yes"/>
      <point x="70" y="357.857"/>
      <point x="120.888" y="394"/>
      <point x="216" y="394" type="curve" smooth="yes"/>
      <point x="295" y="394" type="line"/>
      <point x="294.932" y="439" type="line" smooth="yes"/>
      <point x="295.004" y="523.08"/>
      <point x="225.887" y="563.996"/>
      <point x="158.724" y="563.996" type="curve" smooth="yes"/>
      <point x="104.095" y="563.996"/>
      <point x="50.7598" y="536.927"/>
      <point x="37" y="484" type="curve"/>
      <point x="76" y="474" type="line"/>
      <point x="89.9904" y="507.033"/>
      <point x="123.821" y="523.116"/>
      <point x="158.351" y="523.116" type="curve" smooth="yes"/>
      <point x="205.87" y="523.116"/>
      <point x="254.714" y="492.658"/>
      <point x="255" y="434" type="curve"/>
      <point x="215" y="433.95" type="line"/>
      <point x="85" y="434"/>
      <point x="30.0791" y="374"/>
      <point x="30.0791" y="250" type="curve" smooth="yes"/>
      <point x="30.0791" y="196" type="line" smooth="yes"/>
      <point x="30.4199" y="79.7373"/>
      <point x="96.7041" y="-8"/>
      <point x="216" y="-8" type="curve"/>
      <point x="216" y="32" type="line"/>
      <point x="123.888" y="32"/>
      <point x="70" y="98.1426"/>
    </contour>
  </outline>
</glyph>
<glyph name="si_Lla" format="1">
  <advance width="609"/>
  <unicode hex="0DC5"/>
  <outline>
    <contour>
      <point x="324.758" y="515.948" type="curve"/>
      <point x="347.434" y="551.1"/>
      <point x="388.215" y="564"/>
      <point x="418" y="564" type="curve" smooth="yes"/>
      <point x="496.379" y="564"/>
      <point x="540.125" y="519.284"/>
      <point x="540.125" y="437" type="curve"/>
      <point x="499.854" y="437" type="line"/>
      <point x="499.85" y="495.545"/>
      <point x="467.64" y="522.298"/>
      <point x="421.258" y="522.298" type="curve" smooth="yes"/>
      <point x="379.687" y="522.298"/>
      <point x="345.15" y="492"/>
      <point x="345.075" y="436.376" type="curve"/>
      <point x="305.075" y="436.376" type="line"/>
      <point x="305" y="492"/>
      <point x="269.829" y="522.298"/>
      <point x="228.258" y="522.298" type="curve" smooth="yes"/>
      <point x="177.876" y="522.298"/>
      <point x="148.301" y="495.545"/>
      <point x="148.296" y="425" type="curve"/>
      <point x="108" y="415" type="line"/>
      <point x="108.025" y="437" type="line"/>
      <point x="108.025" y="519.284"/>
      <point x="156.137" y="564"/>
      <point x="231.516" y="564" type="curve" smooth="yes"/>
      <point x="261.301" y="564"/>
      <point x="302.082" y="551.1"/>
    </contour>
    <contour>
      <point x="344" y="-130" type="curve"/>
      <point x="344" y="-170" type="line"/>
      <point x="443.057" y="-170"/>
      <point x="559.601" y="-140.143"/>
      <point x="589" y="-0.875" type="curve"/>
      <point x="549" y="10" type="line"/>
      <point x="523" y="-102"/>
      <point x="436.158" y="-130"/>
    </contour>
    <contour>
      <point x="115" y="323" type="curve"/>
      <point x="156" y="349.2" type="line"/>
      <point x="156" y="302.128"/>
      <point x="160.198" y="139.11"/>
      <point x="315" y="139.11" type="curve" smooth="yes"/>
      <point x="367" y="139.11" type="line" smooth="yes"/>
      <point x="432.105" y="139.11"/>
      <point x="478.389" y="167.704"/>
      <point x="499" y="216" type="curve"/>
      <point x="540" y="205" type="line"/>
      <point x="515" y="146"/>
      <point x="462.733" y="99.0869"/>
      <point x="367" y="99" type="curve" smooth="yes"/>
      <point x="315" y="99.1104" type="line" smooth="yes"/>
      <point x="107.263" y="99.1104"/>
      <point x="115" y="323"/>
    </contour>
    <contour>
      <point x="30" y="77" type="curve" smooth="yes"/>
      <point x="30" y="194" type="line" smooth="yes"/>
      <point x="30" y="322.197"/>
      <point x="131.979" y="388"/>
      <point x="215" y="388" type="curve" smooth="yes"/>
      <point x="540" y="388" type="line"/>
      <point x="540" y="348" type="line"/>
      <point x="218" y="348" type="line" smooth="yes"/>
      <point x="149.378" y="348"/>
      <point x="72.002" y="296.882"/>
      <point x="71.9961" y="195" type="curve" smooth="yes"/>
      <point x="72" y="77" type="line" smooth="yes"/>
      <point x="72" y="-84.5693"/>
      <point x="184.412" y="-129"/>
      <point x="283" y="-129" type="curve" smooth="yes"/>
      <point x="283" y="-170" type="line" smooth="yes"/>
      <point x="131.835" y="-170"/>
      <point x="30.1154" y="-89.9693"/>
    </contour>
  </outline>
</glyph>
<glyph name="si_Fa" format="1">
  <advance width="650"/>
  <unicode hex="0DC6"/>
  <outline>
    <contour>
      <point x="30" y="242" type="line"/>
      <point x="30" y="424" type="line" smooth="yes"/>
      <point x="30" y="508.469"/>
      <point x="97.6729" y="564"/>
      <point x="182" y="564" type="curve" smooth="yes"/>
      <point x="239.396" y="564"/>
      <point x="288.803" y="538.875"/>
      <point x="315" y="496.718" type="curve"/>
      <point x="341.197" y="538.875"/>
      <point x="390.604" y="564"/>
      <point x="448" y="564" type="curve" smooth="yes"/>
      <point x="532.327" y="564"/>
      <point x="600" y="508.469"/>
      <point x="600" y="424" type="curve" smooth="yes"/>
      <point x="600" y="242" type="line"/>
      <point x="560" y="242" type="line"/>
      <point x="560" y="423" type="line" smooth="yes"/>
      <point x="560" y="489.686"/>
      <point x="511.263" y="524"/>
      <point x="448" y="524" type="curve" smooth="yes"/>
      <point x="383.737" y="524"/>
      <point x="335" y="489.686"/>
      <point x="335" y="423" type="curve" smooth="yes"/>
      <point x="335" y="242" type="line"/>
      <point x="295" y="242" type="line"/>
      <point x="295" y="423" type="line" smooth="yes"/>
      <point x="295" y="489.686"/>
      <point x="246.263" y="524"/>
      <point x="182" y="524" type="curve" smooth="yes"/>
      <point x="118.737" y="524"/>
      <point x="70" y="489.686"/>
      <point x="70" y="423" type="curve" smooth="yes"/>
      <point x="70" y="242" type="line"/>
    </contour>
    <contour>
      <point x="30.0791" y="192" type="curve" smooth="yes"/>
      <point x="70" y="192" type="line" smooth="yes"/>
      <point x="70" y="127.959"/>
      <point x="102.888" y="40"/>
      <point x="225" y="40" type="curve"/>
      <point x="225" y="0" type="line"/>
      <point x="85.7041" y="0"/>
      <point x="30" y="92"/>
    </contour>
    <contour>
      <point x="405" y="0" type="line"/>
      <point x="544.296" y="0"/>
      <point x="600" y="92"/>
      <point x="599.921" y="192" type="curve" smooth="yes"/>
      <point x="560" y="192" type="line" smooth="yes"/>
      <point x="560" y="127.959"/>
      <point x="527.112" y="40"/>
      <point x="405" y="40" type="curve"/>
    </contour>
  </outline>
</glyph>
<glyph name="si_MatraAe" format="1">
  <advance width="257"/>
  <unicode hex="0DD0"/>
  <outline>
    <contour>
      <point x="196.19" y="-0.00292969" type="curve" smooth="yes"/>
      <point x="99.3652" y="-0.00292969"/>
      <point x="30" y="56"/>
      <point x="30" y="183" type="curve" smooth="yes"/>
      <point x="30" y="309" type="line" smooth="yes"/>
      <point x="30" y="407.58"/>
      <point x="48" y="434"/>
      <point x="167" y="534" type="curve"/>
      <point x="30" y="534" type="line"/>
      <point x="30" y="574" type="line"/>
      <point x="227" y="574" type="line"/>
      <point x="227" y="534" type="line"/>
      <point x="74" y="408"/>
      <point x="70" y="387"/>
      <point x="70" y="309" type="curve" smooth="yes"/>
      <point x="70" y="183" type="line" smooth="yes"/>
      <point x="70" y="134"/>
      <point x="72.8037" y="40"/>
      <point x="195" y="40" type="curve" smooth="yes"/>
      <point x="203.854" y="40"/>
      <point x="222.681" y="40"/>
      <point x="227" y="40" type="curve"/>
      <point x="227" y="0" type="line"/>
      <point x="219.533" y="-0.00195312"/>
      <point x="203.229" y="-0.00292969"/>
    </contour>
  </outline>
</glyph>
<glyph name="si_MatraI" format="1">
  <advance width="-1"/>
  <unicode hex="0DD2"/>
  <outline>
    <contour>
      <point x="-584" y="602" type="line"/>
      <point x="-584" y="630" type="line"/>
      <point x="-584" y="723"/>
      <point x="-508.259" y="789"/>
      <point x="-408" y="789" type="curve"/>
      <point x="-237" y="789" type="line"/>
      <point x="-136.741" y="789"/>
      <point x="-61" y="723"/>
      <point x="-61" y="630" type="curve"/>
      <point x="-61" y="602" type="line"/>
      <point x="-101" y="602" type="line"/>
      <point x="-101" y="654.112"/>
      <point x="-110.143" y="749"/>
      <point x="-253" y="749" type="curve"/>
      <point x="-392" y="749" type="line"/>
      <point x="-534.857" y="749"/>
      <point x="-544" y="654.112"/>
      <point x="-544" y="602" type="curve"/>
    </contour>
  </outline>
</glyph>
<glyph name="si_MatraIi" format="1">
  <advance width="0"/>
  <unicode hex="0DD3"/>
  <outline>
    <contour>
      <point x="-184" y="774" type="line"/>
      <point x="-202" y="778"/>
      <point x="-225.068" y="779"/>
      <point x="-239" y="779" type="curve" smooth="yes"/>
      <point x="-388" y="779" type="line" smooth="yes"/>
      <point x="-530.857" y="779"/>
      <point x="-540" y="654.112"/>
      <point x="-540" y="602" type="curve"/>
      <point x="-580" y="602" type="line"/>
      <point x="-580" y="630" type="line" smooth="yes"/>
      <point x="-580" y="723"/>
      <point x="-504.259" y="819"/>
      <point x="-404" y="819" type="curve" smooth="yes"/>
      <point x="-223" y="819" type="line" smooth="yes"/>
      <point x="-137.778" y="819"/>
      <point x="-60.8262" y="789.785"/>
      <point x="-60.7998" y="693.8" type="curve" smooth="yes"/>
      <point x="-60.7998" y="643.88"/>
      <point x="-101.12" y="603.56"/>
      <point x="-151.04" y="603.56" type="curve" smooth="yes"/>
      <point x="-200.96" y="603.56"/>
      <point x="-241.28" y="643.88"/>
      <point x="-241.28" y="693.8" type="curve" smooth="yes"/>
      <point x="-241.28" y="729.697"/>
      <point x="-220" y="763"/>
      <point x="-186" y="777" type="curve"/>
    </contour>
  </outline>
</glyph>
<glyph name="si_MatraU" format="1">
  <advance width="1"/>
  <unicode hex="0DD4"/>
  <outline>
    <contour>
      <point x="-100" y="133" type="line"/>
      <point x="-60" y="133" type="line"/>
      <point x="-60" y="-205" type="line"/>
      <point x="-100" y="-205" type="line"/>
    </contour>
    <contour>
      <point x="-270" y="-165" type="line"/>
      <point x="-90" y="-165" type="line"/>
      <point x="-90" y="-205" type="line"/>
      <point x="-270" y="-205" type="line"/>
    </contour>
    <contour>
      <point x="-508" y="-165" type="line"/>
      <point x="-326" y="-165" type="line"/>
      <point x="-326" y="-205" type="line"/>
      <point x="-508" y="-205" type="line"/>
    </contour>
  </outline>
</glyph>
<glyph name="si_MatraUu" format="1">
  <advance width="516"/>
  <unicode hex="0DD6"/>
  <outline>
    <contour>
      <point x="30" y="-122" type="line"/>
      <point x="61.1204" y="-149.18"/>
      <point x="84.9225" y="-158.24"/>
      <point x="105.573" y="-158.24" type="curve" smooth="yes"/>
      <point x="146.875" y="-158.24"/>
      <point x="175.572" y="-122"/>
      <point x="225" y="-122" type="curve"/>
      <point x="225" y="-164" type="line"/>
      <point x="177.079" y="-164"/>
      <point x="146.759" y="-199.417"/>
      <point x="104.955" y="-199.417" type="curve" smooth="yes"/>
      <point x="84.0527" y="-199.417"/>
      <point x="60.2796" y="-190.563"/>
      <point x="30" y="-164" type="curve"/>
    </contour>
    <contour>
      <point x="446" y="-205" type="line"/>
      <point x="446" y="123" type="line"/>
      <point x="486" y="123" type="line"/>
      <point x="486" y="-205" type="line"/>
    </contour>
    <contour>
      <point x="281" y="-122" type="line"/>
      <point x="290.34" y="-122"/>
      <point x="356.558" y="-116.919"/>
      <point x="446" y="-161" type="curve"/>
      <point x="446" y="-205" type="line"/>
      <point x="358.247" y="-159.679"/>
      <point x="296.793" y="-164"/>
      <point x="281" y="-164" type="curve"/>
    </contour>
  </outline>
</glyph>
<glyph name="si_MatraE" format="1">
  <advance width="457"/>
  <unicode hex="0DD9"/>
  <outline>
    <contour>
      <point x="249.334" y="524" type="curve"/>
      <point x="249.334" y="564" type="line"/>
      <point x="270.405" y="564" type="line" smooth="yes"/>
      <point x="367.099" y="564"/>
      <point x="416.702" y="487.265"/>
      <point x="423.658" y="430.848" type="curve"/>
      <point x="383.409" y="421" type="line"/>
      <point x="379.858" y="442.834"/>
      <point x="368.01" y="524"/>
    </contour>
    <contour>
      <point x="233" y="314.2" type="line"/>
      <point x="233" y="354.2" type="line"/>
      <point x="320.071" y="354.2" type="line" smooth="yes"/>
      <point x="379" y="354.2"/>
      <point x="427" y="335"/>
      <point x="427" y="255" type="curve" smooth="yes"/>
      <point x="427" y="157" type="line" smooth="yes"/>
      <point x="427" y="69.7471"/>
      <point x="383.668" y="-5"/>
      <point x="278.405" y="-5" type="curve" smooth="yes"/>
      <point x="257.334" y="-5" type="line"/>
      <point x="257.334" y="35" type="line"/>
      <point x="350.232" y="35"/>
      <point x="387" y="80"/>
      <point x="387" y="154" type="curve" smooth="yes"/>
      <point x="387.013" y="253.472" type="line" smooth="yes"/>
      <point x="387.013" y="311.458"/>
      <point x="347.32" y="314.2"/>
      <point x="320" y="314.2" type="curve" smooth="yes"/>
    </contour>
    <contour>
      <point x="30" y="198" type="curve" smooth="yes"/>
      <point x="30" y="371" type="line" smooth="yes"/>
      <point x="30" y="449.253"/>
      <point x="63" y="564"/>
      <point x="208.263" y="564" type="curve" smooth="yes"/>
      <point x="249.334" y="564" type="line"/>
      <point x="249.334" y="524" type="line"/>
      <point x="209.334" y="524" type="line"/>
      <point x="99.7793" y="524"/>
      <point x="70" y="450.398"/>
      <point x="70" y="371" type="curve" smooth="yes"/>
      <point x="70" y="198" type="line" smooth="yes"/>
      <point x="70" y="98.6016"/>
      <point x="100.779" y="35"/>
      <point x="209.334" y="35" type="curve"/>
      <point x="209.334" y="-5" type="line"/>
      <point x="188.263" y="-5" type="line" smooth="yes"/>
      <point x="43" y="-5"/>
      <point x="30" y="139.747"/>
    </contour>
  </outline>
</glyph>
<glyph name="si_MatraLs" format="1">
  <advance width="380"/>
  <unicode hex="0DDF"/>
  <outline>
    <contour>
      <point x="180.997" y="-7.94722" type="curve" smooth="yes"/>
      <point x="95.6657" y="-7.94722"/>
      <point x="10" y="44.7823"/>
      <point x="10" y="149" type="curve" smooth="yes"/>
      <point x="10" y="202" type="line"/>
      <point x="50" y="202" type="line"/>
      <point x="50" y="148" type="line"/>
      <point x="50" y="74.5364"/>
      <point x="116.264" y="36.6962"/>
      <point x="181.886" y="36.6962" type="curve" smooth="yes"/>
      <point x="246.251" y="36.6962"/>
      <point x="310" y="73.1002"/>
      <point x="310" y="148" type="curve"/>
      <point x="310" y="466" type="line"/>
      <point x="310" y="503.786"/>
      <point x="282.536" y="522.643"/>
      <point x="255.053" y="522.643" type="curve" smooth="yes"/>
      <point x="227.536" y="522.643"/>
      <point x="200" y="503.737"/>
      <point x="200" y="466" type="curve"/>
      <point x="200" y="414" type="line"/>
      <point x="200" y="346.518"/>
      <point x="152.403" y="312.674"/>
      <point x="104.855" y="312.674" type="curve" smooth="yes"/>
      <point x="57.4032" y="312.674"/>
      <point x="10" y="346.381"/>
      <point x="10" y="414" type="curve"/>
      <point x="10" y="564" type="line"/>
      <point x="50" y="564" type="line"/>
      <point x="50" y="413" type="line"/>
      <point x="50" y="375.263"/>
      <point x="77.5356" y="356.357"/>
      <point x="105.053" y="356.357" type="curve" smooth="yes"/>
      <point x="132.536" y="356.357"/>
      <point x="160" y="375.214"/>
      <point x="160" y="413" type="curve"/>
      <point x="160" y="465" type="line"/>
      <point x="160" y="532.619"/>
      <point x="207.403" y="566.326"/>
      <point x="254.855" y="566.326" type="curve" smooth="yes"/>
      <point x="302.403" y="566.326"/>
      <point x="350" y="532.482"/>
      <point x="350" y="465" type="curve"/>
      <point x="350" y="149" type="line"/>
      <point x="350" y="43.9644"/>
      <point x="265.663" y="-7.94722"/>
    </contour>
  </outline>
</glyph>
<glyph name="si_kundaliya" format="1">
  <advance width="1465"/>
  <unicode hex="0DF4"/>
  <outline>
    <contour>
      <point x="613" y="453" type="curve"/>
      <point x="650" y="434" type="line"/>
      <point x="468.6" y="80"/>
      <point x="440" y="0"/>
      <point x="270" y="0" type="curve"/>
      <point x="150" y="0" type="line"/>
      <point x="150" y="40" type="line"/>
      <point x="270" y="40" type="line"/>
      <point x="406.077" y="40.1221"/>
      <point x="433" y="93.8008"/>
    </contour>
    <contour>
      <point x="721" y="456" type="line"/>
      <point x="758" y="437" type="line"/>
      <point x="543" y="0" type="line"/>
      <point x="505.2" y="19.8008" type="line"/>
    </contour>
    <contour>
      <point x="780.8" y="360.6" type="line"/>
      <point x="817.8" y="341.6" type="line"/>
      <point x="649" y="0" type="line"/>
      <point x="611.199" y="19.8008" type="line"/>
    </contour>
    <contour>
      <point x="757" y="0" type="line"/>
      <point x="720.2" y="20.7998" type="line"/>
      <point x="842" y="270" type="line"/>
      <point x="992.2" y="153.601"/>
      <point x="1117.2" y="40"/>
      <point x="1315" y="40" type="curve"/>
      <point x="1315" y="0" type="line"/>
      <point x="1135.53" y="0"/>
      <point x="1003.01" y="94.7334"/>
      <point x="859.2" y="209.601" type="curve"/>
    </contour>
  </outline>
</glyph>
<glyph name="si_Ya.post.MatraI" format="1">
  <advance width="498"/>
  <outline>
    <contour>
      <point x="27" y="632" type="line"/>
      <point x="27" y="660" type="line"/>
      <point x="27" y="753"/>
      <point x="102.741" y="819"/>
      <point x="203" y="819" type="curve"/>
      <point x="282" y="819" type="line"/>
      <point x="382.259" y="819"/>
      <point x="458" y="753"/>
      <point x="458" y="660" type="curve"/>
      <point x="458" y="632" type="line"/>
      <point x="418" y="632" type="line"/>
      <point x="418" y="684.112"/>
      <point x="408.857" y="779"/>
      <point x="266" y="779" type="curve"/>
      <point x="219" y="779" type="line"/>
      <point x="76.1426" y="779"/>
      <point x="67" y="684.112"/>
      <point x="67" y="632" type="curve"/>
    </contour>
    <component base="si_Ya.post"/>
  </outline>
</glyph>
<glyph name="si_B.halant" format="1">
  <advance width="586"/>
  <outline>
    <contour>
      <point x="30" y="177" type="curve" smooth="yes"/>
      <point x="30" y="284" type="line" smooth="yes"/>
      <point x="30" y="389.836"/>
      <point x="100.241" y="443.319"/>
      <point x="170.235" y="443.319" type="curve" smooth="yes"/>
      <point x="239.739" y="443.319"/>
      <point x="309" y="390.582"/>
      <point x="309" y="284" type="curve" smooth="yes"/>
      <point x="309" y="141" type="line" smooth="yes"/>
      <point x="309" y="74.4023"/>
      <point x="360.817" y="40.54"/>
      <point x="412.348" y="40.54" type="curve" smooth="yes"/>
      <point x="463.314" y="40.54"/>
      <point x="514" y="73.6631"/>
      <point x="514" y="141" type="curve"/>
      <point x="514" y="264" type="line"/>
      <point x="556" y="264" type="line"/>
      <point x="556" y="144" type="line"/>
      <point x="556" y="45.5029"/>
      <point x="483.061" y="-3.95117"/>
      <point x="410.596" y="-3.95117" type="curve" smooth="yes"/>
      <point x="339.067" y="-3.95117"/>
      <point x="268" y="44.2344"/>
      <point x="268" y="141" type="curve" smooth="yes"/>
      <point x="268" y="284" type="line" smooth="yes"/>
      <point x="268" y="359.832"/>
      <point x="218.751" y="397.785"/>
      <point x="169.502" y="397.785" type="curve" smooth="yes"/>
      <point x="120.284" y="397.785"/>
      <point x="71.0654" y="359.881"/>
      <point x="71" y="284" type="curve" smooth="yes"/>
      <point x="70.917" y="177" type="line" smooth="yes"/>
      <point x="71" y="65"/>
      <point x="123.457" y="40"/>
      <point x="211" y="40" type="curve"/>
      <point x="211" y="0" type="line"/>
      <point x="91.1055" y="0"/>
      <point x="30" y="45"/>
    </contour>
    <contour>
      <point x="41.333" y="612" type="line"/>
      <point x="41.333" y="652" type="line"/>
      <point x="71.8223" y="652" type="line"/>
      <point x="57.8994" y="670.11"/>
      <point x="50.9775" y="692.449"/>
      <point x="50.9775" y="714.83" type="curve" smooth="yes"/>
      <point x="50.9775" y="766.802"/>
      <point x="88.3086" y="819"/>
      <point x="162" y="819" type="curve" smooth="yes"/>
      <point x="256" y="819" type="line"/>
      <point x="256" y="779" type="line"/>
      <point x="152" y="779" type="line" smooth="yes"/>
      <point x="110.071" y="779"/>
      <point x="88.8809" y="747.025"/>
      <point x="88.8809" y="715.163" type="curve" smooth="yes"/>
      <point x="88.8809" y="683.526"/>
      <point x="109.774" y="652"/>
      <point x="152" y="652" type="curve" smooth="yes"/>
      <point x="331" y="652" type="line"/>
      <point x="331" y="612" type="line"/>
    </contour>
    <contour>
      <point x="514" y="264" type="line" smooth="yes"/>
      <point x="514" y="411" type="line" smooth="yes"/>
      <point x="514" y="558.607"/>
      <point x="444.056" y="612"/>
      <point x="331" y="612" type="curve"/>
      <point x="331" y="652" type="line"/>
      <point x="490.37" y="652"/>
      <point x="556" y="567.922"/>
      <point x="556" y="411" type="curve" smooth="yes"/>
      <point x="556" y="411"/>
      <point x="556" y="264"/>
      <point x="556" y="264" type="curve" smooth="yes"/>
    </contour>
    <contour>
      <point x="494.333" y="673" type="line"/>
      <point x="494.333" y="770"/>
      <point x="446.333" y="779"/>
      <point x="401" y="779" type="curve" smooth="yes"/>
      <point x="311.5" y="779" type="line"/>
      <point x="311.5" y="819" type="line"/>
      <point x="401" y="819" type="line" smooth="yes"/>
      <point x="479.359" y="819"/>
      <point x="534.333" y="776"/>
      <point x="534.333" y="673" type="curve"/>
    </contour>
  </outline>
</glyph>
<glyph name="si_BIi" format="1">
  <advance width="586"/>
  <outline>
    <contour>
      <point x="163" y="612" type="line" smooth="yes"/>
      <point x="88.6695" y="612"/>
      <point x="51.9774" y="663.304"/>
      <point x="51.9774" y="714.83" type="curve" smooth="yes"/>
      <point x="51.9774" y="766.802"/>
      <point x="89.3087" y="819"/>
      <point x="163" y="819" type="curve" smooth="yes"/>
      <point x="256" y="819" type="line"/>
      <point x="256" y="779" type="line"/>
      <point x="153" y="779" type="line" smooth="yes"/>
      <point x="111.071" y="779"/>
      <point x="89.8813" y="747.025"/>
      <point x="89.8813" y="715.163" type="curve" smooth="yes"/>
      <point x="89.8813" y="683.526"/>
      <point x="110.774" y="652"/>
      <point x="153" y="652" type="curve" smooth="yes"/>
      <point x="331" y="652" type="line"/>
      <point x="331" y="612" type="line"/>
    </contour>
    <contour>
      <point x="457.96" y="603.56" type="curve" smooth="yes"/>
      <point x="408.04" y="603.56"/>
      <point x="367.72" y="643.88"/>
      <point x="367.72" y="693.8" type="curve" smooth="yes"/>
      <point x="367.72" y="729.745"/>
      <point x="388.625" y="760.713"/>
      <point x="418.967" y="775.235" type="curve"/>
      <point x="401.36" y="778.291"/>
      <point x="383.931" y="779"/>
      <point x="370" y="779" type="curve" smooth="yes"/>
      <point x="311.5" y="779" type="line"/>
      <point x="311.5" y="819" type="line"/>
      <point x="386" y="819" type="line" smooth="yes"/>
      <point x="471.222" y="819"/>
      <point x="548.174" y="789.785"/>
      <point x="548.2" y="693.8" type="curve" smooth="yes"/>
      <point x="548.2" y="643.88"/>
      <point x="507.88" y="603.56"/>
    </contour>
    <contour>
      <point x="514" y="264" type="line" smooth="yes"/>
      <point x="514" y="411" type="line" smooth="yes"/>
      <point x="514" y="558.607"/>
      <point x="444.056" y="612"/>
      <point x="331" y="612" type="curve"/>
      <point x="331" y="652" type="line"/>
      <point x="490.37" y="652"/>
      <point x="556" y="567.922"/>
      <point x="556" y="411" type="curve" smooth="yes"/>
      <point x="556" y="411"/>
      <point x="556" y="264"/>
      <point x="556" y="264" type="curve" smooth="yes"/>
    </contour>
    <contour>
      <point x="30" y="177" type="curve" smooth="yes"/>
      <point x="30" y="284" type="line" smooth="yes"/>
      <point x="30" y="389.836"/>
      <point x="100.241" y="443.319"/>
      <point x="170.235" y="443.319" type="curve" smooth="yes"/>
      <point x="239.739" y="443.319"/>
      <point x="309" y="390.582"/>
      <point x="309" y="284" type="curve" smooth="yes"/>
      <point x="309" y="141" type="line" smooth="yes"/>
      <point x="309" y="74.4023"/>
      <point x="360.817" y="40.54"/>
      <point x="412.348" y="40.54" type="curve" smooth="yes"/>
      <point x="463.314" y="40.54"/>
      <point x="514" y="73.6631"/>
      <point x="514" y="141" type="curve"/>
      <point x="514" y="264" type="line"/>
      <point x="556" y="264" type="line"/>
      <point x="556" y="144" type="line"/>
      <point x="556" y="45.5029"/>
      <point x="483.061" y="-3.95117"/>
      <point x="410.596" y="-3.95117" type="curve" smooth="yes"/>
      <point x="339.067" y="-3.95117"/>
      <point x="268" y="44.2344"/>
      <point x="268" y="141" type="curve" smooth="yes"/>
      <point x="268" y="284" type="line" smooth="yes"/>
      <point x="268" y="359.832"/>
      <point x="218.751" y="397.785"/>
      <point x="169.502" y="397.785" type="curve" smooth="yes"/>
      <point x="120.284" y="397.785"/>
      <point x="71.0654" y="359.881"/>
      <point x="71" y="284" type="curve" smooth="yes"/>
      <point x="70.917" y="177" type="line" smooth="yes"/>
      <point x="71" y="65"/>
      <point x="123.457" y="40"/>
      <point x="211" y="40" type="curve"/>
      <point x="211" y="0" type="line"/>
      <point x="91.1055" y="0"/>
      <point x="30" y="45"/>
    </contour>
  </outline>
</glyph>
<glyph name="si_BU" format="1">
  <advance width="586"/>
  <outline>
    <contour>
      <point x="49" y="-165" type="line"/>
      <point x="264" y="-165" type="line"/>
      <point x="264" y="-205" type="line"/>
      <point x="49" y="-205" type="line"/>
    </contour>
    <contour>
      <point x="320" y="-165" type="line"/>
      <point x="498" y="-165" type="line"/>
      <point x="498" y="-205" type="line"/>
      <point x="320" y="-205" type="line"/>
    </contour>
    <contour>
      <point x="498" y="83" type="line"/>
      <point x="538" y="83" type="line"/>
      <point x="538" y="-205" type="line"/>
      <point x="498" y="-205" type="line"/>
    </contour>
    <component base="si_Ba"/>
  </outline>
</glyph>
<glyph name="si_BUu" format="1">
  <advance width="586"/>
  <outline>
    <contour>
      <point x="51" y="-142" type="line"/>
      <point x="77.1853" y="-155.703"/>
      <point x="98.3204" y="-160.636"/>
      <point x="117.163" y="-160.636" type="curve" smooth="yes"/>
      <point x="165.629" y="-160.636"/>
      <point x="198.931" y="-128"/>
      <point x="264" y="-128" type="curve"/>
      <point x="264" y="-170" type="line"/>
      <point x="198.504" y="-170"/>
      <point x="164.646" y="-200.902"/>
      <point x="115.873" y="-200.902" type="curve" smooth="yes"/>
      <point x="97.2771" y="-200.902"/>
      <point x="76.5129" y="-196.41"/>
      <point x="51" y="-184" type="curve"/>
    </contour>
    <contour>
      <point x="320" y="-128" type="line"/>
      <point x="349.143" y="-128"/>
      <point x="418.825" y="-130.922"/>
      <point x="498" y="-161" type="curve"/>
      <point x="498" y="-205" type="line"/>
      <point x="413.61" y="-171.253"/>
      <point x="348" y="-170"/>
      <point x="320" y="-170" type="curve"/>
    </contour>
    <contour>
      <point x="498" y="83" type="line"/>
      <point x="538" y="83" type="line"/>
      <point x="538" y="-205" type="line"/>
      <point x="498" y="-205" type="line"/>
    </contour>
    <component base="si_Ba"/>
  </outline>
</glyph>
<glyph name="si_C.halant" format="1">
  <advance width="590"/>
  <outline>
    <contour>
      <point x="334.5" y="779" type="line"/>
      <point x="334.5" y="819" type="line"/>
      <point x="410" y="819" type="line" smooth="yes"/>
      <point x="488.359" y="819"/>
      <point x="543.333" y="776"/>
      <point x="543.333" y="673" type="curve"/>
      <point x="503.333" y="673" type="line"/>
      <point x="503.333" y="770"/>
      <point x="455.333" y="779"/>
      <point x="410" y="779" type="curve" smooth="yes"/>
    </contour>
    <contour>
      <point x="206" y="819" type="curve" smooth="yes"/>
      <point x="279" y="819" type="line"/>
      <point x="279" y="779" type="line"/>
      <point x="196" y="779" type="line" smooth="yes"/>
      <point x="112.438" y="779"/>
      <point x="111.247" y="652"/>
      <point x="196" y="652" type="curve" smooth="yes"/>
      <point x="335" y="652" type="line"/>
      <point x="335" y="612" type="line"/>
      <point x="206" y="612" type="line" smooth="yes"/>
      <point x="56.6943" y="612"/>
      <point x="59.251" y="819"/>
    </contour>
    <contour>
      <point x="85.333" y="612" type="line"/>
      <point x="85.333" y="652" type="line"/>
      <point x="277.333" y="652" type="line"/>
      <point x="277.333" y="612" type="line"/>
    </contour>
    <contour>
      <point x="335" y="0" type="line"/>
      <point x="494.37" y="0"/>
      <point x="560" y="83.9629"/>
      <point x="560" y="241" type="curve" smooth="yes"/>
      <point x="560" y="411" type="line" smooth="yes"/>
      <point x="560" y="568.037"/>
      <point x="494.37" y="652"/>
      <point x="335" y="652" type="curve"/>
      <point x="335" y="612" type="line"/>
      <point x="448.056" y="612"/>
      <point x="519" y="558.715"/>
      <point x="519" y="411" type="curve" smooth="yes"/>
      <point x="519" y="241" type="line" smooth="yes"/>
      <point x="519" y="95.2852"/>
      <point x="448.056" y="40"/>
      <point x="335" y="40" type="curve"/>
    </contour>
    <contour>
      <point x="209" y="309" type="line"/>
      <point x="79.9033" y="309"/>
      <point x="65.6875" y="40"/>
      <point x="279" y="40" type="curve"/>
      <point x="279" y="0" type="line"/>
      <point x="10.3691" y="0"/>
      <point x="22.9307" y="349"/>
      <point x="209" y="349" type="curve"/>
    </contour>
    <contour>
      <point x="30.0254" y="309" type="line"/>
      <point x="30" y="349" type="line"/>
      <point x="295" y="349" type="line"/>
      <point x="294.506" y="450.283"/>
      <point x="149.243" y="467.491"/>
      <point x="116" y="389" type="curve"/>
      <point x="77" y="399" type="line"/>
      <point x="107.677" y="516.998"/>
      <point x="335.062" y="506.469"/>
      <point x="334.932" y="354" type="curve" smooth="yes"/>
      <point x="335" y="309" type="line"/>
    </contour>
  </outline>
</glyph>
<glyph name="si_Ch.halant" format="1">
  <advance width="622"/>
  <outline>
    <contour>
      <point x="312.001" y="489" type="line"/>
      <point x="312.001" y="819" type="line"/>
      <point x="352.001" y="819" type="line"/>
      <point x="352.001" y="526" type="line"/>
      <point x="319.685" y="489" type="line"/>
    </contour>
    <component base="si_Cha"/>
  </outline>
</glyph>
<glyph name="si_ChUu" format="1">
  <advance width="622"/>
  <outline>
    <contour>
      <point x="40" y="-122" type="line"/>
      <point x="76.5117" y="-153.982"/>
      <point x="106.641" y="-164.643"/>
      <point x="133.563" y="-164.643" type="curve" smooth="yes"/>
      <point x="187.408" y="-164.643"/>
      <point x="228.421" y="-122"/>
      <point x="282" y="-122" type="curve"/>
      <point x="282" y="-164" type="line"/>
      <point x="228.355" y="-164"/>
      <point x="186.871" y="-204.871"/>
      <point x="133.049" y="-204.871" type="curve" smooth="yes"/>
      <point x="106.138" y="-204.871"/>
      <point x="76.1426" y="-194.653"/>
      <point x="40" y="-164" type="curve"/>
    </contour>
    <contour>
      <point x="338" y="-122" type="line"/>
      <point x="367.143" y="-122"/>
      <point x="403.825" y="-121.922"/>
      <point x="533" y="-161" type="curve"/>
      <point x="533" y="-205" type="line"/>
      <point x="386.841" y="-158.509"/>
      <point x="346.06" y="-164"/>
      <point x="338" y="-164" type="curve"/>
    </contour>
    <contour>
      <point x="533" y="51" type="line"/>
      <point x="573" y="111" type="line"/>
      <point x="573" y="-205" type="line"/>
      <point x="533" y="-205" type="line"/>
    </contour>
    <component base="si_Cha"/>
  </outline>
</glyph>
<glyph name="si_DI" format="1">
  <advance width="522"/>
  <outline>
    <contour>
      <point x="25" y="602" type="line"/>
      <point x="65" y="602" type="line"/>
      <point x="65" y="654.112"/>
      <point x="74.1426" y="749"/>
      <point x="217" y="749" type="curve"/>
      <point x="271" y="749" type="line"/>
      <point x="413.857" y="749"/>
      <point x="423" y="654.112"/>
      <point x="423" y="602" type="curve"/>
      <point x="463" y="602" type="line"/>
      <point x="463" y="630" type="line"/>
      <point x="463" y="723"/>
      <point x="387.259" y="789"/>
      <point x="287" y="789" type="curve"/>
      <point x="201" y="789" type="line"/>
      <point x="100.741" y="789"/>
      <point x="25" y="723"/>
      <point x="25" y="630" type="curve"/>
    </contour>
    <component base="si_Da"/>
  </outline>
</glyph>
<glyph name="si_DIi" format="1">
  <advance width="522"/>
  <outline>
    <contour>
      <point x="308.72" y="663.8" type="curve" smooth="yes"/>
      <point x="308.72" y="613.88"/>
      <point x="349.04" y="573.56"/>
      <point x="398.96" y="573.56" type="curve" smooth="yes"/>
      <point x="448.88" y="573.56"/>
      <point x="489.2" y="613.88"/>
      <point x="489.2" y="663.8" type="curve" smooth="yes"/>
      <point x="489.2" y="759.785"/>
      <point x="412.222" y="789"/>
      <point x="327" y="789" type="curve" smooth="yes"/>
      <point x="196" y="789" type="line" smooth="yes"/>
      <point x="95.7412" y="789"/>
      <point x="20" y="723"/>
      <point x="20" y="630" type="curve" smooth="yes"/>
      <point x="20" y="602" type="line"/>
      <point x="60" y="602" type="line"/>
      <point x="60" y="654.112"/>
      <point x="69.1426" y="749"/>
      <point x="212" y="749" type="curve" smooth="yes"/>
      <point x="311" y="749" type="line" smooth="yes"/>
      <point x="324.931" y="749"/>
      <point x="342.36" y="748.291"/>
      <point x="359.967" y="745.235" type="curve"/>
      <point x="329.625" y="730.713"/>
      <point x="308.72" y="699.745"/>
    </contour>
    <component base="si_Da"/>
  </outline>
</glyph>
<glyph name="si_DRIi" format="1">
  <advance width="532"/>
  <outline>
    <contour>
      <point x="390.76" y="603.76" type="curve" smooth="yes"/>
      <point x="340.84" y="603.76"/>
      <point x="300.52" y="644.08"/>
      <point x="300.52" y="694" type="curve" smooth="yes"/>
      <point x="300.52" y="729.897"/>
      <point x="321.8" y="763.2"/>
      <point x="355.8" y="777.2" type="curve"/>
      <point x="357.8" y="774.2" type="line"/>
      <point x="339.8" y="778.2"/>
      <point x="316.731" y="779.2"/>
      <point x="302.8" y="779.2" type="curve" smooth="yes"/>
      <point x="224.8" y="779.2" type="line" smooth="yes"/>
      <point x="81.9424" y="779.2"/>
      <point x="81.7998" y="684.312"/>
      <point x="81.7998" y="632.2" type="curve"/>
      <point x="41.7998" y="632.2" type="line"/>
      <point x="41.7998" y="660.2" type="line" smooth="yes"/>
      <point x="41.7998" y="753.2"/>
      <point x="108.541" y="819.2"/>
      <point x="208.8" y="819.2" type="curve" smooth="yes"/>
      <point x="318.8" y="819.2" type="line" smooth="yes"/>
      <point x="404.021" y="819.2"/>
      <point x="480.974" y="789.985"/>
      <point x="481" y="694" type="curve" smooth="yes"/>
      <point x="481" y="644.08"/>
      <point x="440.68" y="603.76"/>
    </contour>
    <component base="si_DRa"/>
  </outline>
</glyph>
<glyph name="si_DUu" format="1">
  <advance width="483"/>
  <outline>
    <contour>
      <point x="347" y="0" type="line"/>
      <point x="257" y="0" type="line" smooth="yes"/>
      <point x="137" y="0"/>
      <point x="30" y="60.3916"/>
      <point x="30" y="199" type="curve" smooth="yes"/>
      <point x="30" y="335.29"/>
      <point x="125.045" y="402"/>
      <point x="256" y="402" type="curve" smooth="yes"/>
      <point x="392" y="402" type="line"/>
      <point x="392" y="493.372"/>
      <point x="320.287" y="537.564"/>
      <point x="242.646" y="537.564" type="curve" smooth="yes"/>
      <point x="181.683" y="537.564"/>
      <point x="123.614" y="504.852"/>
      <point x="107" y="443" type="curve"/>
      <point x="68" y="456" type="line"/>
      <point x="89.4072" y="536.278"/>
      <point x="163.421" y="579.363"/>
      <point x="240.706" y="579.363" type="curve" smooth="yes"/>
      <point x="339.016" y="579.363"/>
      <point x="432" y="518.503"/>
      <point x="432" y="389" type="curve" smooth="yes"/>
      <point x="432" y="362" type="line"/>
      <point x="246" y="362" type="line" smooth="yes"/>
      <point x="130.019" y="362"/>
      <point x="71.624" y="293.457"/>
      <point x="71.624" y="199" type="curve" smooth="yes"/>
      <point x="71.624" y="108.484"/>
      <point x="133.124" y="40"/>
      <point x="257" y="40" type="curve"/>
      <point x="347" y="40" type="line"/>
    </contour>
    <contour>
      <point x="402" y="41" type="line"/>
      <point x="443" y="41" type="line"/>
      <point x="443" y="-205" type="line"/>
      <point x="402" y="-205" type="line"/>
    </contour>
    <contour>
      <point x="35" y="-143" type="line"/>
      <point x="59.334" y="-164.333"/>
      <point x="100.444" y="-168.777"/>
      <point x="121.741" y="-168.777" type="curve" smooth="yes"/>
      <point x="164.334" y="-168.777"/>
      <point x="196.667" y="-146"/>
      <point x="256" y="-146" type="curve" smooth="yes"/>
      <point x="293" y="-146"/>
      <point x="328.148" y="-158.167"/>
      <point x="347" y="-165" type="curve"/>
      <point x="347" y="-205" type="line"/>
      <point x="325.106" y="-194.639"/>
      <point x="293" y="-182"/>
      <point x="256" y="-182" type="curve" smooth="yes"/>
      <point x="196.667" y="-182"/>
      <point x="164.334" y="-204.777"/>
      <point x="121.741" y="-204.777" type="curve" smooth="yes"/>
      <point x="100.444" y="-204.777"/>
      <point x="59.334" y="-200.333"/>
      <point x="35" y="-179" type="curve"/>
    </contour>
  </outline>
</glyph>
<glyph name="si_DVU" format="1">
  <advance width="758"/>
  <outline>
    <contour>
      <point x="148" y="-8" type="line"/>
      <point x="88.3584" y="69.1836"/>
      <point x="84" y="118.444"/>
      <point x="84" y="209" type="curve" smooth="yes"/>
      <point x="84" y="240" type="line" smooth="yes"/>
      <point x="84" y="383.545"/>
      <point x="149.263" y="443.66"/>
      <point x="223.526" y="443.66" type="curve" smooth="yes"/>
      <point x="239.8" y="443.66"/>
      <point x="256.505" y="440.773"/>
      <point x="273.051" y="435.245" type="curve" smooth="yes"/>
      <point x="273" y="392" type="line"/>
      <point x="254.468" y="398.285"/>
      <point x="238.04" y="401.168"/>
      <point x="223.518" y="401.168" type="curve" smooth="yes"/>
      <point x="147.925" y="401.168"/>
      <point x="124" y="323.047"/>
      <point x="124" y="240" type="curve" smooth="yes"/>
      <point x="124" y="209" type="line" smooth="yes"/>
      <point x="124" y="128.436"/>
      <point x="125.558" y="84.5967"/>
      <point x="190" y="8" type="curve"/>
    </contour>
    <component base="si_VU" xOffset="190"/>
  </outline>
</glyph>
<glyph name="si_DVa" format="1">
  <advance width="687"/>
  <outline>
    <contour>
      <point x="219" y="392" type="line"/>
      <point x="200.468" y="398.285"/>
      <point x="184.04" y="401.168"/>
      <point x="169.518" y="401.168" type="curve" smooth="yes"/>
      <point x="93.925" y="401.168"/>
      <point x="70" y="323.047"/>
      <point x="70" y="240" type="curve" smooth="yes"/>
      <point x="70" y="209" type="line" smooth="yes"/>
      <point x="70" y="128.436"/>
      <point x="71.5576" y="84.5967"/>
      <point x="136" y="8" type="curve"/>
      <point x="94" y="-8" type="line"/>
      <point x="34.3584" y="69.1836"/>
      <point x="30" y="118.444"/>
      <point x="30" y="209" type="curve" smooth="yes"/>
      <point x="30" y="240" type="line" smooth="yes"/>
      <point x="30" y="383.545"/>
      <point x="95.2634" y="443.66"/>
      <point x="169.526" y="443.66" type="curve" smooth="yes"/>
      <point x="185.8" y="443.66"/>
      <point x="202.505" y="440.773"/>
      <point x="219.051" y="435.245" type="curve" smooth="yes"/>
    </contour>
    <component base="si_Va" xOffset="136"/>
  </outline>
</glyph>
<glyph name="si_Dd.halant" format="1">
  <advance width="632"/>
  <outline>
    <contour>
      <point x="215" y="0" type="curve" smooth="yes"/>
      <point x="132.107" y="0"/>
      <point x="74" y="52.25"/>
      <point x="74" y="133" type="curve" smooth="yes"/>
      <point x="74" y="235" type="line" smooth="yes"/>
      <point x="74" y="266.714"/>
      <point x="80.8193" y="297.654"/>
      <point x="102" y="309" type="curve"/>
      <point x="30.0254" y="309" type="line"/>
      <point x="30" y="349" type="line"/>
      <point x="315" y="349" type="line"/>
      <point x="314.714" y="407.658"/>
      <point x="265.87" y="438.116"/>
      <point x="218.351" y="438.116" type="curve" smooth="yes"/>
      <point x="183.821" y="438.116"/>
      <point x="149.99" y="422.033"/>
      <point x="136" y="389" type="curve"/>
      <point x="97" y="399" type="line"/>
      <point x="110.76" y="451.927"/>
      <point x="164.095" y="478.996"/>
      <point x="218.724" y="478.996" type="curve" smooth="yes"/>
      <point x="252.305" y="478.996"/>
      <point x="286.375" y="468.767"/>
      <point x="312.041" y="448.028" type="curve" smooth="yes"/>
      <point x="337.707" y="427.289"/>
      <point x="354.968" y="396.04"/>
      <point x="354.932" y="354" type="curve" smooth="yes"/>
      <point x="355" y="309" type="line"/>
      <point x="191" y="309" type="line" smooth="yes"/>
      <point x="154.631" y="309"/>
      <point x="116" y="301.575"/>
      <point x="116" y="235" type="curve" smooth="yes"/>
      <point x="116" y="139" type="line" smooth="yes"/>
      <point x="116" y="104.059"/>
      <point x="138.846" y="40"/>
      <point x="215" y="40" type="curve" smooth="yes"/>
      <point x="290.154" y="40"/>
      <point x="313" y="104.059"/>
      <point x="313" y="139" type="curve" smooth="yes"/>
      <point x="313" y="192" type="line"/>
      <point x="355" y="192" type="line"/>
      <point x="355" y="139" type="line" smooth="yes"/>
      <point x="355" y="104.059"/>
      <point x="377.846" y="40"/>
      <point x="453" y="40" type="curve" smooth="yes"/>
      <point x="529.154" y="40"/>
      <point x="552" y="104.059"/>
      <point x="552" y="139" type="curve" smooth="yes"/>
      <point x="552" y="241" type="line"/>
      <point x="594" y="241" type="line"/>
      <point x="594" y="133" type="line" smooth="yes"/>
      <point x="594" y="52.25"/>
      <point x="535.893" y="0"/>
      <point x="453" y="0" type="curve" smooth="yes"/>
      <point x="400.595" y="0"/>
      <point x="357.931" y="21.3961"/>
      <point x="334" y="57.9649" type="curve"/>
      <point x="310.069" y="21.3961"/>
      <point x="267.405" y="3.55271e-15"/>
    </contour>
    <contour>
      <point x="86.333" y="612" type="line"/>
      <point x="86.333" y="652" type="line"/>
      <point x="116.822" y="652" type="line"/>
      <point x="102.899" y="670.11"/>
      <point x="95.9775" y="692.449"/>
      <point x="95.9775" y="714.83" type="curve" smooth="yes"/>
      <point x="95.9775" y="766.802"/>
      <point x="133.309" y="819"/>
      <point x="207" y="819" type="curve" smooth="yes"/>
      <point x="301" y="819" type="line"/>
      <point x="301" y="779" type="line"/>
      <point x="197" y="779" type="line" smooth="yes"/>
      <point x="155.071" y="779"/>
      <point x="133.881" y="747.025"/>
      <point x="133.881" y="715.163" type="curve" smooth="yes"/>
      <point x="133.881" y="683.526"/>
      <point x="154.774" y="652"/>
      <point x="197" y="652" type="curve" smooth="yes"/>
      <point x="369" y="652" type="line"/>
      <point x="369" y="612" type="line"/>
    </contour>
    <contour>
      <point x="552" y="241" type="line" smooth="yes"/>
      <point x="552" y="411" type="line" smooth="yes"/>
      <point x="552" y="558.715"/>
      <point x="482.056" y="612"/>
      <point x="369" y="612" type="curve"/>
      <point x="369" y="652" type="line"/>
      <point x="528.37" y="652"/>
      <point x="594" y="568.037"/>
      <point x="594" y="411" type="curve" smooth="yes"/>
      <point x="594" y="241" type="line" smooth="yes"/>
    </contour>
    <contour>
      <point x="539.333" y="673" type="line"/>
      <point x="539.333" y="770"/>
      <point x="491.333" y="779"/>
      <point x="446" y="779" type="curve" smooth="yes"/>
      <point x="356.5" y="779" type="line"/>
      <point x="356.5" y="819" type="line"/>
      <point x="446" y="819" type="line" smooth="yes"/>
      <point x="524.359" y="819"/>
      <point x="579.333" y="776"/>
      <point x="579.333" y="673" type="curve"/>
    </contour>
  </outline>
</glyph>
<glyph name="si_DdIi" format="1">
  <advance width="624"/>
  <outline>
    <contour>
      <point x="345" y="819.2" type="line" smooth="yes"/>
      <point x="422.8" y="819.2" type="line" smooth="yes"/>
      <point x="508.021" y="819.2"/>
      <point x="584.974" y="789.985"/>
      <point x="585" y="694" type="curve" smooth="yes"/>
      <point x="585" y="644.08"/>
      <point x="544.68" y="603.76"/>
      <point x="494.76" y="603.76" type="curve" smooth="yes"/>
      <point x="444.84" y="603.76"/>
      <point x="404.52" y="644.08"/>
      <point x="404.52" y="694" type="curve" smooth="yes"/>
      <point x="404.52" y="729.897"/>
      <point x="425.8" y="763.2"/>
      <point x="459.8" y="777.2" type="curve"/>
      <point x="461.8" y="774.2" type="line"/>
      <point x="443.8" y="778.2"/>
      <point x="420.731" y="779.2"/>
      <point x="406.8" y="779.2" type="curve" smooth="yes"/>
      <point x="345" y="779.2" type="line" smooth="yes"/>
    </contour>
    <contour>
      <point x="30" y="349" type="line"/>
      <point x="315" y="349" type="line"/>
      <point x="314.714" y="407.658"/>
      <point x="265.87" y="438.116"/>
      <point x="218.351" y="438.116" type="curve" smooth="yes"/>
      <point x="183.821" y="438.116"/>
      <point x="149.99" y="422.033"/>
      <point x="136" y="389" type="curve"/>
      <point x="97" y="399" type="line"/>
      <point x="110.76" y="451.927"/>
      <point x="164.095" y="478.996"/>
      <point x="218.724" y="478.996" type="curve" smooth="yes"/>
      <point x="292.999" y="478.996"/>
      <point x="354.999" y="431.905"/>
      <point x="354.932" y="354" type="curve" smooth="yes"/>
      <point x="355" y="309" type="line"/>
      <point x="191" y="309" type="line" smooth="yes"/>
      <point x="154.631" y="309"/>
      <point x="116" y="301.575"/>
      <point x="116" y="235" type="curve" smooth="yes"/>
      <point x="116" y="139" type="line" smooth="yes"/>
      <point x="116" y="104.059"/>
      <point x="138.846" y="40"/>
      <point x="215" y="40" type="curve" smooth="yes"/>
      <point x="290.154" y="40"/>
      <point x="313" y="104.059"/>
      <point x="313" y="139" type="curve" smooth="yes"/>
      <point x="313" y="192" type="line"/>
      <point x="355" y="192" type="line"/>
      <point x="355" y="139" type="line" smooth="yes"/>
      <point x="355" y="104.059"/>
      <point x="377.846" y="40"/>
      <point x="453" y="40" type="curve" smooth="yes"/>
      <point x="529.154" y="40"/>
      <point x="552" y="104.059"/>
      <point x="552" y="139" type="curve" smooth="yes"/>
      <point x="552" y="411" type="line" smooth="yes"/>
      <point x="552" y="558.715"/>
      <point x="482.056" y="612"/>
      <point x="369" y="612" type="curve" smooth="yes"/>
      <point x="207" y="612" type="line" smooth="yes"/>
      <point x="132.68" y="612"/>
      <point x="95.9774" y="663.304"/>
      <point x="95.9774" y="714.83" type="curve" smooth="yes"/>
      <point x="95.9774" y="766.802"/>
      <point x="133.309" y="819"/>
      <point x="207" y="819" type="curve" smooth="yes"/>
      <point x="289" y="819" type="line"/>
      <point x="289" y="779" type="line"/>
      <point x="197" y="779" type="line" smooth="yes"/>
      <point x="155.071" y="779"/>
      <point x="133.881" y="747.025"/>
      <point x="133.881" y="715.163" type="curve" smooth="yes"/>
      <point x="133.881" y="683.526"/>
      <point x="154.78" y="652"/>
      <point x="197" y="652" type="curve" smooth="yes"/>
      <point x="369" y="652" type="line" smooth="yes"/>
      <point x="528.37" y="652"/>
      <point x="594" y="568.037"/>
      <point x="594" y="411" type="curve" smooth="yes"/>
      <point x="594" y="133" type="line" smooth="yes"/>
      <point x="594" y="52.25"/>
      <point x="535.893" y="0"/>
      <point x="453" y="0" type="curve" smooth="yes"/>
      <point x="400.595" y="0"/>
      <point x="357.931" y="21.3961"/>
      <point x="334" y="57.9649" type="curve"/>
      <point x="310.069" y="21.3961"/>
      <point x="267.405" y="0"/>
      <point x="215" y="0" type="curve" smooth="yes"/>
      <point x="132.107" y="0"/>
      <point x="74" y="52.25"/>
      <point x="74" y="133" type="curve" smooth="yes"/>
      <point x="74" y="235" type="line" smooth="yes"/>
      <point x="74" y="266.714"/>
      <point x="80.8193" y="297.654"/>
      <point x="102" y="309" type="curve"/>
      <point x="30.0254" y="309" type="line"/>
    </contour>
  </outline>
</glyph>
<glyph name="si_DdR.halant" format="1">
  <advance width="624"/>
  <outline>
    <contour>
      <point x="553.454" y="60.8235" type="line"/>
      <point x="583.936" y="33.0377"/>
      <point x="598.003" y="-4.14159"/>
      <point x="598.003" y="-47.0527" type="curve" smooth="yes"/>
      <point x="598.003" y="-161.31"/>
      <point x="498" y="-225.053"/>
      <point x="362" y="-225" type="curve"/>
      <point x="362" y="-185" type="line"/>
      <point x="362.146" y="-185"/>
      <point x="362.29" y="-185"/>
      <point x="362.435" y="-185" type="curve" smooth="yes"/>
      <point x="487.721" y="-185"/>
      <point x="556.786" y="-120.006"/>
      <point x="556.786" y="-47.0527" type="curve" smooth="yes"/>
      <point x="556.786" y="-14.9843"/>
      <point x="545.612" y="11.9027"/>
      <point x="522.704" y="32.1242" type="curve"/>
    </contour>
    <contour>
      <point x="305.833" y="-225.091" type="line"/>
      <point x="193.746" y="-225.148"/>
      <point x="73.833" y="-161.891"/>
      <point x="73.833" y="-48.1436" type="curve"/>
      <point x="113.833" y="-48.1436" type="line"/>
      <point x="113.833" y="-160.449"/>
      <point x="264.833" y="-185.182"/>
      <point x="305.833" y="-185.091" type="curve"/>
    </contour>
    <component base="si_Dda"/>
  </outline>
</glyph>
<glyph name="si_DdU" format="1">
  <advance width="632"/>
  <outline>
    <contour>
      <point x="540" y="83" type="line"/>
      <point x="580" y="83" type="line"/>
      <point x="580" y="-205" type="line"/>
      <point x="540" y="-205" type="line"/>
    </contour>
    <contour>
      <point x="362" y="-165" type="line"/>
      <point x="540" y="-165" type="line"/>
      <point x="540" y="-205" type="line"/>
      <point x="362" y="-205" type="line"/>
    </contour>
    <contour>
      <point x="93" y="-165" type="line"/>
      <point x="306" y="-165" type="line"/>
      <point x="306" y="-205" type="line"/>
      <point x="93" y="-205" type="line"/>
    </contour>
    <component base="si_Dda"/>
  </outline>
</glyph>
<glyph name="si_DdhUu" format="1">
  <advance width="624"/>
  <outline>
    <contour>
      <point x="95" y="-142" type="line"/>
      <point x="121.185" y="-155.703"/>
      <point x="142.32" y="-160.636"/>
      <point x="161.163" y="-160.636" type="curve" smooth="yes"/>
      <point x="209.629" y="-160.636"/>
      <point x="242.931" y="-128"/>
      <point x="308" y="-128" type="curve"/>
      <point x="308" y="-170" type="line"/>
      <point x="242.504" y="-170"/>
      <point x="208.646" y="-200.902"/>
      <point x="159.873" y="-200.902" type="curve" smooth="yes"/>
      <point x="141.277" y="-200.902"/>
      <point x="120.513" y="-196.41"/>
      <point x="95" y="-184" type="curve"/>
    </contour>
    <contour>
      <point x="364" y="-128" type="line"/>
      <point x="393.143" y="-128"/>
      <point x="462.825" y="-130.922"/>
      <point x="542" y="-161" type="curve"/>
      <point x="542" y="-205" type="line"/>
      <point x="457.61" y="-171.253"/>
      <point x="392" y="-170"/>
      <point x="364" y="-170" type="curve"/>
    </contour>
    <contour>
      <point x="542" y="83" type="line"/>
      <point x="582" y="83" type="line"/>
      <point x="582" y="-205" type="line"/>
      <point x="542" y="-205" type="line"/>
    </contour>
    <component base="si_Ddha"/>
  </outline>
</glyph>
<glyph name="si_DhIi" format="1">
  <advance width="581"/>
  <outline>
    <contour>
      <point x="318" y="819" type="line" smooth="yes"/>
      <point x="393" y="819" type="line" smooth="yes"/>
      <point x="478.221" y="819"/>
      <point x="555" y="789.985"/>
      <point x="555" y="694" type="curve" smooth="yes"/>
      <point x="555" y="644.08"/>
      <point x="514.68" y="603.76"/>
      <point x="464.76" y="603.76" type="curve" smooth="yes"/>
      <point x="414.84" y="603.76"/>
      <point x="374.52" y="644.08"/>
      <point x="374.52" y="694" type="curve" smooth="yes"/>
      <point x="374.52" y="729.897"/>
      <point x="395.8" y="763.2"/>
      <point x="429.8" y="777.2" type="curve"/>
      <point x="431.8" y="774.2" type="line"/>
      <point x="413.8" y="778.2"/>
      <point x="390.932" y="779"/>
      <point x="377" y="779" type="curve" smooth="yes"/>
      <point x="318" y="779" type="line" smooth="yes"/>
    </contour>
    <contour>
      <point x="171" y="0" type="curve" smooth="yes"/>
      <point x="88.1074" y="0"/>
      <point x="30" y="52.25"/>
      <point x="30" y="133" type="curve" smooth="yes"/>
      <point x="30" y="307" type="line" smooth="yes"/>
      <point x="30" y="387.75"/>
      <point x="78.1074" y="480"/>
      <point x="210.667" y="480" type="curve" smooth="yes"/>
      <point x="250" y="480" type="line"/>
      <point x="250" y="440" type="line"/>
      <point x="210.667" y="440" type="line" smooth="yes"/>
      <point x="84.8457" y="440"/>
      <point x="72" y="335.941"/>
      <point x="72" y="301" type="curve" smooth="yes"/>
      <point x="72" y="139" type="line" smooth="yes"/>
      <point x="72" y="104.059"/>
      <point x="94.8457" y="40"/>
      <point x="171" y="40" type="curve" smooth="yes"/>
      <point x="246.154" y="40"/>
      <point x="269" y="104.059"/>
      <point x="269" y="139" type="curve" smooth="yes"/>
      <point x="269" y="192" type="line"/>
      <point x="311" y="192" type="line"/>
      <point x="311" y="139" type="line" smooth="yes"/>
      <point x="311" y="104.059"/>
      <point x="333.846" y="40"/>
      <point x="409" y="40" type="curve" smooth="yes"/>
      <point x="485.154" y="40"/>
      <point x="508" y="104.059"/>
      <point x="508" y="139" type="curve" smooth="yes"/>
      <point x="508" y="411" type="line" smooth="yes"/>
      <point x="508" y="558.715"/>
      <point x="438.056" y="612"/>
      <point x="325" y="612" type="curve" smooth="yes"/>
      <point x="169" y="612" type="line" smooth="yes"/>
      <point x="94.6724" y="612"/>
      <point x="57.9774" y="663.304"/>
      <point x="57.9774" y="714.83" type="curve" smooth="yes"/>
      <point x="57.9774" y="766.802"/>
      <point x="95.3087" y="819"/>
      <point x="169" y="819" type="curve" smooth="yes"/>
      <point x="263" y="819" type="line"/>
      <point x="263" y="779" type="line"/>
      <point x="159" y="779" type="line" smooth="yes"/>
      <point x="117.071" y="779"/>
      <point x="95.8813" y="747.025"/>
      <point x="95.8813" y="715.163" type="curve" smooth="yes"/>
      <point x="95.8813" y="683.526"/>
      <point x="116.775" y="652"/>
      <point x="159" y="652" type="curve" smooth="yes"/>
      <point x="331.774" y="652" type="line" smooth="yes"/>
      <point x="480.998" y="652"/>
      <point x="550" y="563.434"/>
      <point x="550" y="411" type="curve" smooth="yes"/>
      <point x="550" y="133" type="line" smooth="yes"/>
      <point x="550" y="52.25"/>
      <point x="491.893" y="0"/>
      <point x="409" y="0" type="curve" smooth="yes"/>
      <point x="356.595" y="0"/>
      <point x="313.931" y="21.3961"/>
      <point x="290" y="57.9649" type="curve"/>
      <point x="266.069" y="21.3961"/>
      <point x="223.405" y="0"/>
    </contour>
  </outline>
</glyph>
<glyph name="si_DhUu" format="1">
  <advance width="580"/>
  <outline>
    <contour>
      <point x="51" y="-142" type="line"/>
      <point x="77.1853" y="-155.703"/>
      <point x="97.8502" y="-160.636"/>
      <point x="116.016" y="-160.636" type="curve" smooth="yes"/>
      <point x="162.739" y="-160.636"/>
      <point x="192.931" y="-128"/>
      <point x="258" y="-128" type="curve"/>
      <point x="258" y="-170" type="line"/>
      <point x="192.504" y="-170"/>
      <point x="161.791" y="-200.902"/>
      <point x="114.754" y="-200.902" type="curve" smooth="yes"/>
      <point x="96.82" y="-200.902"/>
      <point x="76.5129" y="-196.41"/>
      <point x="51" y="-184" type="curve"/>
    </contour>
    <contour>
      <point x="314" y="-128" type="line"/>
      <point x="343.143" y="-128"/>
      <point x="418.825" y="-130.922"/>
      <point x="498" y="-161" type="curve"/>
      <point x="498" y="-205" type="line"/>
      <point x="413.61" y="-171.253"/>
      <point x="342" y="-170"/>
      <point x="314" y="-170" type="curve"/>
    </contour>
    <contour>
      <point x="498" y="83" type="line"/>
      <point x="538" y="83" type="line"/>
      <point x="538" y="-205" type="line"/>
      <point x="498" y="-205" type="line"/>
    </contour>
    <component base="si_Dha"/>
  </outline>
</glyph>
<glyph name="si_FUu" format="1">
  <advance width="630"/>
  <outline>
    <contour>
      <point x="138.049" y="-204.871" type="curve" smooth="yes"/>
      <point x="111.138" y="-204.871"/>
      <point x="81.1426" y="-194.653"/>
      <point x="45" y="-164" type="curve"/>
      <point x="45" y="-122" type="line"/>
      <point x="81.5117" y="-153.982"/>
      <point x="111.641" y="-164.643"/>
      <point x="138.563" y="-164.643" type="curve" smooth="yes"/>
      <point x="192.408" y="-164.643"/>
      <point x="234.421" y="-122"/>
      <point x="288" y="-122" type="curve"/>
      <point x="288" y="-164" type="line"/>
      <point x="234.355" y="-164"/>
      <point x="191.871" y="-204.871"/>
    </contour>
    <contour>
      <point x="529" y="-205" type="line"/>
      <point x="382.841" y="-158.509"/>
      <point x="352.06" y="-164"/>
      <point x="344" y="-164" type="curve"/>
      <point x="344" y="-122" type="line"/>
      <point x="373.143" y="-122"/>
      <point x="399.825" y="-121.922"/>
      <point x="529" y="-161" type="curve"/>
    </contour>
    <contour>
      <point x="529" y="-205" type="line"/>
      <point x="529" y="51" type="line"/>
      <point x="569" y="111" type="line"/>
      <point x="569" y="-205" type="line"/>
    </contour>
    <component base="si_Fa"/>
  </outline>
</glyph>
<glyph name="si_GDha" format="1">
  <advance width="703"/>
  <outline>
    <contour>
      <point x="269" y="271" type="line"/>
      <point x="269" y="311" type="line"/>
      <point x="306" y="311" type="line" smooth="yes"/>
      <point x="408.232" y="311"/>
      <point x="439" y="233"/>
      <point x="439" y="164" type="curve" smooth="yes"/>
      <point x="439" y="145" type="line" smooth="yes"/>
      <point x="439" y="42.873"/>
      <point x="371.866" y="-8"/>
      <point x="272" y="-8" type="curve"/>
      <point x="272" y="32" type="line"/>
      <point x="351.817" y="32"/>
      <point x="399.126" y="66.249"/>
      <point x="399.126" y="152.124" type="curve" smooth="yes"/>
      <point x="399.126" y="199.586"/>
      <point x="391.498" y="271"/>
      <point x="306" y="271" type="curve" smooth="yes"/>
    </contour>
    <contour>
      <point x="70" y="216" type="curve" smooth="yes"/>
      <point x="70" y="340" type="line" smooth="yes"/>
      <point x="70" y="457.857"/>
      <point x="120.888" y="524"/>
      <point x="216" y="524" type="curve"/>
      <point x="216" y="564" type="line"/>
      <point x="96.7041" y="564"/>
      <point x="30.4199" y="476.263"/>
      <point x="30.0791" y="340" type="curve" smooth="yes"/>
      <point x="30.0791" y="216" type="line" smooth="yes"/>
      <point x="30.4199" y="79.7373"/>
      <point x="96.7041" y="-8"/>
      <point x="216" y="-8" type="curve"/>
      <point x="216" y="32" type="line"/>
      <point x="123.888" y="32"/>
      <point x="70" y="98.1426"/>
    </contour>
    <contour>
      <point x="669.079" y="440" type="line"/>
      <point x="657.553" y="495.542"/>
      <point x="582.338" y="527.335"/>
      <point x="502.167" y="527.335" type="curve" smooth="yes"/>
      <point x="401.491" y="527.335"/>
      <point x="293" y="477.199"/>
      <point x="293" y="361" type="curve" smooth="yes"/>
      <point x="293" y="271" type="line"/>
      <point x="252" y="271" type="line" smooth="yes"/>
      <point x="252" y="360" type="line" smooth="yes"/>
      <point x="252" y="507.368"/>
      <point x="379.345" y="573.144"/>
      <point x="501.279" y="573.144" type="curve" smooth="yes"/>
      <point x="605.038" y="573.144"/>
      <point x="704.879" y="525.515"/>
      <point x="719" y="440" type="curve"/>
    </contour>
    <contour>
      <point x="1019" y="241" type="line" smooth="yes"/>
      <point x="977" y="241" type="line" smooth="yes"/>
      <point x="977" y="514" type="line" smooth="yes"/>
      <point x="977" y="661.715"/>
      <point x="907.056" y="715"/>
      <point x="794" y="715" type="curve"/>
      <point x="787" y="715" type="line"/>
      <point x="787" y="755" type="line"/>
      <point x="794" y="755" type="line"/>
      <point x="953.37" y="755"/>
      <point x="1019" y="671.037"/>
      <point x="1019" y="514" type="curve" smooth="yes"/>
    </contour>
    <contour>
      <point x="718" y="755" type="curve"/>
      <point x="731" y="755" type="line"/>
      <point x="731" y="715" type="line"/>
      <point x="718" y="715" type="line"/>
      <point x="659.617" y="715"/>
      <point x="600.452" y="681.164"/>
      <point x="569.461" y="630.188" type="curve"/>
      <point x="529.715" y="643.683" type="line"/>
      <point x="567.123" y="711.087"/>
      <point x="647.293" y="755"/>
    </contour>
    <contour>
      <point x="679.667" y="440" type="line" smooth="yes"/>
      <point x="553.846" y="440"/>
      <point x="541" y="335.941"/>
      <point x="541" y="301" type="curve" smooth="yes"/>
      <point x="541" y="139" type="line" smooth="yes"/>
      <point x="541" y="104.059"/>
      <point x="563.846" y="40"/>
      <point x="640" y="40" type="curve" smooth="yes"/>
      <point x="715.154" y="40"/>
      <point x="738" y="104.059"/>
      <point x="738" y="139" type="curve" smooth="yes"/>
      <point x="738" y="192" type="line"/>
      <point x="780" y="192" type="line"/>
      <point x="780" y="139" type="line" smooth="yes"/>
      <point x="780" y="104.059"/>
      <point x="802.846" y="40"/>
      <point x="878" y="40" type="curve" smooth="yes"/>
      <point x="954.154" y="40"/>
      <point x="977" y="104.059"/>
      <point x="977" y="139" type="curve" smooth="yes"/>
      <point x="977" y="242" type="line"/>
      <point x="1019" y="242" type="line"/>
      <point x="1019" y="133" type="line" smooth="yes"/>
      <point x="1019" y="52.25"/>
      <point x="960.893" y="0"/>
      <point x="878" y="0" type="curve" smooth="yes"/>
      <point x="825.595" y="0"/>
      <point x="782.931" y="21.3961"/>
      <point x="759" y="57.9649" type="curve"/>
      <point x="735.069" y="21.3961"/>
      <point x="692.405" y="3.55271e-15"/>
      <point x="640" y="0" type="curve" smooth="yes"/>
      <point x="557.107" y="0"/>
      <point x="499" y="52.25"/>
      <point x="499" y="133" type="curve" smooth="yes"/>
      <point x="499" y="307" type="line" smooth="yes"/>
      <point x="499" y="387.75"/>
      <point x="547.107" y="480"/>
      <point x="679.667" y="480" type="curve" smooth="yes"/>
      <point x="699" y="480" type="line"/>
      <point x="719" y="440" type="line"/>
    </contour>
  </outline>
</glyph>
<glyph name="si_GU" format="1">
  <advance width="703"/>
  <outline>
    <contour>
      <point x="536.018" y="-30.9844" type="line" smooth="yes"/>
      <point x="536" y="16"/>
      <point x="547.141" y="76"/>
      <point x="611" y="76" type="curve" smooth="yes"/>
      <point x="673" y="76" type="line"/>
      <point x="673" y="116" type="line"/>
      <point x="611.19" y="116.003" type="line" smooth="yes"/>
      <point x="553.365" y="116.003"/>
      <point x="496" y="77"/>
      <point x="496" y="-32" type="curve" smooth="yes"/>
      <point x="496" y="-57" type="line" smooth="yes"/>
      <point x="496" y="-166"/>
      <point x="553.365" y="-205.003"/>
      <point x="611.19" y="-205.003" type="curve" smooth="yes"/>
      <point x="673" y="-205" type="line"/>
      <point x="673" y="-165" type="line"/>
      <point x="611" y="-165" type="line" smooth="yes"/>
      <point x="547.141" y="-165"/>
      <point x="536" y="-105"/>
      <point x="536.018" y="-58.0156" type="curve" smooth="yes"/>
    </contour>
    <contour>
      <point x="672.921" y="106" type="line" smooth="yes"/>
      <point x="672.921" y="340" type="line" smooth="yes"/>
      <point x="672.58" y="476.263"/>
      <point x="606.296" y="564"/>
      <point x="487" y="564" type="curve"/>
      <point x="487" y="524" type="line"/>
      <point x="582.112" y="524"/>
      <point x="633" y="457.857"/>
      <point x="633" y="340" type="curve" smooth="yes"/>
      <point x="633" y="106" type="line" smooth="yes"/>
    </contour>
    <contour>
      <point x="70" y="216" type="line" smooth="yes"/>
      <point x="70" y="98.1426"/>
      <point x="123.888" y="32"/>
      <point x="216" y="32" type="curve"/>
      <point x="216" y="-8" type="line"/>
      <point x="96.7041" y="-8"/>
      <point x="30.4199" y="79.7373"/>
      <point x="30.0791" y="216" type="curve" smooth="yes"/>
      <point x="30.0791" y="340" type="line" smooth="yes"/>
      <point x="30.4199" y="476.263"/>
      <point x="96.7041" y="564"/>
      <point x="216" y="564" type="curve"/>
      <point x="216" y="524" type="line"/>
      <point x="120.888" y="524"/>
      <point x="70" y="457.857"/>
      <point x="70" y="340" type="curve" smooth="yes"/>
    </contour>
    <contour>
      <point x="269" y="271" type="line"/>
      <point x="306" y="271" type="line" smooth="yes"/>
      <point x="391.498" y="271"/>
      <point x="399.126" y="199.586"/>
      <point x="399.126" y="152.124" type="curve" smooth="yes"/>
      <point x="399.126" y="66.249"/>
      <point x="351.817" y="32"/>
      <point x="272" y="32" type="curve"/>
      <point x="272" y="-8" type="line"/>
      <point x="371.866" y="-8"/>
      <point x="439" y="42.873"/>
      <point x="439" y="145" type="curve" smooth="yes"/>
      <point x="439" y="164" type="line" smooth="yes"/>
      <point x="439" y="233"/>
      <point x="408.232" y="311"/>
      <point x="306" y="311" type="curve" smooth="yes"/>
      <point x="269" y="311" type="line"/>
    </contour>
    <contour>
      <point x="252" y="271" type="line" smooth="yes"/>
      <point x="293" y="271" type="line"/>
      <point x="293" y="361" type="line" smooth="yes"/>
      <point x="293" y="443"/>
      <point x="324.192" y="524"/>
      <point x="431" y="524" type="curve"/>
      <point x="431" y="564" type="line"/>
      <point x="309.062" y="564"/>
      <point x="252" y="478.007"/>
      <point x="252" y="360" type="curve" smooth="yes"/>
    </contour>
  </outline>
</glyph>
<glyph name="si_GUu" format="1">
  <advance width="726"/>
  <outline>
    <contour>
      <point x="645" y="-205.003" type="line" smooth="yes"/>
      <point x="588.875" y="-205.003"/>
      <point x="547" y="-161.81"/>
      <point x="547" y="-104" type="curve" smooth="yes"/>
      <point x="546.945" y="-64" type="line" smooth="yes"/>
      <point x="546.945" y="-28.1055"/>
      <point x="567.889" y="-5.99219"/>
      <point x="580" y="0" type="curve"/>
      <point x="529" y="0" type="line"/>
      <point x="529" y="35" type="line"/>
      <point x="651" y="95" type="line"/>
      <point x="529" y="95" type="line"/>
      <point x="529" y="130" type="line"/>
      <point x="726" y="130" type="line"/>
      <point x="726" y="95" type="line"/>
      <point x="604" y="35" type="line"/>
      <point x="726" y="35" type="line"/>
      <point x="726" y="0" type="line"/>
      <point x="672" y="0" type="line" smooth="yes"/>
      <point x="615.47" y="0"/>
      <point x="587" y="-28.6729"/>
      <point x="587" y="-64" type="curve" smooth="yes"/>
      <point x="587" y="-104" type="line" smooth="yes"/>
      <point x="587.12" y="-133.833"/>
      <point x="602.775" y="-164"/>
      <point x="645" y="-164" type="curve" smooth="yes"/>
      <point x="726" y="-164" type="line"/>
      <point x="726" y="-205" type="line"/>
    </contour>
    <contour>
      <point x="272" y="-8" type="curve"/>
      <point x="272" y="32" type="line"/>
      <point x="351.817" y="32"/>
      <point x="399.126" y="66.249"/>
      <point x="399.126" y="152.124" type="curve" smooth="yes"/>
      <point x="399.126" y="199.586"/>
      <point x="391.498" y="271"/>
      <point x="306" y="271" type="curve" smooth="yes"/>
      <point x="269" y="271" type="line"/>
      <point x="269" y="311" type="line"/>
      <point x="306" y="311" type="line" smooth="yes"/>
      <point x="408.232" y="311"/>
      <point x="439" y="233"/>
      <point x="439" y="164" type="curve" smooth="yes"/>
      <point x="439" y="145" type="line" smooth="yes"/>
      <point x="439" y="42.873"/>
      <point x="371.866" y="-8"/>
    </contour>
    <contour>
      <point x="216" y="-8" type="line"/>
      <point x="96.7041" y="-8"/>
      <point x="30.4199" y="79.7373"/>
      <point x="30.0791" y="216" type="curve" smooth="yes"/>
      <point x="30.0791" y="340" type="line" smooth="yes"/>
      <point x="30.4199" y="476.263"/>
      <point x="96.7041" y="564"/>
      <point x="216" y="564" type="curve"/>
      <point x="216" y="524" type="line"/>
      <point x="120.888" y="524"/>
      <point x="70" y="457.857"/>
      <point x="70" y="340" type="curve" smooth="yes"/>
      <point x="70" y="216" type="line" smooth="yes"/>
      <point x="70" y="98.1426"/>
      <point x="123.888" y="32"/>
      <point x="216" y="32" type="curve"/>
    </contour>
    <contour>
      <point x="574" y="130" type="line"/>
      <point x="614.584" y="130"/>
      <point x="632.883" y="145.196"/>
      <point x="633" y="177" type="curve" smooth="yes"/>
      <point x="633" y="340" type="line" smooth="yes"/>
      <point x="633" y="458"/>
      <point x="582.112" y="524"/>
      <point x="487" y="524" type="curve"/>
      <point x="487" y="564" type="line"/>
      <point x="606.296" y="564"/>
      <point x="673" y="476"/>
      <point x="672.921" y="340" type="curve" smooth="yes"/>
      <point x="672.921" y="178" type="line" smooth="yes"/>
      <point x="673.021" y="165.393"/>
      <point x="669.555" y="142"/>
      <point x="660" y="130" type="curve"/>
    </contour>
    <contour>
      <point x="252" y="271" type="line" smooth="yes"/>
      <point x="252" y="360" type="line" smooth="yes"/>
      <point x="252" y="478.007"/>
      <point x="309.062" y="564"/>
      <point x="431" y="564" type="curve"/>
      <point x="431" y="524" type="line"/>
      <point x="324.192" y="524"/>
      <point x="293" y="443"/>
      <point x="293" y="361" type="curve" smooth="yes"/>
      <point x="293" y="271" type="line"/>
    </contour>
  </outline>
</glyph>
<glyph name="si_GhRI" format="1">
  <advance width="687"/>
  <outline>
    <contour>
      <point x="391.115" y="-193.947" type="line"/>
      <point x="398.115" y="-193.947" type="line" smooth="yes"/>
      <point x="546.115" y="-193.947"/>
      <point x="667" y="-60"/>
      <point x="606" y="66" type="curve"/>
      <point x="640" y="89" type="line"/>
      <point x="711.992" y="-37.9238"/>
      <point x="609" y="-234"/>
      <point x="399" y="-234" type="curve" smooth="yes"/>
      <point x="391.115" y="-233.947" type="line"/>
    </contour>
    <contour>
      <point x="336.115" y="-233.947" type="line"/>
      <point x="328" y="-234" type="line" smooth="yes"/>
      <point x="203" y="-234"/>
      <point x="66.833" y="-165.25"/>
      <point x="66.833" y="-37.0908" type="curve"/>
      <point x="106.833" y="-37.0908" type="line"/>
      <point x="106.833" y="-155.59"/>
      <point x="263" y="-194"/>
      <point x="327" y="-194" type="curve" smooth="yes"/>
      <point x="336" y="-194" type="line"/>
    </contour>
    <component base="si_GhI"/>
  </outline>
</glyph>
<glyph name="si_GhUu" format="1">
  <advance width="687"/>
  <outline>
    <contour>
      <point x="82" y="-122" type="line"/>
      <point x="118.512" y="-153.983"/>
      <point x="147.53" y="-164.643"/>
      <point x="173.712" y="-164.643" type="curve" smooth="yes"/>
      <point x="226.074" y="-164.643"/>
      <point x="267.088" y="-122"/>
      <point x="334" y="-122" type="curve"/>
      <point x="334" y="-164" type="line"/>
      <point x="267.021" y="-164"/>
      <point x="225.538" y="-204.871"/>
      <point x="173.197" y="-204.871" type="curve" smooth="yes"/>
      <point x="147.027" y="-204.871"/>
      <point x="118.142" y="-194.653"/>
      <point x="82" y="-164" type="curve"/>
    </contour>
    <contour>
      <point x="584" y="51" type="line"/>
      <point x="624" y="111" type="line"/>
      <point x="624" y="-205" type="line"/>
      <point x="584" y="-205" type="line"/>
    </contour>
    <contour>
      <point x="389" y="-122" type="line"/>
      <point x="418.143" y="-122"/>
      <point x="454.825" y="-121.922"/>
      <point x="584" y="-161" type="curve"/>
      <point x="584" y="-205" type="line"/>
      <point x="459.765" y="-165.483"/>
      <point x="412.254" y="-163.99"/>
      <point x="393.144" y="-163.99" type="curve" smooth="yes"/>
      <point x="391.581" y="-163.99"/>
      <point x="390.209" y="-164"/>
      <point x="389" y="-164" type="curve"/>
    </contour>
    <component base="si_Gha"/>
  </outline>
</glyph>
<glyph name="si_HRIi" format="1">
  <advance width="703"/>
  <outline>
    <contour>
      <point x="383.115" y="-193.947" type="line"/>
      <point x="394.115" y="-193.947" type="line" smooth="yes"/>
      <point x="542.115" y="-193.947"/>
      <point x="667" y="-60"/>
      <point x="606" y="66" type="curve"/>
      <point x="640" y="89" type="line"/>
      <point x="711.992" y="-37.9238"/>
      <point x="605" y="-234"/>
      <point x="395" y="-234" type="curve" smooth="yes"/>
      <point x="383.115" y="-233.947" type="line"/>
    </contour>
    <contour>
      <point x="328.115" y="-233.947" type="line"/>
      <point x="310" y="-234" type="line" smooth="yes"/>
      <point x="185" y="-234"/>
      <point x="40.833" y="-165.25"/>
      <point x="40.833" y="-37.0908" type="curve"/>
      <point x="80.833" y="-37.0908" type="line"/>
      <point x="80.833" y="-155.59"/>
      <point x="245" y="-194"/>
      <point x="309" y="-194" type="curve" smooth="yes"/>
      <point x="328" y="-194" type="line"/>
    </contour>
    <component base="si_HIi"/>
  </outline>
</glyph>
<glyph name="si_HU" format="1">
  <advance width="703"/>
  <outline>
    <contour>
      <point x="599" y="51" type="line"/>
      <point x="599" y="-205" type="line"/>
      <point x="639" y="-205" type="line"/>
      <point x="639" y="111" type="line"/>
    </contour>
    <contour>
      <point x="399" y="-165" type="line"/>
      <point x="399" y="-205" type="line"/>
      <point x="613" y="-205" type="line"/>
      <point x="613" y="-165" type="line"/>
    </contour>
    <contour>
      <point x="105" y="-165" type="line"/>
      <point x="105" y="-205" type="line"/>
      <point x="343" y="-205" type="line"/>
      <point x="343" y="-165" type="line"/>
    </contour>
    <component base="si_Ha"/>
  </outline>
</glyph>
<glyph name="si_HUu" format="1">
  <advance width="703"/>
  <outline>
    <contour>
      <point x="110" y="-34" type="curve"/>
      <point x="110" y="-174" type="line"/>
      <point x="150.479" y="-197.083"/>
      <point x="186.005" y="-204.777"/>
      <point x="218.741" y="-204.777" type="curve" smooth="yes"/>
      <point x="270.051" y="-204.777"/>
      <point x="312.616" y="-174"/>
      <point x="360" y="-174" type="curve"/>
      <point x="360" y="-34" type="line"/>
      <point x="312.616" y="-34"/>
      <point x="270.051" y="-67.7773"/>
      <point x="218.741" y="-67.7773" type="curve" smooth="yes"/>
      <point x="186.005" y="-67.7773"/>
      <point x="150.479" y="-59.333"/>
    </contour>
    <contour>
      <point x="538" y="131" type="line"/>
      <point x="538" y="-205" type="line"/>
      <point x="678" y="-205" type="line"/>
      <point x="678" y="131" type="line"/>
    </contour>
    <contour>
      <point x="416" y="-34" type="curve"/>
      <point x="416" y="-174" type="line"/>
      <point x="452" y="-174"/>
      <point x="493.611" y="-180.252"/>
      <point x="538" y="-205" type="curve"/>
      <point x="538" y="-61" type="line"/>
      <point x="498.826" y="-39.9221"/>
      <point x="445.143" y="-34"/>
    </contour>
    <component base="si_Ha"/>
  </outline>
</glyph>
<glyph name="si_J.halant" format="1">
  <advance width="620"/>
  <outline>
    <contour>
      <point x="310.001" y="489" type="line"/>
      <point x="310.001" y="819" type="line"/>
      <point x="350.001" y="819" type="line"/>
      <point x="350.001" y="526" type="line"/>
      <point x="317.685" y="489" type="line"/>
    </contour>
    <component base="si_Ja"/>
  </outline>
</glyph>
<glyph name="si_JI" format="1">
  <advance width="620"/>
  <outline>
    <contour>
      <point x="291.229" y="714.178" type="line"/>
      <point x="251.988" y="662.355"/>
      <point x="287.153" y="634.184"/>
      <point x="317.446" y="611.244" type="curve"/>
      <point x="293" y="579" type="line"/>
      <point x="276.26" y="591.679" type="line"/>
      <point x="219.657" y="634.538"/>
      <point x="220.394" y="686.266"/>
      <point x="265.066" y="745.26" type="curve"/>
      <point x="305" y="798" type="line"/>
      <point x="349.671" y="856.994"/>
      <point x="400.997" y="874.021"/>
      <point x="457.6" y="831.159" type="curve"/>
      <point x="474.341" y="818.482" type="line"/>
      <point x="449.935" y="786.209" type="line"/>
      <point x="419.638" y="809.149"/>
      <point x="382.988" y="835.355"/>
      <point x="343.747" y="783.535" type="curve"/>
    </contour>
    <component base="si_Ja" xOffset="-2"/>
  </outline>
</glyph>
